<svg xmlns="http://www.w3.org/2000/svg" xmlns:xlink="http://www.w3.org/1999/xlink" contentStyleType="text/css" data-diagram-type="CLASS" height="911px" preserveAspectRatio="none" style="width:1524px;height:911px;background:#FFFFFF;" version="1.1" viewBox="0 0 1524 911" width="1524px" zoomAndPan="magnify"><title>Chain of Responsibility Pattern - Simplified Overview</title><defs/><g><text fill="#000000" font-family="Verdana" font-size="22" font-weight="bold" lengthAdjust="spacing" textLength="659.2695" x="427.9201" y="35.4209">Chain of Responsibility Pattern - Simplified Overview</text><!--cluster Core Pattern--><g class="cluster" data-entity="Core Pattern" data-source-line="9" data-uid="ent0002" id="cluster_Core Pattern"><path d="M286.5,190.2694 L388.125,190.2694 A3.75,3.75 0 0 1 390.625,192.7694 L397.625,212.5662 L979.5,212.5662 A2.5,2.5 0 0 1 982,215.0662 L982,331.6594 A2.5,2.5 0 0 1 979.5,334.1594 L286.5,334.1594 A2.5,2.5 0 0 1 284,331.6594 L284,192.7694 A2.5,2.5 0 0 1 286.5,190.2694" fill="#FFFFFF" style="stroke:#000000;stroke-width:1;"/><line style="stroke:#000000;stroke-width:1;" x1="284" x2="397.625" y1="212.5662" y2="212.5662"/><text fill="#000000" font-family="Verdana" font-size="14" font-weight="bold" lengthAdjust="spacing" textLength="100.625" x="288" y="205.2645">Core Pattern</text></g><!--cluster Version Implementations--><g class="cluster" data-entity="Version Implementations" data-source-line="28" data-uid="ent0006" id="cluster_Version Implementations"><path d="M13.5,367.1594 L213.0361,367.1594 A3.75,3.75 0 0 1 215.5361,369.6594 L222.5361,389.4563 L676.5,389.4563 A2.5,2.5 0 0 1 679,391.9563 L679,799.4394 A2.5,2.5 0 0 1 676.5,801.9394 L13.5,801.9394 A2.5,2.5 0 0 1 11,799.4394 L11,369.6594 A2.5,2.5 0 0 1 13.5,367.1594" fill="#FFFFFF" style="stroke:#000000;stroke-width:1;"/><line style="stroke:#000000;stroke-width:1;" x1="11" x2="222.5361" y1="389.4563" y2="389.4563"/><text fill="#000000" font-family="Verdana" font-size="14" font-weight="bold" lengthAdjust="spacing" textLength="198.5361" x="15" y="382.1545">Version Implementations</text></g><!--class Validator--><g class="entity" data-entity="Validator" data-source-line="10" data-uid="ent0003" id="entity_Validator"><rect fill="#FFFFFF" height="92.8906" rx="2.5" ry="2.5" style="stroke:#000000;stroke-width:1;" width="205.1387" x="760.43" y="225.2694"/><ellipse cx="827.6434" cy="239.2694" fill="#FFFFFF" rx="9" ry="9" style="stroke:#000000;stroke-width:1;"/><path d="M827.7528,234.6131 L826.5965,239.6912 L828.9246,239.6912 L827.7528,234.6131 Z M826.2684,232.3787 L829.2528,232.3787 L832.6121,244.7694 L830.159,244.7694 L829.3934,241.7069 L826.1121,241.7069 L825.3621,244.7694 L822.9246,244.7694 L826.2684,232.3787 Z " fill="#000000"/><text fill="#000000" font-family="Verdana" font-size="14" font-style="italic" lengthAdjust="spacing" textLength="63.2119" x="845.1434" y="244.1161">Validator</text><line style="stroke:#000000;stroke-width:1;" x1="761.43" x2="964.5687" y1="253.2694" y2="253.2694"/><line style="stroke:#000000;stroke-width:1;" x1="761.43" x2="964.5687" y1="261.2694" y2="261.2694"/><ellipse cx="771.43" cy="274.9178" fill="#FFFFFF" rx="3" ry="3" style="stroke:#000000;stroke-width:1;"/><text fill="#000000" font-family="Verdana" font-size="14" lengthAdjust="spacing" textLength="181.1387" x="778.43" y="278.2645">can_handle(version): bool</text><ellipse cx="771.43" cy="291.2147" fill="#FFFFFF" rx="3" ry="3" style="stroke:#000000;stroke-width:1;"/><text fill="#000000" font-family="Verdana" font-size="14" lengthAdjust="spacing" textLength="147.752" x="778.43" y="294.5614">validate(data): result</text><ellipse cx="771.43" cy="307.5116" fill="#FFFFFF" rx="3" ry="3" style="stroke:#000000;stroke-width:1;"/><text fill="#000000" font-family="Verdana" font-size="14" lengthAdjust="spacing" textLength="171.2949" x="778.43" y="310.8582">set_next(validator): void</text></g><!--class RegistryAccessorBase--><g class="entity" data-entity="RegistryAccessorBase" data-source-line="16" data-uid="ent0004" id="entity_RegistryAccessorBase"><rect fill="#FFFFFF" height="76.5938" rx="2.5" ry="2.5" style="stroke:#000000;stroke-width:1;" width="185.3965" x="300.3" y="233.4194"/><ellipse cx="314.5916" cy="247.4194" fill="#FFFFFF" rx="9" ry="9" style="stroke:#000000;stroke-width:1;"/><path d="M314.7009,242.7631 L313.5447,247.8413 L315.8728,247.8413 L314.7009,242.7631 Z M313.2166,240.5288 L316.2009,240.5288 L319.5603,252.9194 L317.1072,252.9194 L316.3416,249.8569 L313.0603,249.8569 L312.3103,252.9194 L309.8728,252.9194 L313.2166,240.5288 Z " fill="#000000"/><text fill="#000000" font-family="Verdana" font-size="14" font-style="italic" lengthAdjust="spacing" textLength="154.5264" x="326.8786" y="252.2661">RegistryAccessorBase</text><line style="stroke:#000000;stroke-width:1;" x1="301.3" x2="484.6965" y1="261.4194" y2="261.4194"/><line style="stroke:#000000;stroke-width:1;" x1="301.3" x2="484.6965" y1="269.4194" y2="269.4194"/><ellipse cx="311.3" cy="283.0678" fill="#FFFFFF" rx="3" ry="3" style="stroke:#000000;stroke-width:1;"/><text fill="#000000" font-family="Verdana" font-size="14" lengthAdjust="spacing" textLength="161.3965" x="318.3" y="286.4145">can_handle(data): bool</text><ellipse cx="311.3" cy="299.3647" fill="#FFFFFF" rx="3" ry="3" style="stroke:#000000;stroke-width:1;"/><text fill="#000000" font-family="Verdana" font-size="14" lengthAdjust="spacing" textLength="145.6465" x="318.3" y="302.7114">process(data): result</text></g><!--class HatchPkgAccessor--><g class="entity" data-entity="HatchPkgAccessor" data-source-line="20" data-uid="ent0005" id="entity_HatchPkgAccessor"><rect fill="#FFFFFF" height="92.8906" rx="2.5" ry="2.5" style="stroke:#000000;stroke-width:1;" width="205.1387" x="520.43" y="225.2694"/><ellipse cx="555.0489" cy="239.2694" fill="#FFFFFF" rx="9" ry="9" style="stroke:#000000;stroke-width:1;"/><path d="M555.1583,234.6131 L554.002,239.6912 L556.3301,239.6912 L555.1583,234.6131 Z M553.6739,232.3787 L556.6583,232.3787 L560.0176,244.7694 L557.5645,244.7694 L556.7989,241.7069 L553.5176,241.7069 L552.7676,244.7694 L550.3301,244.7694 L553.6739,232.3787 Z " fill="#000000"/><text fill="#000000" font-family="Verdana" font-size="14" font-style="italic" lengthAdjust="spacing" textLength="129.0967" x="571.8531" y="244.1161">HatchPkgAccessor</text><line style="stroke:#000000;stroke-width:1;" x1="521.43" x2="724.5687" y1="253.2694" y2="253.2694"/><line style="stroke:#000000;stroke-width:1;" x1="521.43" x2="724.5687" y1="261.2694" y2="261.2694"/><ellipse cx="531.43" cy="274.9178" fill="#FFFFFF" rx="3" ry="3" style="stroke:#000000;stroke-width:1;"/><text fill="#000000" font-family="Verdana" font-size="14" lengthAdjust="spacing" textLength="181.1387" x="538.43" y="278.2645">can_handle(version): bool</text><ellipse cx="531.43" cy="291.2147" fill="#FFFFFF" rx="3" ry="3" style="stroke:#000000;stroke-width:1;"/><text fill="#000000" font-family="Verdana" font-size="14" lengthAdjust="spacing" textLength="181.002" x="538.43" y="294.5614">get_data(metadata): data</text><ellipse cx="531.43" cy="307.5116" fill="#FFFFFF" rx="3" ry="3" style="stroke:#000000;stroke-width:1;"/><text fill="#000000" font-family="Verdana" font-size="14" lengthAdjust="spacing" textLength="170.8711" x="538.43" y="310.8582">set_next(accessor): void</text></g><!--class V1_2_1_Validator--><g class="entity" data-entity="V1_2_1_Validator" data-source-line="29" data-uid="ent0007" id="entity_V1_2_1_Validator"><rect fill="#FFFFFF" height="76.5938" rx="2.5" ry="2.5" style="stroke:#000000;stroke-width:1;" width="153.8623" x="509.07" y="402.1594"/><ellipse cx="524.4782" cy="416.1594" fill="#FFFFFF" rx="9" ry="9" style="stroke:#000000;stroke-width:1;"/><path d="M527.447,421.8 Q526.8688,422.0969 526.2282,422.2375 Q525.5876,422.3938 524.8845,422.3938 Q522.3845,422.3938 521.0563,420.7531 Q519.7438,419.0969 519.7438,415.9719 Q519.7438,412.8469 521.0563,411.1906 Q522.3845,409.5344 524.8845,409.5344 Q525.5876,409.5344 526.2282,409.6906 Q526.8845,409.8469 527.447,410.1438 L527.447,412.8625 Q526.822,412.2844 526.2282,412.0188 Q525.6345,411.7375 525.0095,411.7375 Q523.6657,411.7375 522.9782,412.8156 Q522.2907,413.8781 522.2907,415.9719 Q522.2907,418.0656 522.9782,419.1438 Q523.6657,420.2063 525.0095,420.2063 Q525.6345,420.2063 526.2282,419.9406 Q526.822,419.6594 527.447,419.0813 L527.447,421.8 Z " fill="#000000"/><text fill="#000000" font-family="Verdana" font-size="14" lengthAdjust="spacing" textLength="120.5107" x="537.0134" y="421.0061">V1_2_1_Validator</text><line style="stroke:#000000;stroke-width:1;" x1="510.07" x2="661.9323" y1="430.1594" y2="430.1594"/><line style="stroke:#000000;stroke-width:1;" x1="510.07" x2="661.9323" y1="438.1594" y2="438.1594"/><ellipse cx="520.07" cy="451.8078" fill="#FFFFFF" rx="3" ry="3" style="stroke:#000000;stroke-width:1;"/><text fill="#000000" font-family="Verdana" font-size="14" lengthAdjust="spacing" textLength="129.8623" x="527.07" y="455.1545">can_handle(): bool</text><ellipse cx="520.07" cy="468.1047" fill="#FFFFFF" rx="3" ry="3" style="stroke:#000000;stroke-width:1;"/><text fill="#000000" font-family="Verdana" font-size="14" lengthAdjust="spacing" textLength="116.2178" x="527.07" y="471.4514">validate(): result</text></g><!--class V1_2_0_Validator--><g class="entity" data-entity="V1_2_0_Validator" data-source-line="34" data-uid="ent0008" id="entity_V1_2_0_Validator"><rect fill="#FFFFFF" height="76.5938" rx="2.5" ry="2.5" style="stroke:#000000;stroke-width:1;" width="153.8623" x="509.07" y="555.7494"/><ellipse cx="524.4782" cy="569.7494" fill="#FFFFFF" rx="9" ry="9" style="stroke:#000000;stroke-width:1;"/><path d="M527.447,575.39 Q526.8688,575.6869 526.2282,575.8275 Q525.5876,575.9838 524.8845,575.9838 Q522.3845,575.9838 521.0563,574.3431 Q519.7438,572.6869 519.7438,569.5619 Q519.7438,566.4369 521.0563,564.7806 Q522.3845,563.1244 524.8845,563.1244 Q525.5876,563.1244 526.2282,563.2806 Q526.8845,563.4369 527.447,563.7338 L527.447,566.4525 Q526.822,565.8744 526.2282,565.6088 Q525.6345,565.3275 525.0095,565.3275 Q523.6657,565.3275 522.9782,566.4056 Q522.2907,567.4681 522.2907,569.5619 Q522.2907,571.6556 522.9782,572.7338 Q523.6657,573.7963 525.0095,573.7963 Q525.6345,573.7963 526.2282,573.5306 Q526.822,573.2494 527.447,572.6713 L527.447,575.39 Z " fill="#000000"/><text fill="#000000" font-family="Verdana" font-size="14" lengthAdjust="spacing" textLength="120.5107" x="537.0134" y="574.5961">V1_2_0_Validator</text><line style="stroke:#000000;stroke-width:1;" x1="510.07" x2="661.9323" y1="583.7494" y2="583.7494"/><line style="stroke:#000000;stroke-width:1;" x1="510.07" x2="661.9323" y1="591.7494" y2="591.7494"/><ellipse cx="520.07" cy="605.3978" fill="#FFFFFF" rx="3" ry="3" style="stroke:#000000;stroke-width:1;"/><text fill="#000000" font-family="Verdana" font-size="14" lengthAdjust="spacing" textLength="129.8623" x="527.07" y="608.7445">can_handle(): bool</text><ellipse cx="520.07" cy="621.6947" fill="#FFFFFF" rx="3" ry="3" style="stroke:#000000;stroke-width:1;"/><text fill="#000000" font-family="Verdana" font-size="14" lengthAdjust="spacing" textLength="116.2178" x="527.07" y="625.0414">validate(): result</text></g><!--class V1_1_0_Validator--><g class="entity" data-entity="V1_1_0_Validator" data-source-line="39" data-uid="ent0009" id="entity_V1_1_0_Validator"><rect fill="#FFFFFF" height="76.5938" rx="2.5" ry="2.5" style="stroke:#000000;stroke-width:1;" width="153.8623" x="509.07" y="709.3494"/><ellipse cx="524.4782" cy="723.3494" fill="#FFFFFF" rx="9" ry="9" style="stroke:#000000;stroke-width:1;"/><path d="M527.447,728.99 Q526.8688,729.2869 526.2282,729.4275 Q525.5876,729.5838 524.8845,729.5838 Q522.3845,729.5838 521.0563,727.9431 Q519.7438,726.2869 519.7438,723.1619 Q519.7438,720.0369 521.0563,718.3806 Q522.3845,716.7244 524.8845,716.7244 Q525.5876,716.7244 526.2282,716.8806 Q526.8845,717.0369 527.447,717.3338 L527.447,720.0525 Q526.822,719.4744 526.2282,719.2088 Q525.6345,718.9275 525.0095,718.9275 Q523.6657,718.9275 522.9782,720.0056 Q522.2907,721.0681 522.2907,723.1619 Q522.2907,725.2556 522.9782,726.3338 Q523.6657,727.3963 525.0095,727.3963 Q525.6345,727.3963 526.2282,727.1306 Q526.822,726.8494 527.447,726.2713 L527.447,728.99 Z " fill="#000000"/><text fill="#000000" font-family="Verdana" font-size="14" lengthAdjust="spacing" textLength="120.5107" x="537.0134" y="728.1961">V1_1_0_Validator</text><line style="stroke:#000000;stroke-width:1;" x1="510.07" x2="661.9323" y1="737.3494" y2="737.3494"/><line style="stroke:#000000;stroke-width:1;" x1="510.07" x2="661.9323" y1="745.3494" y2="745.3494"/><ellipse cx="520.07" cy="758.9978" fill="#FFFFFF" rx="3" ry="3" style="stroke:#000000;stroke-width:1;"/><text fill="#000000" font-family="Verdana" font-size="14" lengthAdjust="spacing" textLength="129.8623" x="527.07" y="762.3445">can_handle(): bool</text><ellipse cx="520.07" cy="775.2947" fill="#FFFFFF" rx="3" ry="3" style="stroke:#000000;stroke-width:1;"/><text fill="#000000" font-family="Verdana" font-size="14" lengthAdjust="spacing" textLength="116.2178" x="527.07" y="778.6414">validate(): result</text></g><!--class V1_2_1_PackageAccessor--><g class="entity" data-entity="V1_2_1_PackageAccessor" data-source-line="44" data-uid="ent0010" id="entity_V1_2_1_PackageAccessor"><rect fill="#FFFFFF" height="76.5938" rx="2.5" ry="2.5" style="stroke:#000000;stroke-width:1;" width="206.6982" x="267.65" y="402.1594"/><ellipse cx="280.65" cy="416.1594" fill="#FFFFFF" rx="9" ry="9" style="stroke:#000000;stroke-width:1;"/><path d="M283.6188,421.8 Q283.0406,422.0969 282.4,422.2375 Q281.7594,422.3938 281.0563,422.3938 Q278.5563,422.3938 277.2281,420.7531 Q275.9156,419.0969 275.9156,415.9719 Q275.9156,412.8469 277.2281,411.1906 Q278.5563,409.5344 281.0563,409.5344 Q281.7594,409.5344 282.4,409.6906 Q283.0563,409.8469 283.6188,410.1438 L283.6188,412.8625 Q282.9938,412.2844 282.4,412.0188 Q281.8063,411.7375 281.1813,411.7375 Q279.8375,411.7375 279.15,412.8156 Q278.4625,413.8781 278.4625,415.9719 Q278.4625,418.0656 279.15,419.1438 Q279.8375,420.2063 281.1813,420.2063 Q281.8063,420.2063 282.4,419.9406 Q282.9938,419.6594 283.6188,419.0813 L283.6188,421.8 Z " fill="#000000"/><text fill="#000000" font-family="Verdana" font-size="14" lengthAdjust="spacing" textLength="178.6982" x="292.65" y="421.0061">V1_2_1_PackageAccessor</text><line style="stroke:#000000;stroke-width:1;" x1="268.65" x2="473.3482" y1="430.1594" y2="430.1594"/><line style="stroke:#000000;stroke-width:1;" x1="268.65" x2="473.3482" y1="438.1594" y2="438.1594"/><ellipse cx="278.65" cy="451.8078" fill="#FFFFFF" rx="3" ry="3" style="stroke:#000000;stroke-width:1;"/><text fill="#000000" font-family="Verdana" font-size="14" lengthAdjust="spacing" textLength="129.8623" x="285.65" y="455.1545">can_handle(): bool</text><ellipse cx="278.65" cy="468.1047" fill="#FFFFFF" rx="3" ry="3" style="stroke:#000000;stroke-width:1;"/><text fill="#000000" font-family="Verdana" font-size="14" lengthAdjust="spacing" textLength="113.1484" x="285.65" y="471.4514">get_data(): data</text></g><!--class V1_2_0_PackageAccessor--><g class="entity" data-entity="V1_2_0_PackageAccessor" data-source-line="49" data-uid="ent0011" id="entity_V1_2_0_PackageAccessor"><rect fill="#FFFFFF" height="76.5938" rx="2.5" ry="2.5" style="stroke:#000000;stroke-width:1;" width="206.6982" x="267.65" y="555.7494"/><ellipse cx="280.65" cy="569.7494" fill="#FFFFFF" rx="9" ry="9" style="stroke:#000000;stroke-width:1;"/><path d="M283.6188,575.39 Q283.0406,575.6869 282.4,575.8275 Q281.7594,575.9838 281.0563,575.9838 Q278.5563,575.9838 277.2281,574.3431 Q275.9156,572.6869 275.9156,569.5619 Q275.9156,566.4369 277.2281,564.7806 Q278.5563,563.1244 281.0563,563.1244 Q281.7594,563.1244 282.4,563.2806 Q283.0563,563.4369 283.6188,563.7338 L283.6188,566.4525 Q282.9938,565.8744 282.4,565.6088 Q281.8063,565.3275 281.1813,565.3275 Q279.8375,565.3275 279.15,566.4056 Q278.4625,567.4681 278.4625,569.5619 Q278.4625,571.6556 279.15,572.7338 Q279.8375,573.7963 281.1813,573.7963 Q281.8063,573.7963 282.4,573.5306 Q282.9938,573.2494 283.6188,572.6713 L283.6188,575.39 Z " fill="#000000"/><text fill="#000000" font-family="Verdana" font-size="14" lengthAdjust="spacing" textLength="178.6982" x="292.65" y="574.5961">V1_2_0_PackageAccessor</text><line style="stroke:#000000;stroke-width:1;" x1="268.65" x2="473.3482" y1="583.7494" y2="583.7494"/><line style="stroke:#000000;stroke-width:1;" x1="268.65" x2="473.3482" y1="591.7494" y2="591.7494"/><ellipse cx="278.65" cy="605.3978" fill="#FFFFFF" rx="3" ry="3" style="stroke:#000000;stroke-width:1;"/><text fill="#000000" font-family="Verdana" font-size="14" lengthAdjust="spacing" textLength="129.8623" x="285.65" y="608.7445">can_handle(): bool</text><ellipse cx="278.65" cy="621.6947" fill="#FFFFFF" rx="3" ry="3" style="stroke:#000000;stroke-width:1;"/><text fill="#000000" font-family="Verdana" font-size="14" lengthAdjust="spacing" textLength="113.1484" x="285.65" y="625.0414">get_data(): data</text></g><!--class V1_1_0_PackageAccessor--><g class="entity" data-entity="V1_1_0_PackageAccessor" data-source-line="54" data-uid="ent0012" id="entity_V1_1_0_PackageAccessor"><rect fill="#FFFFFF" height="76.5938" rx="2.5" ry="2.5" style="stroke:#000000;stroke-width:1;" width="206.6982" x="267.65" y="709.3494"/><ellipse cx="280.65" cy="723.3494" fill="#FFFFFF" rx="9" ry="9" style="stroke:#000000;stroke-width:1;"/><path d="M283.6188,728.99 Q283.0406,729.2869 282.4,729.4275 Q281.7594,729.5838 281.0563,729.5838 Q278.5563,729.5838 277.2281,727.9431 Q275.9156,726.2869 275.9156,723.1619 Q275.9156,720.0369 277.2281,718.3806 Q278.5563,716.7244 281.0563,716.7244 Q281.7594,716.7244 282.4,716.8806 Q283.0563,717.0369 283.6188,717.3338 L283.6188,720.0525 Q282.9938,719.4744 282.4,719.2088 Q281.8063,718.9275 281.1813,718.9275 Q279.8375,718.9275 279.15,720.0056 Q278.4625,721.0681 278.4625,723.1619 Q278.4625,725.2556 279.15,726.3338 Q279.8375,727.3963 281.1813,727.3963 Q281.8063,727.3963 282.4,727.1306 Q282.9938,726.8494 283.6188,726.2713 L283.6188,728.99 Z " fill="#000000"/><text fill="#000000" font-family="Verdana" font-size="14" lengthAdjust="spacing" textLength="178.6982" x="292.65" y="728.1961">V1_1_0_PackageAccessor</text><line style="stroke:#000000;stroke-width:1;" x1="268.65" x2="473.3482" y1="737.3494" y2="737.3494"/><line style="stroke:#000000;stroke-width:1;" x1="268.65" x2="473.3482" y1="745.3494" y2="745.3494"/><ellipse cx="278.65" cy="758.9978" fill="#FFFFFF" rx="3" ry="3" style="stroke:#000000;stroke-width:1;"/><text fill="#000000" font-family="Verdana" font-size="14" lengthAdjust="spacing" textLength="129.8623" x="285.65" y="762.3445">can_handle(): bool</text><ellipse cx="278.65" cy="775.2947" fill="#FFFFFF" rx="3" ry="3" style="stroke:#000000;stroke-width:1;"/><text fill="#000000" font-family="Verdana" font-size="14" lengthAdjust="spacing" textLength="113.1484" x="285.65" y="778.6414">get_data(): data</text></g><!--class V1_1_0_RegistryAccessor--><g class="entity" data-entity="V1_1_0_RegistryAccessor" data-source-line="59" data-uid="ent0013" id="entity_V1_1_0_RegistryAccessor"><rect fill="#FFFFFF" height="76.5938" rx="2.5" ry="2.5" style="stroke:#000000;stroke-width:1;" width="205.7344" x="27.13" y="402.1594"/><ellipse cx="40.13" cy="416.1594" fill="#FFFFFF" rx="9" ry="9" style="stroke:#000000;stroke-width:1;"/><path d="M43.0988,421.8 Q42.5206,422.0969 41.88,422.2375 Q41.2394,422.3938 40.5363,422.3938 Q38.0363,422.3938 36.7081,420.7531 Q35.3956,419.0969 35.3956,415.9719 Q35.3956,412.8469 36.7081,411.1906 Q38.0363,409.5344 40.5363,409.5344 Q41.2394,409.5344 41.88,409.6906 Q42.5363,409.8469 43.0988,410.1438 L43.0988,412.8625 Q42.4738,412.2844 41.88,412.0188 Q41.2863,411.7375 40.6613,411.7375 Q39.3175,411.7375 38.63,412.8156 Q37.9425,413.8781 37.9425,415.9719 Q37.9425,418.0656 38.63,419.1438 Q39.3175,420.2063 40.6613,420.2063 Q41.2863,420.2063 41.88,419.9406 Q42.4738,419.6594 43.0988,419.0813 L43.0988,421.8 Z " fill="#000000"/><text fill="#000000" font-family="Verdana" font-size="14" lengthAdjust="spacing" textLength="177.7344" x="52.13" y="421.0061">V1_1_0_RegistryAccessor</text><line style="stroke:#000000;stroke-width:1;" x1="28.13" x2="231.8644" y1="430.1594" y2="430.1594"/><line style="stroke:#000000;stroke-width:1;" x1="28.13" x2="231.8644" y1="438.1594" y2="438.1594"/><ellipse cx="38.13" cy="451.8078" fill="#FFFFFF" rx="3" ry="3" style="stroke:#000000;stroke-width:1;"/><text fill="#000000" font-family="Verdana" font-size="14" lengthAdjust="spacing" textLength="129.8623" x="45.13" y="455.1545">can_handle(): bool</text><ellipse cx="38.13" cy="468.1047" fill="#FFFFFF" rx="3" ry="3" style="stroke:#000000;stroke-width:1;"/><text fill="#000000" font-family="Verdana" font-size="14" lengthAdjust="spacing" textLength="114.1123" x="45.13" y="471.4514">process(): result</text></g><g class="entity" data-entity="GMN25" data-source-line="83" data-uid="ent0026" id="entity_GMN25"><path d="M704.03,72.7394 L704.03,128.1378 A0,0 0 0 0 704.03,128.1378 L859,128.1378 L863,225.0894 L867,128.1378 L1021.967,128.1378 A0,0 0 0 0 1021.967,128.1378 L1021.967,82.7394 L1011.967,72.7394 L704.03,72.7394 A0,0 0 0 0 704.03,72.7394" fill="#FFFFFF" style="stroke:#000000;stroke-width:1;"/><path d="M1011.967,72.7394 L1011.967,82.7394 L1021.967,82.7394 L1011.967,72.7394" fill="#FFFFFF" style="stroke:#000000;stroke-width:1;"/><text fill="#000000" font-family="Verdana" font-size="13" font-weight="bold" lengthAdjust="spacing" textLength="228.2681" x="710.03" y="89.8063">Chain of Responsibility Pattern</text><text fill="#000000" font-family="Verdana" font-size="13" lengthAdjust="spacing" textLength="296.937" x="710.03" y="104.9391">Each component can handle specific versions</text><text fill="#000000" font-family="Verdana" font-size="13" lengthAdjust="spacing" textLength="283.4102" x="710.03" y="120.0719">or delegate to the next component in chain</text></g><g class="entity" data-entity="GMN28" data-source-line="85" data-uid="ent0029" id="entity_GMN28"><path d="M467.1,848.9394 L467.1,904.3378 A0,0 0 0 0 467.1,904.3378 L704.8915,904.3378 A0,0 0 0 0 704.8915,904.3378 L704.8915,858.9394 L694.8915,848.9394 L590,848.9394 L586,786.3994 L582,848.9394 L467.1,848.9394 A0,0 0 0 0 467.1,848.9394" fill="#FFFFFF" style="stroke:#000000;stroke-width:1;"/><path d="M694.8915,848.9394 L694.8915,858.9394 L704.8915,858.9394 L694.8915,848.9394" fill="#FFFFFF" style="stroke:#000000;stroke-width:1;"/><text fill="#000000" font-family="Verdana" font-size="13" font-weight="bold" lengthAdjust="spacing" textLength="127.0039" x="473.1" y="866.0063">Terminal Handler</text><text fill="#000000" font-family="Verdana" font-size="13" lengthAdjust="spacing" textLength="216.7915" x="473.1" y="881.1391">Implements all base functionality</text><text fill="#000000" font-family="Verdana" font-size="13" lengthAdjust="spacing" textLength="139.7627" x="473.1" y="896.2719">No further delegation</text></g><g class="entity" data-entity="ChainPattern" data-source-line="88" data-uid="ent0031" id="entity_ChainPattern"><path d="M1056.89,57.6094 L1056.89,143.2734 L1517.1097,143.2734 L1517.1097,67.6094 L1507.1097,57.6094 L1056.89,57.6094" fill="#FFFFFF" style="stroke:#000000;stroke-width:1;"/><path d="M1507.1097,57.6094 L1507.1097,67.6094 L1517.1097,67.6094 L1507.1097,57.6094" fill="#FFFFFF" style="stroke:#000000;stroke-width:1;"/><text fill="#000000" font-family="Verdana" font-size="13" font-weight="bold" lengthAdjust="spacing" textLength="97.9507" x="1062.89" y="74.6763">Key Benefits:</text><text fill="#000000" font-family="Verdana" font-size="13" lengthAdjust="spacing" textLength="7.668" x="1062.89" y="89.8091">&#8226;</text><text fill="#000000" font-family="Verdana" font-size="13" font-weight="bold" lengthAdjust="spacing" textLength="91.1079" x="1074.6903" y="89.8091">Extensibility</text><text fill="#000000" font-family="Verdana" font-size="13" lengthAdjust="spacing" textLength="336.3115" x="1165.7982" y="89.8091">: Add new versions without modifying existing code</text><text fill="#000000" font-family="Verdana" font-size="13" lengthAdjust="spacing" textLength="7.668" x="1062.89" y="104.9419">&#8226;</text><text fill="#000000" font-family="Verdana" font-size="13" font-weight="bold" lengthAdjust="spacing" textLength="79.8154" x="1074.6903" y="104.9419">Delegation</text><text fill="#000000" font-family="Verdana" font-size="13" lengthAdjust="spacing" textLength="236.4502" x="1154.5057" y="104.9419">: Reuse logic from previous versions</text><text fill="#000000" font-family="Verdana" font-size="13" lengthAdjust="spacing" textLength="7.668" x="1062.89" y="120.0747">&#8226;</text><text fill="#000000" font-family="Verdana" font-size="13" font-weight="bold" lengthAdjust="spacing" textLength="72.3569" x="1074.6903" y="120.0747">Flexibility</text><text fill="#000000" font-family="Verdana" font-size="13" lengthAdjust="spacing" textLength="301.0059" x="1147.0472" y="120.0747">: Handle multiple schema versions seamlessly</text><text fill="#000000" font-family="Verdana" font-size="13" lengthAdjust="spacing" textLength="7.668" x="1062.89" y="135.2075">&#8226;</text><text fill="#000000" font-family="Verdana" font-size="13" font-weight="bold" lengthAdjust="spacing" textLength="110.2524" x="1074.6903" y="135.2075">Maintainability</text><text fill="#000000" font-family="Verdana" font-size="13" lengthAdjust="spacing" textLength="275.7358" x="1184.9427" y="135.2075">: Each version focuses on its changes only</text></g><!--reverse link Validator to V1_2_1_Validator--><g class="link" data-entity-1="Validator" data-entity-2="V1_2_1_Validator" data-source-line="66" data-uid="lnk14" id="link_Validator_V1_2_1_Validator"><path codeLine="66" d="M771.5183,327.7822 C727.9583,354.0022 689.39,377.2194 648.35,401.9294" fill="none" id="Validator-backto-V1_2_1_Validator" style="stroke:#000000;stroke-width:1;"/><polygon fill="none" points="786.94,318.4994,768.424,322.6416,774.6125,332.9227,786.94,318.4994" style="stroke:#000000;stroke-width:1;"/></g><!--reverse link Validator to V1_2_0_Validator--><g class="link" data-entity-1="Validator" data-entity-2="V1_2_0_Validator" data-source-line="67" data-uid="lnk15" id="link_Validator_V1_2_0_Validator"><path codeLine="67" d="M836.8147,334.7025 C812.3247,389.4925 772.41,465.1994 709,525.7494 C695.71,538.4494 679.56,549.5094 663.39,558.7894" fill="none" id="Validator-backto-V1_2_0_Validator" style="stroke:#000000;stroke-width:1;"/><polygon fill="none" points="844.16,318.2694,831.337,332.2541,842.2924,337.1509,844.16,318.2694" style="stroke:#000000;stroke-width:1;"/></g><!--reverse link Validator to V1_1_0_Validator--><g class="link" data-entity-1="Validator" data-entity-2="V1_1_0_Validator" data-source-line="68" data-uid="lnk16" id="link_Validator_V1_1_0_Validator"><path codeLine="68" d="M857.1927,336.5426 C849.3027,408.6726 828.08,532.6294 763,632.3494 C739.21,668.7994 699.29,696.0594 663.38,714.7994" fill="none" id="Validator-backto-V1_1_0_Validator" style="stroke:#000000;stroke-width:1;"/><polygon fill="none" points="859.15,318.6494,851.2283,335.8902,863.1572,337.1951,859.15,318.6494" style="stroke:#000000;stroke-width:1;"/></g><!--reverse link HatchPkgAccessor to V1_2_1_PackageAccessor--><g class="link" data-entity-1="HatchPkgAccessor" data-entity-2="V1_2_1_PackageAccessor" data-source-line="70" data-uid="lnk17" id="link_HatchPkgAccessor_V1_2_1_PackageAccessor"><path codeLine="70" d="M538.6091,328.3577 C518.7091,341.4977 512,345.9294 492,359.1594 C470.98,373.0694 447.91,388.3694 427.61,401.8394" fill="none" id="HatchPkgAccessor-backto-V1_2_1_PackageAccessor" style="stroke:#000000;stroke-width:1;"/><polygon fill="none" points="553.63,318.4394,535.303,323.3507,541.9152,333.3647,553.63,318.4394" style="stroke:#000000;stroke-width:1;"/></g><!--reverse link HatchPkgAccessor to V1_2_0_PackageAccessor--><g class="link" data-entity-1="HatchPkgAccessor" data-entity-2="V1_2_0_PackageAccessor" data-source-line="71" data-uid="lnk18" id="link_HatchPkgAccessor_V1_2_0_PackageAccessor"><path codeLine="71" d="M669.8604,333.2945 C678.0304,345.8445 675.71,344.8694 680,359.1594 C701.28,430.0894 726.76,470.9094 677,525.7494 C649.01,556.5994 532.55,546.2594 492,555.7494 C486.33,557.0794 480.53,558.5294 474.7,560.0694" fill="none" id="HatchPkgAccessor-backto-V1_2_0_PackageAccessor" style="stroke:#000000;stroke-width:1;"/><polygon fill="none" points="660.04,318.2094,664.832,336.5679,674.8887,330.021,660.04,318.2094" style="stroke:#000000;stroke-width:1;"/></g><!--reverse link HatchPkgAccessor to V1_1_0_PackageAccessor--><g class="link" data-entity-1="HatchPkgAccessor" data-entity-2="V1_1_0_PackageAccessor" data-source-line="72" data-uid="lnk19" id="link_HatchPkgAccessor_V1_1_0_PackageAccessor"><path codeLine="72" d="M701.8034,330.6977 C714.0434,342.5077 712.16,343.7894 719,359.1594 C777.37,490.2794 780.78,580.1994 677,679.3494 C616.77,736.8894 573.11,690.3694 492,709.3494 C486.33,710.6794 480.53,712.1294 474.7,713.6594" fill="none" id="HatchPkgAccessor-backto-V1_1_0_PackageAccessor" style="stroke:#000000;stroke-width:1;"/><polygon fill="none" points="688.85,318.1994,697.6373,335.0155,705.9695,326.3799,688.85,318.1994" style="stroke:#000000;stroke-width:1;"/></g><!--reverse link RegistryAccessorBase to V1_1_0_RegistryAccessor--><g class="link" data-entity-1="RegistryAccessorBase" data-entity-2="V1_1_0_RegistryAccessor" data-source-line="74" data-uid="lnk20" id="link_RegistryAccessorBase_V1_1_0_RegistryAccessor"><path codeLine="74" d="M313.8268,319.653 C288.9368,334.593 275.7,342.8094 250,359.1594 C228.64,372.7494 205.46,388.1194 185.21,401.7394" fill="none" id="RegistryAccessorBase-backto-V1_1_0_RegistryAccessor" style="stroke:#000000;stroke-width:1;"/><polygon fill="none" points="329.26,310.3894,310.7389,314.5086,316.9147,324.7974,329.26,310.3894" style="stroke:#000000;stroke-width:1;"/></g><!--link V1_2_1_Validator to V1_2_0_Validator--><g class="link" data-entity-1="V1_2_1_Validator" data-entity-2="V1_2_0_Validator" data-source-line="77" data-uid="lnk21" id="link_V1_2_1_Validator_V1_2_0_Validator"><path codeLine="77" d="M586,478.9294 C586,502.2494 586,526.1394 586,549.4794" fill="none" id="V1_2_1_Validator-to-V1_2_0_Validator" style="stroke:#000000;stroke-width:1;stroke-dasharray:7.0,7.0;"/><polygon fill="#000000" points="586,555.4794,590,546.4794,586,550.4794,582,546.4794,586,555.4794" style="stroke:#000000;stroke-width:1;"/><text fill="#000000" font-family="Verdana" font-size="13" lengthAdjust="spacing" textLength="81.1294" x="587" y="521.8163">delegates to</text></g><!--link V1_2_0_Validator to V1_1_0_Validator--><g class="link" data-entity-1="V1_2_0_Validator" data-entity-2="V1_1_0_Validator" data-source-line="78" data-uid="lnk22" id="link_V1_2_0_Validator_V1_1_0_Validator"><path codeLine="78" d="M586,632.5194 C586,655.8494 586,679.7394 586,703.0794" fill="none" id="V1_2_0_Validator-to-V1_1_0_Validator" style="stroke:#000000;stroke-width:1;stroke-dasharray:7.0,7.0;"/><polygon fill="#000000" points="586,709.0794,590,700.0794,586,704.0794,582,700.0794,586,709.0794" style="stroke:#000000;stroke-width:1;"/><text fill="#000000" font-family="Verdana" font-size="13" lengthAdjust="spacing" textLength="81.1294" x="587" y="675.4163">delegates to</text></g><!--link V1_2_1_PackageAccessor to V1_2_0_PackageAccessor--><g class="link" data-entity-1="V1_2_1_PackageAccessor" data-entity-2="V1_2_0_PackageAccessor" data-source-line="80" data-uid="lnk23" id="link_V1_2_1_PackageAccessor_V1_2_0_PackageAccessor"><path codeLine="80" d="M371,478.9294 C371,502.2494 371,526.1394 371,549.4794" fill="none" id="V1_2_1_PackageAccessor-to-V1_2_0_PackageAccessor" style="stroke:#000000;stroke-width:1;stroke-dasharray:7.0,7.0;"/><polygon fill="#000000" points="371,555.4794,375,546.4794,371,550.4794,367,546.4794,371,555.4794" style="stroke:#000000;stroke-width:1;"/><text fill="#000000" font-family="Verdana" font-size="13" lengthAdjust="spacing" textLength="81.1294" x="372" y="521.8163">delegates to</text></g><!--link V1_2_0_PackageAccessor to V1_1_0_PackageAccessor--><g class="link" data-entity-1="V1_2_0_PackageAccessor" data-entity-2="V1_1_0_PackageAccessor" data-source-line="81" data-uid="lnk24" id="link_V1_2_0_PackageAccessor_V1_1_0_PackageAccessor"><path codeLine="81" d="M371,632.5194 C371,655.8494 371,679.7394 371,703.0794" fill="none" id="V1_2_0_PackageAccessor-to-V1_1_0_PackageAccessor" style="stroke:#000000;stroke-width:1;stroke-dasharray:7.0,7.0;"/><polygon fill="#000000" points="371,709.0794,375,700.0794,371,704.0794,367,700.0794,371,709.0794" style="stroke:#000000;stroke-width:1;"/><text fill="#000000" font-family="Verdana" font-size="13" lengthAdjust="spacing" textLength="81.1294" x="372" y="675.4163">delegates to</text></g><!--SRC=[lLRDRjD04BxlKmoza1grQZXM2AajHLG8g0hggL8qMO_jLTUxrkucQGILU1OUZITXDdOIupX9EHHBSMpFp_VDVBDhlmW5bGILHcM4lrUcGeSbZ57UvyvEJ7fXjNKmArIWbbrgzFxyIKxMfUHgXx7cY9O3EcTdRPC8AcY2YuBPWCtWXdnbZLTZfLMOmpM6GCx04NnLPQLLfYY5BrDoKqKp8IfEWJd1mOLrj7G-WEy2-C2n3mvbg5d1BMgLOc3asXoFLo3HZ0eqgQO1P_NAciDJ65khMpxJEf86V48sE_8J7LeEdiB8q4COJ9SOx3MrAbtuF2xEVPHkA5VyO7uc9NbltJbwsiQkmUvGgvoDeJtC7li0Fs2GnVLzlWJyvrRaN6d46fGKi06DVttDm0QafnUFBUbkQoouOdrvC4t0mBT-gM8Ztd3qUZGSxTLmXtXzxUaYd3mpml3P4MANhklMxXDvXxfjLRTrwlbHXlyDfRiGdmwpN81TPNZ2NyALASYfW4QIMCl-viVHqSP0zzfFTjh_6YOXDjPs6wVJnbtE9qztxX58YDvDhHtHTOYTglT_HxfU_8MgF0nIqfGl7a2cxUnGREm2nyTlDnSkwrq7aeTWnOQz2Hhk2X9Rbb8Bi6lgXzsIOBW_WJ0s45zKyRNO9feaUzwMIN9dBb4M86t9PjvIumn3FSFWAvBy7fNGRFB-pd3Q9JG30dyWGDp1M_4C9oDemsfiGx3bWjXc8vFa6xbI6TJylecGBX9QRUyUK6l-tE2fo2P6Hdanihypdoq_SOo-eiEs1X5zFIDDYI99Fj8SpibGfe8_JHBn- -SlXhvy2BHgI9ASmbcQSZ6pLRKmKw6mam2bJLKsLoO7Uk1vZ1VIfjJaURSY49FSq8JfQfjpspB7bLUEfifE_2fj4_PUSx8rU5q_bBmlg2hsNlAt5wwvUC9Ii_fwtiH_uX83_t2TOw5a4m6PbSp40rzosL4JaozkEGCPhfHxzGS0]--></g></svg>