<svg xmlns="http://www.w3.org/2000/svg" xmlns:xlink="http://www.w3.org/1999/xlink" contentStyleType="text/css" data-diagram-type="SEQUENCE" height="1231px" preserveAspectRatio="none" style="width:912px;height:1231px;background:#FFFFFF;" version="1.1" viewBox="0 0 912 1231" width="912px" zoomAndPan="magnify"><title>Chain of Responsibility - Delegation Flow</title><defs/><g><text fill="#000000" font-family="Verdana" font-size="22" font-weight="bold" lengthAdjust="spacing" textLength="510.3936" x="199.5518" y="35.4209">Chain of Responsibility - Delegation Flow</text><g><title>V1.2.1 Validator</title><rect fill="#FFFFFF" height="701.7188" style="stroke:#000000;stroke-width:1;" width="10" x="253.8833" y="157.1719"/></g><g><title>V1.2.0 Validator</title><rect fill="#FFFFFF" height="398.125" style="stroke:#000000;stroke-width:1;" width="10" x="505.4893" y="431.6328"/></g><g><title>V1.1.0 Validator</title><rect fill="#FFFFFF" height="151.7969" style="stroke:#000000;stroke-width:1;" width="10" x="717.124" y="648.8281"/></g><g><title>V1.1.0 Validator</title><rect fill="#FFFFFF" height="151.7969" style="stroke:#000000;stroke-width:1;" width="10" x="717.124" y="931.1563"/></g><g><title>Client</title><rect fill="#000000" fill-opacity="0.00000" height="1113.7109" width="8" x="58.2651" y="82.9063"/><line style="stroke:#000000;stroke-width:1;" x1="62" x2="62" y1="82.9063" y2="1196.6172"/></g><g><title>V1.2.1 Validator</title><rect fill="#000000" fill-opacity="0.00000" height="1113.7109" width="8" x="254.8833" y="82.9063"/><line style="stroke:#000000;stroke-width:1;" x1="258.4526" x2="258.4526" y1="82.9063" y2="1196.6172"/></g><g><title>V1.2.0 Validator</title><rect fill="#000000" fill-opacity="0.00000" height="1113.7109" width="8" x="506.4893" y="82.9063"/><line style="stroke:#000000;stroke-width:1;" x1="510.0586" x2="510.0586" y1="82.9063" y2="1196.6172"/></g><g><title>V1.1.0 Validator</title><rect fill="#000000" fill-opacity="0.00000" height="1113.7109" width="8" x="718.124" y="82.9063"/><line style="stroke:#000000;stroke-width:1;" x1="721.6934" x2="721.6934" y1="82.9063" y2="1196.6172"/></g><g class="participant participant-head" data-participant="C"><rect fill="#FFFFFF" height="30.2969" rx="2.5" ry="2.5" style="stroke:#000000;stroke-width:1;" width="54.5303" x="35" y="51.6094"/><text fill="#000000" font-family="Verdana" font-size="14" lengthAdjust="spacing" textLength="40.5303" x="42" y="71.6045">Client</text></g><g class="participant participant-tail" data-participant="C"><rect fill="#FFFFFF" height="30.2969" rx="2.5" ry="2.5" style="stroke:#000000;stroke-width:1;" width="54.5303" x="35" y="1195.6172"/><text fill="#000000" font-family="Verdana" font-size="14" lengthAdjust="spacing" textLength="40.5303" x="42" y="1215.6123">Client</text></g><g class="participant participant-head" data-participant="V121"><rect fill="#FFFFFF" height="30.2969" rx="2.5" ry="2.5" style="stroke:#000000;stroke-width:1;" width="126.8613" x="195.4526" y="51.6094"/><text fill="#000000" font-family="Verdana" font-size="14" lengthAdjust="spacing" textLength="112.8613" x="202.4526" y="71.6045">V1.2.1 Validator</text></g><g class="participant participant-tail" data-participant="V121"><rect fill="#FFFFFF" height="30.2969" rx="2.5" ry="2.5" style="stroke:#000000;stroke-width:1;" width="126.8613" x="195.4526" y="1195.6172"/><text fill="#000000" font-family="Verdana" font-size="14" lengthAdjust="spacing" textLength="112.8613" x="202.4526" y="1215.6123">V1.2.1 Validator</text></g><g class="participant participant-head" data-participant="V120"><rect fill="#FFFFFF" height="30.2969" rx="2.5" ry="2.5" style="stroke:#000000;stroke-width:1;" width="126.8613" x="447.0586" y="51.6094"/><text fill="#000000" font-family="Verdana" font-size="14" lengthAdjust="spacing" textLength="112.8613" x="454.0586" y="71.6045">V1.2.0 Validator</text></g><g class="participant participant-tail" data-participant="V120"><rect fill="#FFFFFF" height="30.2969" rx="2.5" ry="2.5" style="stroke:#000000;stroke-width:1;" width="126.8613" x="447.0586" y="1195.6172"/><text fill="#000000" font-family="Verdana" font-size="14" lengthAdjust="spacing" textLength="112.8613" x="454.0586" y="1215.6123">V1.2.0 Validator</text></g><g class="participant participant-head" data-participant="V110"><rect fill="#FFFFFF" height="30.2969" rx="2.5" ry="2.5" style="stroke:#000000;stroke-width:1;" width="126.8613" x="658.6934" y="51.6094"/><text fill="#000000" font-family="Verdana" font-size="14" lengthAdjust="spacing" textLength="112.8613" x="665.6934" y="71.6045">V1.1.0 Validator</text></g><g class="participant participant-tail" data-participant="V110"><rect fill="#FFFFFF" height="30.2969" rx="2.5" ry="2.5" style="stroke:#000000;stroke-width:1;" width="126.8613" x="658.6934" y="1195.6172"/><text fill="#000000" font-family="Verdana" font-size="14" lengthAdjust="spacing" textLength="112.8613" x="665.6934" y="1215.6123">V1.1.0 Validator</text></g><g><title>V1.2.1 Validator</title><rect fill="#FFFFFF" height="701.7188" style="stroke:#000000;stroke-width:1;" width="10" x="253.8833" y="157.1719"/></g><g><title>V1.2.0 Validator</title><rect fill="#FFFFFF" height="398.125" style="stroke:#000000;stroke-width:1;" width="10" x="505.4893" y="431.6328"/></g><g><title>V1.1.0 Validator</title><rect fill="#FFFFFF" height="151.7969" style="stroke:#000000;stroke-width:1;" width="10" x="717.124" y="648.8281"/></g><g><title>V1.1.0 Validator</title><rect fill="#FFFFFF" height="151.7969" style="stroke:#000000;stroke-width:1;" width="10" x="717.124" y="931.1563"/></g><rect fill="#FFFFFF" height="3" style="stroke:#FFFFFF;stroke-width:1;" width="900.4971" x="5" y="113.4727"/><line style="stroke:#000000;stroke-width:0.5;" x1="5" x2="905.4971" y1="113.4727" y2="113.4727"/><line style="stroke:#000000;stroke-width:0.5;" x1="5" x2="905.4971" y1="116.4727" y2="116.4727"/><rect fill="#FFFFFF" height="23.1328" style="stroke:#000000;stroke-width:1;" width="157.8887" x="376.3042" y="102.9063"/><text fill="#000000" font-family="Verdana" font-size="13" font-weight="bold" lengthAdjust="spacing" textLength="139.3628" x="382.3042" y="118.9731">Validation Request</text><g class="message" data-participant-1="C" data-participant-2="V121"><polygon fill="#000000" points="241.8833,153.1719,251.8833,157.1719,241.8833,161.1719,245.8833,157.1719" style="stroke:#000000;stroke-width:1;"/><line style="stroke:#000000;stroke-width:1;" x1="62.2651" x2="247.8833" y1="157.1719" y2="157.1719"/><text fill="#000000" font-family="Verdana" font-size="13" lengthAdjust="spacing" textLength="172.6182" x="69.2651" y="152.106">validate(v1.2.1_metadata)</text></g><path d="M150,170.1719 L150,225.1719 L367,225.1719 L367,180.1719 L357,170.1719 L150,170.1719" fill="#FFFFFF" style="stroke:#000000;stroke-width:1;"/><path d="M357,170.1719 L357,180.1719 L367,180.1719 L357,170.1719" fill="#FFFFFF" style="stroke:#000000;stroke-width:1;"/><text fill="#000000" font-family="Verdana" font-size="13" font-weight="bold" lengthAdjust="spacing" textLength="132.0693" x="156" y="187.2388">Can Handle Check</text><text fill="#000000" font-family="Verdana" font-size="13" lengthAdjust="spacing" textLength="196.6885" x="156" y="202.3716">if schema_version == "1.2.1":</text><text fill="#000000" font-family="Verdana" font-size="13" lengthAdjust="spacing" textLength="73.9185" x="164.2646" y="217.5044">return True</text><g class="message" data-participant-1="V121" data-participant-2="V121"><line style="stroke:#000000;stroke-width:1;" x1="263.8833" x2="305.8833" y1="266.8359" y2="266.8359"/><line style="stroke:#000000;stroke-width:1;" x1="305.8833" x2="305.8833" y1="266.8359" y2="279.8359"/><line style="stroke:#000000;stroke-width:1;" x1="264.8833" x2="305.8833" y1="279.8359" y2="279.8359"/><polygon fill="#000000" points="274.8833,275.8359,264.8833,279.8359,274.8833,283.8359,270.8833,279.8359" style="stroke:#000000;stroke-width:1;"/><text fill="#000000" font-family="Verdana" font-size="13" lengthAdjust="spacing" textLength="149.6396" x="270.8833" y="246.6372">validate_entry_points()</text><text fill="#000000" font-family="Verdana" font-size="13" lengthAdjust="spacing" textLength="117.5586" x="270.8833" y="261.77">[Strategy Pattern]</text></g><g class="message" data-participant-1="V121" data-participant-2="V121"><line style="stroke:#000000;stroke-width:1;" x1="263.8833" x2="305.8833" y1="324.1016" y2="324.1016"/><line style="stroke:#000000;stroke-width:1;" x1="305.8833" x2="305.8833" y1="324.1016" y2="337.1016"/><line style="stroke:#000000;stroke-width:1;" x1="264.8833" x2="305.8833" y1="337.1016" y2="337.1016"/><polygon fill="#000000" points="274.8833,333.1016,264.8833,337.1016,274.8833,341.1016,270.8833,337.1016" style="stroke:#000000;stroke-width:1;"/><text fill="#000000" font-family="Verdana" font-size="13" lengthAdjust="spacing" textLength="100.2295" x="270.8833" y="303.9028">validate_tools()</text><text fill="#000000" font-family="Verdana" font-size="13" lengthAdjust="spacing" textLength="117.5586" x="270.8833" y="319.0356">[Strategy Pattern]</text></g><path d="M154,350.1016 L154,405.1016 L363,405.1016 L363,360.1016 L353,350.1016 L154,350.1016" fill="#FFFFFF" style="stroke:#000000;stroke-width:1;"/><path d="M353,350.1016 L353,360.1016 L363,360.1016 L353,350.1016" fill="#FFFFFF" style="stroke:#000000;stroke-width:1;"/><text fill="#000000" font-family="Verdana" font-size="13" font-weight="bold" lengthAdjust="spacing" textLength="146.4912" x="160" y="367.1685">Delegation Decision</text><text fill="#000000" font-family="Verdana" font-size="13" lengthAdjust="spacing" textLength="188.1826" x="160" y="382.3013">For dependencies validation:</text><text fill="#000000" font-family="Verdana" font-size="13" lengthAdjust="spacing" textLength="121.0181" x="160" y="397.4341">Delegate to v1.2.0</text><g class="message" data-participant-1="V121" data-participant-2="V120"><polygon fill="#000000" points="493.4893,427.6328,503.4893,431.6328,493.4893,435.6328,497.4893,431.6328" style="stroke:#000000;stroke-width:1;"/><line style="stroke:#000000;stroke-width:1;" x1="263.8833" x2="499.4893" y1="431.6328" y2="431.6328"/><text fill="#000000" font-family="Verdana" font-size="13" lengthAdjust="spacing" textLength="222.606" x="270.8833" y="426.5669">validate_dependencies(metadata)</text></g><path d="M374,444.6328 L374,499.6328 L645,499.6328 L645,454.6328 L635,444.6328 L374,444.6328" fill="#FFFFFF" style="stroke:#000000;stroke-width:1;"/><path d="M635,444.6328 L635,454.6328 L645,454.6328 L635,444.6328" fill="#FFFFFF" style="stroke:#000000;stroke-width:1;"/><text fill="#000000" font-family="Verdana" font-size="13" font-weight="bold" lengthAdjust="spacing" textLength="132.0693" x="380" y="461.6997">Can Handle Check</text><text fill="#000000" font-family="Verdana" font-size="13" lengthAdjust="spacing" textLength="250.1992" x="380" y="476.8325">if schema_version in ["1.2.0", "1.2.1"]:</text><text fill="#000000" font-family="Verdana" font-size="13" lengthAdjust="spacing" textLength="73.9185" x="388.2646" y="491.9653">return True</text><g class="message" data-participant-1="V120" data-participant-2="V120"><line style="stroke:#000000;stroke-width:1;" x1="515.4893" x2="557.4893" y1="541.2969" y2="541.2969"/><line style="stroke:#000000;stroke-width:1;" x1="557.4893" x2="557.4893" y1="541.2969" y2="554.2969"/><line style="stroke:#000000;stroke-width:1;" x1="516.4893" x2="557.4893" y1="554.2969" y2="554.2969"/><polygon fill="#000000" points="526.4893,550.2969,516.4893,554.2969,526.4893,558.2969,522.4893,554.2969" style="stroke:#000000;stroke-width:1;"/><text fill="#000000" font-family="Verdana" font-size="13" lengthAdjust="spacing" textLength="159.5991" x="522.4893" y="521.0981">validate_dependencies()</text><text fill="#000000" font-family="Verdana" font-size="13" lengthAdjust="spacing" textLength="117.5586" x="522.4893" y="536.231">[Strategy Pattern]</text></g><path d="M425,567.2969 L425,622.2969 L594,622.2969 L594,577.2969 L584,567.2969 L425,567.2969" fill="#FFFFFF" style="stroke:#000000;stroke-width:1;"/><path d="M584,567.2969 L584,577.2969 L594,577.2969 L584,567.2969" fill="#FFFFFF" style="stroke:#000000;stroke-width:1;"/><text fill="#000000" font-family="Verdana" font-size="13" font-weight="bold" lengthAdjust="spacing" textLength="146.4912" x="431" y="584.3638">Delegation Decision</text><text fill="#000000" font-family="Verdana" font-size="13" lengthAdjust="spacing" textLength="148.2114" x="431" y="599.4966">For schema validation:</text><text fill="#000000" font-family="Verdana" font-size="13" lengthAdjust="spacing" textLength="121.0181" x="431" y="614.6294">Delegate to v1.1.0</text><g class="message" data-participant-1="V120" data-participant-2="V110"><polygon fill="#000000" points="705.124,644.8281,715.124,648.8281,705.124,652.8281,709.124,648.8281" style="stroke:#000000;stroke-width:1;"/><line style="stroke:#000000;stroke-width:1;" x1="515.4893" x2="711.124" y1="648.8281" y2="648.8281"/><text fill="#000000" font-family="Verdana" font-size="13" lengthAdjust="spacing" textLength="182.6348" x="522.4893" y="643.7622">validate_schema(metadata)</text></g><path d="M611,661.8281 L611,716.8281 L831,716.8281 L831,671.8281 L821,661.8281 L611,661.8281" fill="#FFFFFF" style="stroke:#000000;stroke-width:1;"/><path d="M821,661.8281 L821,671.8281 L831,671.8281 L821,661.8281" fill="#FFFFFF" style="stroke:#000000;stroke-width:1;"/><text fill="#000000" font-family="Verdana" font-size="13" font-weight="bold" lengthAdjust="spacing" textLength="127.0039" x="617" y="678.895">Terminal Handler</text><text fill="#000000" font-family="Verdana" font-size="13" lengthAdjust="spacing" textLength="199.71" x="617" y="694.0278">Implements all base validation</text><text fill="#000000" font-family="Verdana" font-size="13" lengthAdjust="spacing" textLength="139.7627" x="617" y="709.1606">No further delegation</text><g class="message" data-participant-1="V110" data-participant-2="V110"><line style="stroke:#000000;stroke-width:1;" x1="727.124" x2="769.124" y1="758.4922" y2="758.4922"/><line style="stroke:#000000;stroke-width:1;" x1="769.124" x2="769.124" y1="758.4922" y2="771.4922"/><line style="stroke:#000000;stroke-width:1;" x1="728.124" x2="769.124" y1="771.4922" y2="771.4922"/><polygon fill="#000000" points="738.124,767.4922,728.124,771.4922,738.124,775.4922,734.124,771.4922" style="stroke:#000000;stroke-width:1;"/><text fill="#000000" font-family="Verdana" font-size="13" lengthAdjust="spacing" textLength="119.6279" x="734.124" y="738.2935">validate_schema()</text><text fill="#000000" font-family="Verdana" font-size="13" lengthAdjust="spacing" textLength="117.5586" x="734.124" y="753.4263">[Strategy Pattern]</text></g><g class="message" data-participant-1="V110" data-participant-2="V120"><polygon fill="#000000" points="526.4893,796.625,516.4893,800.625,526.4893,804.625,522.4893,800.625" style="stroke:#000000;stroke-width:1;"/><line style="stroke:#000000;stroke-width:1;stroke-dasharray:2.0,2.0;" x1="520.4893" x2="721.124" y1="800.625" y2="800.625"/><text fill="#000000" font-family="Verdana" font-size="13" lengthAdjust="spacing" textLength="94.3516" x="532.4893" y="795.5591">schema_result</text></g><g class="message" data-participant-1="V120" data-participant-2="V121"><polygon fill="#000000" points="274.8833,825.7578,264.8833,829.7578,274.8833,833.7578,270.8833,829.7578" style="stroke:#000000;stroke-width:1;"/><line style="stroke:#000000;stroke-width:1;stroke-dasharray:2.0,2.0;" x1="268.8833" x2="509.4893" y1="829.7578" y2="829.7578"/><text fill="#000000" font-family="Verdana" font-size="13" lengthAdjust="spacing" textLength="123.6333" x="280.8833" y="824.6919">dependency_result</text></g><g class="message" data-participant-1="V121" data-participant-2="C"><polygon fill="#000000" points="73.2651,854.8906,63.2651,858.8906,73.2651,862.8906,69.2651,858.8906" style="stroke:#000000;stroke-width:1;"/><line style="stroke:#000000;stroke-width:1;stroke-dasharray:2.0,2.0;" x1="67.2651" x2="257.8833" y1="858.8906" y2="858.8906"/><text fill="#000000" font-family="Verdana" font-size="13" lengthAdjust="spacing" textLength="107.6816" x="79.2651" y="853.8247">combined_result</text></g><rect fill="#FFFFFF" height="3" style="stroke:#FFFFFF;stroke-width:1;" width="900.4971" x="5" y="887.457"/><line style="stroke:#000000;stroke-width:0.5;" x1="5" x2="905.4971" y1="887.457" y2="887.457"/><line style="stroke:#000000;stroke-width:0.5;" x1="5" x2="905.4971" y1="890.457" y2="890.457"/><rect fill="#FFFFFF" height="23.1328" style="stroke:#000000;stroke-width:1;" width="263.6089" x="323.4441" y="876.8906"/><text fill="#000000" font-family="Verdana" font-size="13" font-weight="bold" lengthAdjust="spacing" textLength="245.083" x="329.4441" y="892.9575">Alternative Flow: Direct Handling</text><g class="message" data-participant-1="C" data-participant-2="V110"><polygon fill="#000000" points="705.124,927.1563,715.124,931.1563,705.124,935.1563,709.124,931.1563" style="stroke:#000000;stroke-width:1;"/><line style="stroke:#000000;stroke-width:1;" x1="62.2651" x2="711.124" y1="931.1563" y2="931.1563"/><text fill="#000000" font-family="Verdana" font-size="13" lengthAdjust="spacing" textLength="172.6182" x="69.2651" y="926.0903">validate(v1.1.0_metadata)</text></g><path d="M613,944.1563 L613,999.1563 L830,999.1563 L830,954.1563 L820,944.1563 L613,944.1563" fill="#FFFFFF" style="stroke:#000000;stroke-width:1;"/><path d="M820,944.1563 L820,954.1563 L830,954.1563 L820,944.1563" fill="#FFFFFF" style="stroke:#000000;stroke-width:1;"/><text fill="#000000" font-family="Verdana" font-size="13" font-weight="bold" lengthAdjust="spacing" textLength="132.0693" x="619" y="961.2231">Can Handle Check</text><text fill="#000000" font-family="Verdana" font-size="13" lengthAdjust="spacing" textLength="196.6885" x="619" y="976.356">if schema_version == "1.1.0":</text><text fill="#000000" font-family="Verdana" font-size="13" lengthAdjust="spacing" textLength="73.9185" x="627.2646" y="991.4888">return True</text><g class="message" data-participant-1="V110" data-participant-2="V110"><line style="stroke:#000000;stroke-width:1;" x1="727.124" x2="769.124" y1="1040.8203" y2="1040.8203"/><line style="stroke:#000000;stroke-width:1;" x1="769.124" x2="769.124" y1="1040.8203" y2="1053.8203"/><line style="stroke:#000000;stroke-width:1;" x1="728.124" x2="769.124" y1="1053.8203" y2="1053.8203"/><polygon fill="#000000" points="738.124,1049.8203,728.124,1053.8203,738.124,1057.8203,734.124,1053.8203" style="stroke:#000000;stroke-width:1;"/><text fill="#000000" font-family="Verdana" font-size="13" lengthAdjust="spacing" textLength="149.373" x="734.124" y="1020.6216">validate_all_concerns()</text><text fill="#000000" font-family="Verdana" font-size="13" lengthAdjust="spacing" textLength="96.7827" x="734.124" y="1035.7544">[All Strategies]</text></g><g class="message" data-participant-1="V110" data-participant-2="C"><polygon fill="#000000" points="73.2651,1078.9531,63.2651,1082.9531,73.2651,1086.9531,69.2651,1082.9531" style="stroke:#000000;stroke-width:1;"/><line style="stroke:#000000;stroke-width:1;stroke-dasharray:2.0,2.0;" x1="67.2651" x2="721.124" y1="1082.9531" y2="1082.9531"/><text fill="#000000" font-family="Verdana" font-size="13" lengthAdjust="spacing" textLength="104.2856" x="79.2651" y="1077.8872">complete_result</text></g><path d="M10,1095.9531 L10,1180.9531 L775,1180.9531 L775,1105.9531 L765,1095.9531 L10,1095.9531" fill="#FFFFFF" style="stroke:#000000;stroke-width:1;"/><path d="M765,1095.9531 L765,1105.9531 L775,1105.9531 L765,1095.9531" fill="#FFFFFF" style="stroke:#000000;stroke-width:1;"/><text fill="#000000" font-family="Verdana" font-size="13" font-weight="bold" lengthAdjust="spacing" textLength="111.8647" x="193.7471" y="1113.02">Chain Benefits:</text><text fill="#000000" font-family="Verdana" font-size="13" lengthAdjust="spacing" textLength="7.668" x="193.7471" y="1128.1528">&#8226;</text><text fill="#000000" font-family="Verdana" font-size="13" font-weight="bold" lengthAdjust="spacing" textLength="137.1094" x="205.5474" y="1128.1528">Automatic Routing</text><text fill="#000000" font-family="Verdana" font-size="13" lengthAdjust="spacing" textLength="240.1509" x="342.6567" y="1128.1528">: Requests go to appropriate handler</text><text fill="#000000" font-family="Verdana" font-size="13" lengthAdjust="spacing" textLength="7.668" x="193.7471" y="1143.2856">&#8226;</text><text fill="#000000" font-family="Verdana" font-size="13" font-weight="bold" lengthAdjust="spacing" textLength="85.7568" x="205.5474" y="1143.2856">Code Reuse</text><text fill="#000000" font-family="Verdana" font-size="13" lengthAdjust="spacing" textLength="201.1445" x="291.3042" y="1143.2856">: Unchanged logic is delegated</text><text fill="#000000" font-family="Verdana" font-size="13" lengthAdjust="spacing" textLength="7.668" x="193.7471" y="1158.4185">&#8226;</text><text fill="#000000" font-family="Verdana" font-size="13" font-weight="bold" lengthAdjust="spacing" textLength="91.1079" x="205.5474" y="1158.4185">Extensibility</text><text fill="#000000" font-family="Verdana" font-size="13" lengthAdjust="spacing" textLength="282.6167" x="296.6553" y="1158.4185">: New versions extend without modification</text><text fill="#000000" font-family="Verdana" font-size="13" lengthAdjust="spacing" textLength="7.668" x="193.7471" y="1173.5513">&#8226;</text><text fill="#000000" font-family="Verdana" font-size="13" font-weight="bold" lengthAdjust="spacing" textLength="60.9946" x="205.5474" y="1173.5513">Fallback</text><text fill="#000000" font-family="Verdana" font-size="13" lengthAdjust="spacing" textLength="279.373" x="266.542" y="1173.5513">: Older versions handle their specific cases</text><!--SRC=[bLLDJzj04BtxLqnp2X4WcsCaAe4fQY-qefGBGT5cFKb6h7VTtNNItFfR-jFwIphh3-A00yqbSZplpRvvCpl-u9UO8nHAa8xS4-b2M973JCYdXJMbpbAZZ8NraZnsulphIL8XjByy06fiXhQ6pHJpEZ1XhLbtGv4dhn3I9Ii3CuTRT8NHZcQao6_W1AvGuK9uCXgkbLb7KUSa6AIAKFi120VfRkG-EJqxJU1UACg4DxR2t2TdIGyiVWsBNy6I7bWIHz7vUViwQBp5doKw3-VdKGed7wiJOGoh6e73LILhcgCN_5ySHK9wMd6arXPfmuzcXRPbZaQfqF1PwAoo2UNJQ3JHD0SdkQTYob0N3cOPWohtO3pH01PzQJNSsHAZg4hrMioKhRERQM58UpSyckY7xzxo-yK6lWdlqUh7lLHlZDh7wIkYqyOhb1GaXpgkUH0oB51dg2MXQm_WC9VHa12yWSguUAUMk2kecsNORs_yGbbyWBqydG-Ll_7Wk3NwiTVf-5rr_-DQ_9vhjRut_KeQlnf5oOwYcj_lLFB2gQHMSuSs9orKOvSDKhxaXUBLmWC4GYdUA0uxcYRwni2yjBn-Gf_ROeAgv2rL-sOnaBRkDYsow4hbemnVL51NlftTvnviUYbdpyF5b9JnqkGpqfZrevFgvb-e88sBMc6rdiPmHHQbhoqYlUWiWfrAXtL_feVuVyWYuDozYw3VTcxTL1ejkPPwF2-ubqq3U68xrZV6SDEPji_vhVRqk2E_sl6Ng75Etes3-h-__t3WelGcPmybt9hIiscZqRXTf0uM9eopA0fh2alXa6KzVYqzDHaol7GOU3-qvFW2Cr1cmId9jOE7MSluzClZypSca6vm3Or_3Z14CrYJNx8So4r6SvBDFDS9hjcmyF4CtA-AltPRTYqEUEA9Bsd1jvR98FbUk7y0]--></g></svg>