<svg xmlns="http://www.w3.org/2000/svg" xmlns:xlink="http://www.w3.org/1999/xlink" contentStyleType="text/css" data-diagram-type="DESCRIPTION" height="970px" preserveAspectRatio="none" style="width:1212px;height:970px;background:#FFFFFF;" version="1.1" viewBox="0 0 1212 970" width="1212px" zoomAndPan="magnify"><title>Three-Component Architecture - Simplified Overview</title><defs/><g><text fill="#000000" font-family="Verdana" font-size="22" font-weight="bold" lengthAdjust="spacing" textLength="657.4756" x="272.8182" y="35.4209">Three-Component Architecture - Simplified Overview</text><!--cluster Client Layer--><g class="cluster" data-entity="Client Layer" data-source-line="18" data-uid="ent0003" id="cluster_Client Layer"><path d="M211.5,206.2694 L307.2939,206.2694 A3.75,3.75 0 0 1 309.7939,208.7694 L316.7939,228.5662 L812.5,228.5662 A2.5,2.5 0 0 1 815,231.0662 L815,301.0694 A2.5,2.5 0 0 1 812.5,303.5694 L211.5,303.5694 A2.5,2.5 0 0 1 209,301.0694 L209,208.7694 A2.5,2.5 0 0 1 211.5,206.2694" fill="#FFFFFF" style="stroke:#000000;stroke-width:1;"/><line style="stroke:#000000;stroke-width:1;" x1="209" x2="316.7939" y1="228.5662" y2="228.5662"/><text fill="#000000" font-family="Verdana" font-size="14" font-weight="bold" lengthAdjust="spacing" textLength="94.7939" x="213" y="221.2645">Client Layer</text></g><!--cluster Chain Components--><g class="cluster" data-entity="Chain Components" data-source-line="24" data-uid="ent0007" id="cluster_Chain Components"><path d="M535.5,352.5694 L684.4023,352.5694 A3.75,3.75 0 0 1 686.9023,355.0694 L693.9023,374.8663 L812.5,374.8663 A2.5,2.5 0 0 1 815,377.3663 L815,798.1494 A2.5,2.5 0 0 1 812.5,800.6494 L535.5,800.6494 A2.5,2.5 0 0 1 533,798.1494 L533,355.0694 A2.5,2.5 0 0 1 535.5,352.5694" fill="#FFFFFF" style="stroke:#000000;stroke-width:1;"/><line style="stroke:#000000;stroke-width:1;" x1="533" x2="693.9023" y1="374.8663" y2="374.8663"/><text fill="#000000" font-family="Verdana" font-size="14" font-weight="bold" lengthAdjust="spacing" textLength="147.9023" x="537" y="367.5645">Chain Components</text></g><!--cluster Factory Layer--><g class="cluster" data-entity="Factory Layer" data-source-line="30" data-uid="ent0011" id="cluster_Factory Layer"><path d="M849.5,198.2694 L958.918,198.2694 A3.75,3.75 0 0 1 961.418,200.7694 L968.418,220.5662 L1122.5,220.5662 A2.5,2.5 0 0 1 1125,223.0662 L1125,632.2594 A2.5,2.5 0 0 1 1122.5,634.7594 L849.5,634.7594 A2.5,2.5 0 0 1 847,632.2594 L847,200.7694 A2.5,2.5 0 0 1 849.5,198.2694" fill="#FFFFFF" style="stroke:#000000;stroke-width:1;"/><line style="stroke:#000000;stroke-width:1;" x1="847" x2="968.418" y1="220.5662" y2="220.5662"/><text fill="#000000" font-family="Verdana" font-size="14" font-weight="bold" lengthAdjust="spacing" textLength="108.418" x="851" y="213.2645">Factory Layer</text></g><!--cluster Schema Management--><g class="cluster" data-entity="Schema Management" data-source-line="36" data-uid="ent0015" id="cluster_Schema Management"><path d="M13.5,529.4594 L184.3047,529.4594 A3.75,3.75 0 0 1 186.8047,531.9594 L193.8047,551.7563 L376.5,551.7563 A2.5,2.5 0 0 1 379,554.2563 L379,781.8494 A2.5,2.5 0 0 1 376.5,784.3494 L13.5,784.3494 A2.5,2.5 0 0 1 11,781.8494 L11,531.9594 A2.5,2.5 0 0 1 13.5,529.4594" fill="#FFFFFF" style="stroke:#000000;stroke-width:1;"/><line style="stroke:#000000;stroke-width:1;" x1="11" x2="193.8047" y1="551.7563" y2="551.7563"/><text fill="#000000" font-family="Verdana" font-size="14" font-weight="bold" lengthAdjust="spacing" textLength="169.8047" x="15" y="544.4545">Schema Management</text></g><!--cluster External Dependencies--><g class="cluster" data-entity="External Dependencies" data-source-line="42" data-uid="ent0019" id="cluster_External Dependencies"><path d="M409.5,849.6494 L592.2813,849.6494 A3.75,3.75 0 0 1 594.7813,852.1494 L601.7813,871.9463 L753.5,871.9463 A2.5,2.5 0 0 1 756,874.4463 L756,960.7394 A2.5,2.5 0 0 1 753.5,963.2394 L409.5,963.2394 A2.5,2.5 0 0 1 407,960.7394 L407,852.1494 A2.5,2.5 0 0 1 409.5,849.6494" fill="#FFFFFF" style="stroke:#000000;stroke-width:1;"/><line style="stroke:#000000;stroke-width:1;" x1="407" x2="601.7813" y1="871.9463" y2="871.9463"/><text fill="#000000" font-family="Verdana" font-size="14" font-weight="bold" lengthAdjust="spacing" textLength="181.7813" x="411" y="864.6445">External Dependencies</text></g><!--entity HPV--><g class="entity" data-entity="HPV" data-source-line="19" data-uid="ent0004" id="entity_HPV"><rect fill="#FFFFFF" height="46.2969" rx="2.5" ry="2.5" style="stroke:#000000;stroke-width:1;" width="203.2832" x="595.36" y="241.2694"/><rect fill="#FFFFFF" height="10" style="stroke:#000000;stroke-width:1;" width="15" x="778.6432" y="246.2694"/><rect fill="#FFFFFF" height="2" style="stroke:#000000;stroke-width:1;" width="4" x="776.6432" y="248.2694"/><rect fill="#FFFFFF" height="2" style="stroke:#000000;stroke-width:1;" width="4" x="776.6432" y="252.2694"/><text fill="#000000" font-family="Verdana" font-size="14" lengthAdjust="spacing" textLength="163.2832" x="610.36" y="274.2645">HatchPackageValidator</text></g><!--entity PS--><g class="entity" data-entity="PS" data-source-line="20" data-uid="ent0005" id="entity_PS"><rect fill="#FFFFFF" height="46.2969" rx="2.5" ry="2.5" style="stroke:#000000;stroke-width:1;" width="150.6465" x="409.68" y="241.2694"/><rect fill="#FFFFFF" height="10" style="stroke:#000000;stroke-width:1;" width="15" x="540.3265" y="246.2694"/><rect fill="#FFFFFF" height="2" style="stroke:#000000;stroke-width:1;" width="4" x="538.3265" y="248.2694"/><rect fill="#FFFFFF" height="2" style="stroke:#000000;stroke-width:1;" width="4" x="538.3265" y="252.2694"/><text fill="#000000" font-family="Verdana" font-size="14" lengthAdjust="spacing" textLength="110.6465" x="424.68" y="274.2645">PackageService</text></g><!--entity RS--><g class="entity" data-entity="RS" data-source-line="21" data-uid="ent0006" id="entity_RS"><rect fill="#FFFFFF" height="46.2969" rx="2.5" ry="2.5" style="stroke:#000000;stroke-width:1;" width="149.6826" x="225.16" y="241.2694"/><rect fill="#FFFFFF" height="10" style="stroke:#000000;stroke-width:1;" width="15" x="354.8426" y="246.2694"/><rect fill="#FFFFFF" height="2" style="stroke:#000000;stroke-width:1;" width="4" x="352.8426" y="248.2694"/><rect fill="#FFFFFF" height="2" style="stroke:#000000;stroke-width:1;" width="4" x="352.8426" y="252.2694"/><text fill="#000000" font-family="Verdana" font-size="14" lengthAdjust="spacing" textLength="109.6826" x="240.16" y="274.2645">RegistryService</text></g><!--entity VC--><g class="entity" data-entity="VC" data-source-line="25" data-uid="ent0008" id="entity_VC"><rect fill="#FFFFFF" height="78.8906" rx="2.5" ry="2.5" style="stroke:#000000;stroke-width:1;" width="231.1191" x="567.44" y="387.5694"/><rect fill="#FFFFFF" height="10" style="stroke:#000000;stroke-width:1;" width="15" x="778.5591" y="392.5694"/><rect fill="#FFFFFF" height="2" style="stroke:#000000;stroke-width:1;" width="4" x="776.5591" y="394.5694"/><rect fill="#FFFFFF" height="2" style="stroke:#000000;stroke-width:1;" width="4" x="776.5591" y="398.5694"/><text fill="#000000" font-family="Verdana" font-size="14" font-weight="bold" lengthAdjust="spacing" textLength="121.8916" x="582.44" y="420.5645">Validator Chain</text><text fill="#000000" font-family="Verdana" font-size="14" lengthAdjust="spacing" textLength="191.1191" x="582.44" y="436.8614">Handles validation logic for</text><text fill="#000000" font-family="Verdana" font-size="14" lengthAdjust="spacing" textLength="182.1436" x="582.44" y="453.1582">different schema versions</text></g><!--entity PAC--><g class="entity" data-entity="PAC" data-source-line="26" data-uid="ent0009" id="entity_PAC"><rect fill="#FFFFFF" height="78.8906" rx="2.5" ry="2.5" style="stroke:#000000;stroke-width:1;" width="249.0293" x="549.49" y="548.1594"/><rect fill="#FFFFFF" height="10" style="stroke:#000000;stroke-width:1;" width="15" x="778.5193" y="553.1594"/><rect fill="#FFFFFF" height="2" style="stroke:#000000;stroke-width:1;" width="4" x="776.5193" y="555.1594"/><rect fill="#FFFFFF" height="2" style="stroke:#000000;stroke-width:1;" width="4" x="776.5193" y="559.1594"/><text fill="#000000" font-family="Verdana" font-size="14" font-weight="bold" lengthAdjust="spacing" textLength="190.5996" x="564.49" y="581.1545">Package Accessor Chain</text><text fill="#000000" font-family="Verdana" font-size="14" lengthAdjust="spacing" textLength="209.0293" x="564.49" y="597.4514">Extracts metadata fields from</text><text fill="#000000" font-family="Verdana" font-size="14" lengthAdjust="spacing" textLength="177.8232" x="564.49" y="613.7482">different schema formats</text></g><!--entity RAC--><g class="entity" data-entity="RAC" data-source-line="27" data-uid="ent0010" id="entity_RAC"><rect fill="#FFFFFF" height="78.8906" rx="2.5" ry="2.5" style="stroke:#000000;stroke-width:1;" width="230.4697" x="548.77" y="705.7594"/><rect fill="#FFFFFF" height="10" style="stroke:#000000;stroke-width:1;" width="15" x="759.2397" y="710.7594"/><rect fill="#FFFFFF" height="2" style="stroke:#000000;stroke-width:1;" width="4" x="757.2397" y="712.7594"/><rect fill="#FFFFFF" height="2" style="stroke:#000000;stroke-width:1;" width="4" x="757.2397" y="716.7594"/><text fill="#000000" font-family="Verdana" font-size="14" font-weight="bold" lengthAdjust="spacing" textLength="190.4697" x="563.77" y="738.7545">Registry Accessor Chain</text><text fill="#000000" font-family="Verdana" font-size="14" lengthAdjust="spacing" textLength="163.9736" x="563.77" y="755.0514">Processes registry data</text><text fill="#000000" font-family="Verdana" font-size="14" lengthAdjust="spacing" textLength="155.8594" x="563.77" y="771.3482">from different sources</text></g><!--entity VF--><g class="entity" data-entity="VF" data-source-line="31" data-uid="ent0012" id="entity_VF"><rect fill="#FFFFFF" height="46.2969" rx="2.5" ry="2.5" style="stroke:#000000;stroke-width:1;" width="155.6367" x="887.18" y="241.2694"/><rect fill="#FFFFFF" height="10" style="stroke:#000000;stroke-width:1;" width="15" x="1022.8167" y="246.2694"/><rect fill="#FFFFFF" height="2" style="stroke:#000000;stroke-width:1;" width="4" x="1020.8167" y="248.2694"/><rect fill="#FFFFFF" height="2" style="stroke:#000000;stroke-width:1;" width="4" x="1020.8167" y="252.2694"/><text fill="#000000" font-family="Verdana" font-size="14" lengthAdjust="spacing" textLength="115.6367" x="902.18" y="274.2645">ValidatorFactory</text></g><!--entity HPAF--><g class="entity" data-entity="HPAF" data-source-line="32" data-uid="ent0013" id="entity_HPAF"><rect fill="#FFFFFF" height="46.2969" rx="2.5" ry="2.5" style="stroke:#000000;stroke-width:1;" width="221.5215" x="871.24" y="403.8694"/><rect fill="#FFFFFF" height="10" style="stroke:#000000;stroke-width:1;" width="15" x="1072.7615" y="408.8694"/><rect fill="#FFFFFF" height="2" style="stroke:#000000;stroke-width:1;" width="4" x="1070.7615" y="410.8694"/><rect fill="#FFFFFF" height="2" style="stroke:#000000;stroke-width:1;" width="4" x="1070.7615" y="414.8694"/><text fill="#000000" font-family="Verdana" font-size="14" lengthAdjust="spacing" textLength="181.5215" x="886.24" y="436.8645">HatchPkgAccessorFactory</text></g><!--entity RAF--><g class="entity" data-entity="RAF" data-source-line="33" data-uid="ent0014" id="entity_RAF"><rect fill="#FFFFFF" height="46.2969" rx="2.5" ry="2.5" style="stroke:#000000;stroke-width:1;" width="212.8604" x="872.57" y="564.4594"/><rect fill="#FFFFFF" height="10" style="stroke:#000000;stroke-width:1;" width="15" x="1065.4304" y="569.4594"/><rect fill="#FFFFFF" height="2" style="stroke:#000000;stroke-width:1;" width="4" x="1063.4304" y="571.4594"/><rect fill="#FFFFFF" height="2" style="stroke:#000000;stroke-width:1;" width="4" x="1063.4304" y="575.4594"/><text fill="#000000" font-family="Verdana" font-size="14" lengthAdjust="spacing" textLength="172.8604" x="887.57" y="597.4545">RegistryAccessorFactory</text></g><!--entity SF--><g class="entity" data-entity="SF" data-source-line="37" data-uid="ent0016" id="entity_SF"><rect fill="#FFFFFF" height="46.2969" rx="2.5" ry="2.5" style="stroke:#000000;stroke-width:1;" width="149.3818" x="207.31" y="564.4594"/><rect fill="#FFFFFF" height="10" style="stroke:#000000;stroke-width:1;" width="15" x="336.6918" y="569.4594"/><rect fill="#FFFFFF" height="2" style="stroke:#000000;stroke-width:1;" width="4" x="334.6918" y="571.4594"/><rect fill="#FFFFFF" height="2" style="stroke:#000000;stroke-width:1;" width="4" x="334.6918" y="575.4594"/><text fill="#000000" font-family="Verdana" font-size="14" lengthAdjust="spacing" textLength="109.3818" x="222.31" y="597.4545">SchemaFetcher</text></g><!--entity SC--><g class="entity" data-entity="SC" data-source-line="38" data-uid="ent0017" id="entity_SC"><rect fill="#FFFFFF" height="46.2969" rx="2.5" ry="2.5" style="stroke:#000000;stroke-width:1;" width="139.8252" x="27.09" y="722.0494"/><rect fill="#FFFFFF" height="10" style="stroke:#000000;stroke-width:1;" width="15" x="146.9152" y="727.0494"/><rect fill="#FFFFFF" height="2" style="stroke:#000000;stroke-width:1;" width="4" x="144.9152" y="729.0494"/><rect fill="#FFFFFF" height="2" style="stroke:#000000;stroke-width:1;" width="4" x="144.9152" y="733.0494"/><text fill="#000000" font-family="Verdana" font-size="14" lengthAdjust="spacing" textLength="99.8252" x="42.09" y="755.0445">SchemaCache</text></g><!--entity SR--><g class="entity" data-entity="SR" data-source-line="39" data-uid="ent0018" id="entity_SR"><rect fill="#FFFFFF" height="46.2969" rx="2.5" ry="2.5" style="stroke:#000000;stroke-width:1;" width="161.0303" x="201.48" y="722.0494"/><rect fill="#FFFFFF" height="10" style="stroke:#000000;stroke-width:1;" width="15" x="342.5103" y="727.0494"/><rect fill="#FFFFFF" height="2" style="stroke:#000000;stroke-width:1;" width="4" x="340.5103" y="729.0494"/><rect fill="#FFFFFF" height="2" style="stroke:#000000;stroke-width:1;" width="4" x="340.5103" y="733.0494"/><text fill="#000000" font-family="Verdana" font-size="14" lengthAdjust="spacing" textLength="121.0303" x="216.48" y="755.0445">SchemaRetriever</text></g><!--entity HSR--><g class="entity" data-entity="HSR" data-source-line="43" data-uid="ent0020" id="entity_HSR"><path d="M423.1,895.1494 C423.1,885.1494 487.9994,885.1494 487.9994,885.1494 C487.9994,885.1494 552.8988,885.1494 552.8988,895.1494 L552.8988,936.7431 C552.8988,946.7431 487.9994,946.7431 487.9994,946.7431 C487.9994,946.7431 423.1,946.7431 423.1,936.7431 L423.1,895.1494" fill="#FFFFFF" style="stroke:#000000;stroke-width:1;"/><path d="M423.1,895.1494 C423.1,905.1494 487.9994,905.1494 487.9994,905.1494 C487.9994,905.1494 552.8988,905.1494 552.8988,895.1494" fill="none" style="stroke:#000000;stroke-width:1;"/><text fill="#000000" font-family="Verdana" font-size="14" lengthAdjust="spacing" textLength="109.7988" x="433.1" y="922.1445">Hatch-Schemas</text><text fill="#000000" font-family="Verdana" font-size="14" lengthAdjust="spacing" textLength="75.0723" x="433.1" y="938.4414">Repository</text></g><!--entity PR--><g class="entity" data-entity="PR" data-source-line="44" data-uid="ent0021" id="entity_PR"><path d="M596.4689,892.8795 C599.828,887.2956 604.4482,887.8812 608.1654,892.4676 C612.3553,887.4918 616.6246,886.1474 620.5693,892.7306 C623.065,887.5918 628.1565,887.4286 630.9261,892.4515 C634.7173,886.5445 638.4762,887.4925 642.0474,892.6722 C645.1376,886.9957 650.2132,886.6613 653.9265,892.0001 C657.2382,887.4889 661.7043,886.7815 664.9988,892.0196 C668.1282,887.4897 673.0794,887.3629 675.5349,892.7366 C679.8871,885.9234 684.3384,886.7888 688.5453,892.8832 C692.3559,888.7584 695.859,887.9869 699.1123,893.4946 C702.541,888.1991 707.4886,888.2162 710.4783,893.9472 C714.484,889.0486 718.1512,889.1331 722.0371,894.0877 C724.408,888.7607 728.9287,887.7538 732.3372,893.085 C739.549,894.3514 742.6358,899.7693 737.1123,905.8134 C743.625,907.2454 745.9135,912.0374 741.0758,917.3641 C745.8336,922.416 744.3526,928.0293 737.1404,929.05 C741.6825,934.5921 739.0564,939.9566 732.252,940.7633 C729.0033,945.6027 725.7172,945.8474 722.1584,941.0894 C719.2439,948.2788 713.3605,947.4799 709.4777,942.0634 C707.3007,947.541 704.1456,949.378 699.1033,945.1152 C695.4059,950.5838 691.298,949.8403 687.8097,944.8885 C684.9836,951.6465 679.6703,951.3814 675.2933,946.5656 C673.1568,952.225 670.13,953.2947 665.5281,948.979 C660.9123,952.4833 657.2307,951.7889 654.7952,946.3595 C650.7319,952.0999 645.3046,951.7287 641.5501,946.0029 C638.1903,950.3327 633.2208,950.9678 630.98,944.8688 C625.7576,950.165 621.8761,949.4081 619.1302,942.47 C616.1734,947.4739 611.3772,946.1714 609.3289,941.5453 C605.7541,947.6622 600.3487,947.2849 597.4966,940.8634 C590.4366,937.9057 591.4866,931.7891 596.5034,927.9057 C591.5421,925.7819 589.8227,920.7184 594.796,917.0344 C589.8473,913.3192 589.2282,907.5907 595.635,904.6444 C589.8832,900.5734 590.4586,896.1168 596.4689,892.8795" fill="#FFFFFF" style="stroke:#000000;stroke-width:1;"/><text fill="#000000" font-family="Verdana" font-size="14" lengthAdjust="spacing" textLength="121.2969" x="603.35" y="912.6445">Package Registry</text><text fill="#000000" font-family="Verdana" font-size="14" lengthAdjust="spacing" textLength="113.9346" x="603.35" y="928.9414">(CrackingShells)</text></g><g class="entity" data-entity="Architecture" data-source-line="11" data-uid="ent0002" id="entity_Architecture"><path d="M549.76,57.6094 L549.76,143.2734 L994.2375,143.2734 L994.2375,67.6094 L984.2375,57.6094 L549.76,57.6094" fill="#FFFFFF" style="stroke:#000000;stroke-width:1;"/><path d="M984.2375,57.6094 L984.2375,67.6094 L994.2375,67.6094 L984.2375,57.6094" fill="#FFFFFF" style="stroke:#000000;stroke-width:1;"/><text fill="#000000" font-family="Verdana" font-size="13" font-weight="bold" lengthAdjust="spacing" textLength="232.4067" x="555.76" y="74.6763">Three-Component Architecture:</text><text fill="#000000" font-family="Verdana" font-size="13" lengthAdjust="spacing" textLength="7.668" x="555.76" y="89.8091">&#8226;</text><text fill="#000000" font-family="Verdana" font-size="13" font-weight="bold" lengthAdjust="spacing" textLength="75.1182" x="567.5603" y="89.8091">Validators</text><text fill="#000000" font-family="Verdana" font-size="13" lengthAdjust="spacing" textLength="226.7891" x="642.6785" y="89.8091">: Business logic for validation rules</text><text fill="#000000" font-family="Verdana" font-size="13" lengthAdjust="spacing" textLength="7.668" x="555.76" y="104.9419">&#8226;</text><text fill="#000000" font-family="Verdana" font-size="13" font-weight="bold" lengthAdjust="spacing" textLength="138.9185" x="567.5603" y="104.9419">Package Accessors</text><text fill="#000000" font-family="Verdana" font-size="13" lengthAdjust="spacing" textLength="270.8862" x="706.4788" y="104.9419">: Data extraction from package metadata</text><text fill="#000000" font-family="Verdana" font-size="13" lengthAdjust="spacing" textLength="7.668" x="555.76" y="120.0747">&#8226;</text><text fill="#000000" font-family="Verdana" font-size="13" font-weight="bold" lengthAdjust="spacing" textLength="138.7979" x="567.5603" y="120.0747">Registry Accessors</text><text fill="#000000" font-family="Verdana" font-size="13" lengthAdjust="spacing" textLength="272.8794" x="706.3581" y="120.0747">: Data processing from package registries</text><text fill="#000000" font-family="Verdana" font-size="13" lengthAdjust="spacing" textLength="7.668" x="555.76" y="135.2075">&#8226;</text><text fill="#000000" font-family="Verdana" font-size="13" font-weight="bold" lengthAdjust="spacing" textLength="112.2393" x="567.5603" y="135.2075">Unified Pattern</text><text fill="#000000" font-family="Verdana" font-size="13" lengthAdjust="spacing" textLength="204.3438" x="679.7996" y="135.2075">: All use Chain of Responsibility</text></g><g class="entity" data-entity="GMN38" data-source-line="75" data-uid="ent0039" id="entity_GMN38"><path d="M1028.88,72.7394 L1028.88,128.1378 L1205.1119,128.1378 L1205.1119,82.7394 L1195.1119,72.7394 L1028.88,72.7394" fill="#FFFFFF" style="stroke:#000000;stroke-width:1;"/><path d="M1195.1119,72.7394 L1195.1119,82.7394 L1205.1119,82.7394 L1195.1119,72.7394" fill="#FFFFFF" style="stroke:#000000;stroke-width:1;"/><text fill="#000000" font-family="Verdana" font-size="13" lengthAdjust="spacing" textLength="155.2319" x="1034.88" y="89.8063">Automatically discovers</text><text fill="#000000" font-family="Verdana" font-size="13" lengthAdjust="spacing" textLength="155.0161" x="1034.88" y="104.9391">and chains components</text><text fill="#000000" font-family="Verdana" font-size="13" lengthAdjust="spacing" textLength="142.4097" x="1034.88" y="120.0719">from newest to oldest</text></g><!--link VC to PAC--><!--link PAC to RAC--><!--link VF to HPAF--><!--link HPAF to RAF--><!--link HPV to VC--><g class="link" data-entity-1="HPV" data-entity-2="VC" data-source-line="56" data-uid="lnk26" id="link_HPV_VC"><path d="M695.05,287.7494 C692.81,313.4294 689.6221,350.0821 686.9021,381.2221" fill="none" id="HPV-to-VC" style="stroke:#000000;stroke-width:1;"/><polygon fill="#000000" points="686.38,387.1994,691.148,378.5816,686.8151,382.2183,683.1783,377.8854,686.38,387.1994" style="stroke:#000000;stroke-width:1;"/><text fill="#000000" font-family="Verdana" font-size="13" lengthAdjust="spacing" textLength="29.7832" x="693.07" y="332.6363">uses</text></g><!--link PS to PAC--><g class="link" data-entity-1="PS" data-entity-2="PAC" data-source-line="57" data-uid="lnk27" id="link_PS_PAC"><path d="M482,287.8694 C477,334.7494 472.03,444.4094 523,513.4594 C533.21,527.2894 541.6465,535.4423 556.4165,544.7023" fill="none" id="PS-to-PAC" style="stroke:#000000;stroke-width:1;"/><polygon fill="#000000" points="561.5,547.8894,555.9994,539.7197,557.2637,545.2335,551.75,546.4977,561.5,547.8894" style="stroke:#000000;stroke-width:1;"/><text fill="#000000" font-family="Verdana" font-size="13" lengthAdjust="spacing" textLength="29.7832" x="498.19" y="431.5763">uses</text></g><!--link RS to RAC--><g class="link" data-entity-1="RS" data-entity-2="RAC" data-source-line="58" data-uid="lnk28" id="link_RS_RAC"><path d="M309.56,287.9694 C337,350.8694 421.22,531.4394 532,650.7594 C551.11,671.3294 570.4575,686.7317 592.9975,701.9517" fill="none" id="RS-to-RAC" style="stroke:#000000;stroke-width:1;"/><polygon fill="#000000" points="597.97,705.3094,592.7497,696.9578,593.8262,702.5113,588.2728,703.5879,597.97,705.3094" style="stroke:#000000;stroke-width:1;"/><text fill="#000000" font-family="Verdana" font-size="13" lengthAdjust="spacing" textLength="29.7832" x="427.88" y="509.5263">uses</text></g><!--link VF to VC--><g class="link" data-entity-1="VF" data-entity-2="VC" data-source-line="61" data-uid="lnk29" id="link_VF_VC"><path d="M925.49,287.9194 C880.4,313.5994 811.0539,353.0903 756.4939,384.1603" fill="none" id="VF-to-VC" style="stroke:#000000;stroke-width:1;stroke-dasharray:7.0,7.0;"/><polygon fill="#000000" points="751.28,387.1294,761.0802,386.1516,755.6249,384.6551,757.1214,379.1998,751.28,387.1294" style="stroke:#000000;stroke-width:1;"/><text fill="#000000" font-family="Verdana" font-size="13" lengthAdjust="spacing" textLength="48.3247" x="866.74" y="332.6363">creates</text></g><!--link HPAF to PAC--><g class="link" data-entity-1="HPAF" data-entity-2="PAC" data-source-line="62" data-uid="lnk30" id="link_HPAF_PAC"><path d="M938.2,450.5694 C889.12,475.8394 814.0243,514.5025 754.7743,545.0125" fill="none" id="HPAF-to-PAC" style="stroke:#000000;stroke-width:1;stroke-dasharray:7.0,7.0;"/><polygon fill="#000000" points="749.44,547.7594,759.2727,547.1953,753.8853,545.4703,755.6102,540.0829,749.44,547.7594" style="stroke:#000000;stroke-width:1;"/><text fill="#000000" font-family="Verdana" font-size="13" lengthAdjust="spacing" textLength="48.3247" x="847.44" y="509.5263">creates</text></g><!--link RAF to RAC--><g class="link" data-entity-1="RAF" data-entity-2="RAC" data-source-line="63" data-uid="lnk31" id="link_RAF_RAC"><path d="M933.2,611.2294 C883.37,635.8394 808.1994,672.9719 748.1794,702.6219" fill="none" id="RAF-to-RAC" style="stroke:#000000;stroke-width:1;stroke-dasharray:7.0,7.0;"/><polygon fill="#000000" points="742.8,705.2794,752.6407,704.8795,747.2828,703.0648,749.0975,697.7069,742.8,705.2794" style="stroke:#000000;stroke-width:1;"/><text fill="#000000" font-family="Verdana" font-size="13" lengthAdjust="spacing" textLength="48.3247" x="831.94" y="671.8263">creates</text></g><!--link VC to SF--><g class="link" data-entity-1="VC" data-entity-2="SF" data-source-line="66" data-uid="lnk32" id="link_VC_SF"><path d="M584.65,466.9094 C507.55,497.3994 408.5295,536.5627 344.6595,561.8227" fill="none" id="VC-to-SF" style="stroke:#000000;stroke-width:1;"/><polygon fill="#000000" points="339.08,564.0294,348.9203,564.4391,343.7296,562.1905,345.9781,556.9998,339.08,564.0294" style="stroke:#000000;stroke-width:1;"/><text fill="#000000" font-family="Verdana" font-size="13" lengthAdjust="spacing" textLength="109.5225" x="507.51" y="509.5263">fetches schemas</text></g><!--link SF to SC--><g class="link" data-entity-1="SF" data-entity-2="SC" data-source-line="67" data-uid="lnk33" id="link_SF_SC"><path d="M255.1,611.2294 C219.92,640.8194 163.2619,688.4674 128.2219,717.9374" fill="none" id="SF-to-SC" style="stroke:#000000;stroke-width:1;"/><polygon fill="#000000" points="123.63,721.7994,133.0925,719.0677,127.4566,718.5811,127.9432,712.9452,123.63,721.7994" style="stroke:#000000;stroke-width:1;"/><text fill="#000000" font-family="Verdana" font-size="13" lengthAdjust="spacing" textLength="45.2715" x="196.05" y="671.8263">caches</text></g><!--link SF to SR--><g class="link" data-entity-1="SF" data-entity-2="SR" data-source-line="68" data-uid="lnk34" id="link_SF_SR"><path d="M282,611.2294 C282,640.8194 282,686.3294 282,715.7994" fill="none" id="SF-to-SR" style="stroke:#000000;stroke-width:1;"/><polygon fill="#000000" points="282,721.7994,286,712.7994,282,716.7994,278,712.7994,282,721.7994" style="stroke:#000000;stroke-width:1;"/><text fill="#000000" font-family="Verdana" font-size="13" lengthAdjust="spacing" textLength="57.8589" x="283" y="671.8263">retrieves</text></g><!--link SR to HSR--><g class="link" data-entity-1="SR" data-entity-2="HSR" data-source-line="69" data-uid="lnk35" id="link_SR_HSR"><path d="M309.36,768.6094 C345.8,798.4594 405.7687,847.577 446.4887,880.937" fill="none" id="SR-to-HSR" style="stroke:#000000;stroke-width:1;"/><polygon fill="#000000" points="451.13,884.7394,446.703,875.9416,447.2622,881.5707,441.6331,882.13,451.13,884.7394" style="stroke:#000000;stroke-width:1;"/><text fill="#000000" font-family="Verdana" font-size="13" lengthAdjust="spacing" textLength="58.5762" x="386" y="829.7163">accesses</text></g><!--link RAC to PR--><g class="link" data-entity-1="RAC" data-entity-2="PR" data-source-line="72" data-uid="lnk36" id="link_RAC_PR"><path d="M664,784.9094 C664,815.0794 664,850.3794 664,878.2794" fill="none" id="RAC-to-PR" style="stroke:#000000;stroke-width:1;"/><polygon fill="#000000" points="664,884.2794,668,875.2794,664,879.2794,660,875.2794,664,884.2794" style="stroke:#000000;stroke-width:1;"/><text fill="#000000" font-family="Verdana" font-size="13" lengthAdjust="spacing" textLength="58.5762" x="665" y="829.7163">accesses</text></g><!--link PAC to PR--><g class="link" data-entity-1="PAC" data-entity-2="PR" data-source-line="73" data-uid="lnk37" id="link_PAC_PR"><path d="M732.36,627.4394 C757.24,647.5494 783.58,674.4494 797,705.7594 C815.01,747.7894 816.82,767.4394 797,808.6494 C781.5,840.8794 755.9878,863.1459 728.0678,881.0859" fill="none" id="PAC-to-PR" style="stroke:#000000;stroke-width:1;"/><polygon fill="#000000" points="723.02,884.3294,732.754,882.8294,727.2265,881.6265,728.4294,876.099,723.02,884.3294" style="stroke:#000000;stroke-width:1;"/><text fill="#000000" font-family="Verdana" font-size="13" lengthAdjust="spacing" textLength="103.4731" x="812.2" y="749.7663">reads metadata</text></g><!--link GMN38 to Factory Layer--><g class="link" data-entity-1="GMN38" data-entity-2="Factory Layer" data-source-line="75" data-uid="lnk40" id="link_GMN38_Factory Layer"><path d="M1117,128.5494 C1117,139.8969 1117,153.8275 1117,168.3827 C1117,175.6602 1117,183.0939 1117,190.439 C1117,192.2752 1117,194.1059 1117,195.9273 C1117,196.3826 1117,196.8374 1117,197.2915 C1117,197.5185 1117,220.0423 1117,220.269" fill="none" id="GMN38-Factory Layer" style="stroke:#000000;stroke-width:1;stroke-dasharray:7.0,7.0;"/></g><!--SRC=[ZLLBZjiu4Dtp53NU92F0MMJPYm4S9OON2I984s_YBDXKsIQQ8WMIQgSH19YppD5oaXG_aYMd4QI1_hsgUlLvLVHV_emTGg-urCmzIDrpopkuv-BXPCsWsz8eO-5obXvdTc6wtcZK_iqVEnhRearEzugYPaxSMdDvtZJ5D_v98GoTUisObvx-_lTi4TVbw00RAq9ouGUBi8P6ThsIHuajV7n4-oZnmfWs7e6xXIyhYjzHtHK5-_7V_r0KUwvaoxsnhYZkuCtWf4RdG9cJ572auX-JWpGQxA3GvRYAMk8dX8qGv9_3ttBF0RzwoqKCE5hJGPyzE_ISY7WcgF4adRTFpp3qrWH8wjEImQOGEHNnIQTPLDnxj3eGR9I2mI6KPn8Vp15gT3G09- -balw9eMuX38onaNLLAXdcyvu_eLt1DmRqzNd7lJZd9gSPVGbZtbNxv9AjJT11OBHLJJADpSrjTSE-pxF60YTvt9HvfadgeYWEUiTrIyEVgp59TD2jF1xHXYQSeDNdGBlXoCV5nFjo9BuLxSh_Bedc9fM01gjQ5mLu9W6bxRXF_DLcIl2BgDSCLHALUh2ZKyXpq57YMG8pM79C8oFc-SosLAAXmALKqxYoEJMzdUluS1eBclligirsgTTpNZKvpOjeqWG-S4t_TbJoL4YoR94oOjgLPZktb9n-9RoSupM6fNuSO-f5EbA6LfihU8izBIzgGVi_fWmJlEUqxglOvphnkOEkiJTEXXvMiLCY3Vv2cQ65rRW7Ozi7_R8a-Uc1EZLdLChz7QEgMCaBgEZzYfs6UxhTMxOlOVtvB5igxKjhBdeT5uA-R-6WvYtRGb6stzx6H8d2Zr_9je4itwutkIwBAbw7EylUKU0Urkj_w0BWBhmAZbLD149r6QaJKbyHeXtBMj9HUQzUPJPXaNjqgRQ09ieHhZDQBr1YpjlJJTjpcwECvJHR2Zl6JNBvvXmZCDeYPTYbArGJPFCQ4Lf7T1TXBjBTXUpJCgKJL-R2GeLn90lVQevIzUtrPSWVEDxqGS3RcwGNUF26tWOfk59quz894vwZWwOd34HGoLq_0Ls-VuqNT557erhwwoS0]--></g></svg>