<svg xmlns="http://www.w3.org/2000/svg" xmlns:xlink="http://www.w3.org/1999/xlink" contentStyleType="text/css" data-diagram-type="SEQUENCE" height="1444px" preserveAspectRatio="none" style="width:1925px;height:1444px;background:#FFFFFF;" version="1.1" viewBox="0 0 1925 1444" width="1925px" zoomAndPan="magnify"><title>Data Access Patterns - Version-Agnostic Operations</title><defs/><g><text fill="#000000" font-family="Verdana" font-size="22" font-weight="bold" lengthAdjust="spacing" textLength="644.7246" x="638.7773" y="35.4209">Data Access Patterns - Version-Agnostic Operations</text><g><title>V1.2.1 PackageAccessor</title><rect fill="#FFFFFF" height="602.7266" style="stroke:#000000;stroke-width:1;" width="10" x="340.3506" y="188.1719"/></g><g><title>V1.2.1 PackageAccessor</title><rect fill="#FFFFFF" height="71.2656" style="stroke:#000000;stroke-width:1;" width="10" x="340.3506" y="1064.9609"/></g><g><title>V1.2.0 PackageAccessor</title><rect fill="#FFFFFF" height="151.7969" style="stroke:#000000;stroke-width:1;" width="10" x="561.1069" y="364.1016"/></g><g><title>V1.2.0 PackageAccessor</title><rect fill="#FFFFFF" height="194.9297" style="stroke:#000000;stroke-width:1;" width="10" x="561.1069" y="559.8359"/></g><g><title>V1.1.0 PackageAccessor</title><rect fill="#FFFFFF" height="136.6641" style="stroke:#000000;stroke-width:1;" width="10" x="799.8823" y="588.9688"/></g><g><title>RegistryService</title><rect fill="#FFFFFF" height="87.3984" style="stroke:#000000;stroke-width:1;" width="10" x="1027.8794" y="1165.3594"/></g><g><title>V1.1.0 RegistryAccessor</title><rect fill="#FFFFFF" height="129.5313" style="stroke:#000000;stroke-width:1;" width="10" x="1443.7837" y="863.1641"/></g><g><title>V1.1.0 RegistryAccessor</title><rect fill="#FFFFFF" height="29.1328" style="stroke:#000000;stroke-width:1;" width="10" x="1443.7837" y="1194.4922"/></g><g><title>Package Registry</title><rect fill="#FFFFFF" height="29.1328" style="stroke:#000000;stroke-width:1;" width="10" x="1843.6309" y="892.2969"/></g><rect fill="#FFFFFF" height="479.0625" style="stroke:#000000;stroke-width:1;" width="800.0532" x="232.8262" y="283.7031"/><rect fill="#FFFFFF" height="238.8672" style="stroke:none;stroke-width:1;" width="800.0532" x="232.8262" y="523.8984"/><g><title>PackageService</title><rect fill="#000000" fill-opacity="0.00000" height="1252.5156" width="8" x="78.3232" y="113.9063"/><line style="stroke:#000000;stroke-width:1;" x1="82" x2="82" y1="113.9063" y2="1366.4219"/></g><g><title>V1.2.1 PackageAccessor</title><rect fill="#000000" fill-opacity="0.00000" height="1252.5156" width="8" x="341.3506" y="113.9063"/><line style="stroke:#000000;stroke-width:1;" x1="344.8262" x2="344.8262" y1="113.9063" y2="1366.4219"/></g><g><title>V1.2.0 PackageAccessor</title><rect fill="#000000" fill-opacity="0.00000" height="1252.5156" width="8" x="562.1069" y="113.9063"/><line style="stroke:#000000;stroke-width:1;" x1="565.5825" x2="565.5825" y1="113.9063" y2="1366.4219"/></g><g><title>V1.1.0 PackageAccessor</title><rect fill="#000000" fill-opacity="0.00000" height="1252.5156" width="8" x="800.8823" y="113.9063"/><line style="stroke:#000000;stroke-width:1;" x1="804.3579" x2="804.3579" y1="113.9063" y2="1366.4219"/></g><g><title>RegistryService</title><rect fill="#000000" fill-opacity="0.00000" height="1252.5156" width="8" x="1028.8794" y="113.9063"/><line style="stroke:#000000;stroke-width:1;" x1="1032.0381" x2="1032.0381" y1="113.9063" y2="1366.4219"/></g><g><title>V1.1.0 RegistryAccessor</title><rect fill="#000000" fill-opacity="0.00000" height="1252.5156" width="8" x="1444.7837" y="113.9063"/><line style="stroke:#000000;stroke-width:1;" x1="1448.7412" x2="1448.7412" y1="113.9063" y2="1366.4219"/></g><g><title>Package Registry</title><rect fill="#000000" fill-opacity="0.00000" height="1252.5156" width="8" x="1844.6309" y="113.9063"/><line style="stroke:#000000;stroke-width:1;" x1="1847.9824" x2="1847.9824" y1="113.9063" y2="1366.4219"/></g><g class="participant participant-head" data-participant="PS"><rect fill="#FFFFFF" height="30.2969" rx="2.5" ry="2.5" style="stroke:#000000;stroke-width:1;" width="124.6465" x="20" y="82.6094"/><text fill="#000000" font-family="Verdana" font-size="14" lengthAdjust="spacing" textLength="110.6465" x="27" y="102.6045">PackageService</text></g><g class="participant participant-tail" data-participant="PS"><rect fill="#FFFFFF" height="30.2969" rx="2.5" ry="2.5" style="stroke:#000000;stroke-width:1;" width="124.6465" x="20" y="1365.4219"/><text fill="#000000" font-family="Verdana" font-size="14" lengthAdjust="spacing" textLength="110.6465" x="27" y="1385.417">PackageService</text></g><g class="participant participant-head" data-participant="PA121"><rect fill="#FFFFFF" height="30.2969" rx="2.5" ry="2.5" style="stroke:#000000;stroke-width:1;" width="185.0488" x="252.8262" y="82.6094"/><text fill="#000000" font-family="Verdana" font-size="14" lengthAdjust="spacing" textLength="171.0488" x="259.8262" y="102.6045">V1.2.1 PackageAccessor</text></g><g class="participant participant-tail" data-participant="PA121"><rect fill="#FFFFFF" height="30.2969" rx="2.5" ry="2.5" style="stroke:#000000;stroke-width:1;" width="185.0488" x="252.8262" y="1365.4219"/><text fill="#000000" font-family="Verdana" font-size="14" lengthAdjust="spacing" textLength="171.0488" x="259.8262" y="1385.417">V1.2.1 PackageAccessor</text></g><g class="participant participant-head" data-participant="PA120"><rect fill="#FFFFFF" height="30.2969" rx="2.5" ry="2.5" style="stroke:#000000;stroke-width:1;" width="185.0488" x="473.5825" y="82.6094"/><text fill="#000000" font-family="Verdana" font-size="14" lengthAdjust="spacing" textLength="171.0488" x="480.5825" y="102.6045">V1.2.0 PackageAccessor</text></g><g class="participant participant-tail" data-participant="PA120"><rect fill="#FFFFFF" height="30.2969" rx="2.5" ry="2.5" style="stroke:#000000;stroke-width:1;" width="185.0488" x="473.5825" y="1365.4219"/><text fill="#000000" font-family="Verdana" font-size="14" lengthAdjust="spacing" textLength="171.0488" x="480.5825" y="1385.417">V1.2.0 PackageAccessor</text></g><g class="participant participant-head" data-participant="PA110"><rect fill="#FFFFFF" height="30.2969" rx="2.5" ry="2.5" style="stroke:#000000;stroke-width:1;" width="185.0488" x="712.3579" y="82.6094"/><text fill="#000000" font-family="Verdana" font-size="14" lengthAdjust="spacing" textLength="171.0488" x="719.3579" y="102.6045">V1.1.0 PackageAccessor</text></g><g class="participant participant-tail" data-participant="PA110"><rect fill="#FFFFFF" height="30.2969" rx="2.5" ry="2.5" style="stroke:#000000;stroke-width:1;" width="185.0488" x="712.3579" y="1365.4219"/><text fill="#000000" font-family="Verdana" font-size="14" lengthAdjust="spacing" textLength="171.0488" x="719.3579" y="1385.417">V1.1.0 PackageAccessor</text></g><g class="participant participant-head" data-participant="RS"><rect fill="#FFFFFF" height="30.2969" rx="2.5" ry="2.5" style="stroke:#000000;stroke-width:1;" width="123.6826" x="971.0381" y="82.6094"/><text fill="#000000" font-family="Verdana" font-size="14" lengthAdjust="spacing" textLength="109.6826" x="978.0381" y="102.6045">RegistryService</text></g><g class="participant participant-tail" data-participant="RS"><rect fill="#FFFFFF" height="30.2969" rx="2.5" ry="2.5" style="stroke:#000000;stroke-width:1;" width="123.6826" x="971.0381" y="1365.4219"/><text fill="#000000" font-family="Verdana" font-size="14" lengthAdjust="spacing" textLength="109.6826" x="978.0381" y="1385.417">RegistryService</text></g><g class="participant participant-head" data-participant="RA110"><rect fill="#FFFFFF" height="30.2969" rx="2.5" ry="2.5" style="stroke:#000000;stroke-width:1;" width="184.085" x="1356.7412" y="82.6094"/><text fill="#000000" font-family="Verdana" font-size="14" lengthAdjust="spacing" textLength="170.085" x="1363.7412" y="102.6045">V1.1.0 RegistryAccessor</text></g><g class="participant participant-tail" data-participant="RA110"><rect fill="#FFFFFF" height="30.2969" rx="2.5" ry="2.5" style="stroke:#000000;stroke-width:1;" width="184.085" x="1356.7412" y="1365.4219"/><text fill="#000000" font-family="Verdana" font-size="14" lengthAdjust="spacing" textLength="170.085" x="1363.7412" y="1385.417">V1.1.0 RegistryAccessor</text></g><g class="participant participant-head" data-participant="PR"><text fill="#000000" font-family="Verdana" font-size="14" lengthAdjust="spacing" textLength="121.2969" x="1784.9824" y="110.6045">Package Registry</text><path d="M1830.6309,61.6094 C1830.6309,51.6094 1848.6309,51.6094 1848.6309,51.6094 C1848.6309,51.6094 1866.6309,51.6094 1866.6309,61.6094 L1866.6309,87.6094 C1866.6309,97.6094 1848.6309,97.6094 1848.6309,97.6094 C1848.6309,97.6094 1830.6309,97.6094 1830.6309,87.6094 L1830.6309,61.6094" fill="#FFFFFF" style="stroke:#000000;stroke-width:1.5;"/><path d="M1830.6309,61.6094 C1830.6309,71.6094 1848.6309,71.6094 1848.6309,71.6094 C1848.6309,71.6094 1866.6309,71.6094 1866.6309,61.6094" fill="none" style="stroke:#000000;stroke-width:1.5;"/></g><g class="participant participant-tail" data-participant="PR"><text fill="#000000" font-family="Verdana" font-size="14" lengthAdjust="spacing" textLength="121.2969" x="1784.9824" y="1378.417">Package Registry</text><path d="M1830.6309,1391.7188 C1830.6309,1381.7188 1848.6309,1381.7188 1848.6309,1381.7188 C1848.6309,1381.7188 1866.6309,1381.7188 1866.6309,1391.7188 L1866.6309,1417.7188 C1866.6309,1427.7188 1848.6309,1427.7188 1848.6309,1427.7188 C1848.6309,1427.7188 1830.6309,1427.7188 1830.6309,1417.7188 L1830.6309,1391.7188" fill="#FFFFFF" style="stroke:#000000;stroke-width:1.5;"/><path d="M1830.6309,1391.7188 C1830.6309,1401.7188 1848.6309,1401.7188 1848.6309,1401.7188 C1848.6309,1401.7188 1866.6309,1401.7188 1866.6309,1391.7188" fill="none" style="stroke:#000000;stroke-width:1.5;"/></g><g><title>V1.2.1 PackageAccessor</title><rect fill="#FFFFFF" height="602.7266" style="stroke:#000000;stroke-width:1;" width="10" x="340.3506" y="188.1719"/></g><g><title>V1.2.1 PackageAccessor</title><rect fill="#FFFFFF" height="71.2656" style="stroke:#000000;stroke-width:1;" width="10" x="340.3506" y="1064.9609"/></g><g><title>V1.2.0 PackageAccessor</title><rect fill="#FFFFFF" height="151.7969" style="stroke:#000000;stroke-width:1;" width="10" x="561.1069" y="364.1016"/></g><g><title>V1.2.0 PackageAccessor</title><rect fill="#FFFFFF" height="194.9297" style="stroke:#000000;stroke-width:1;" width="10" x="561.1069" y="559.8359"/></g><g><title>V1.1.0 PackageAccessor</title><rect fill="#FFFFFF" height="136.6641" style="stroke:#000000;stroke-width:1;" width="10" x="799.8823" y="588.9688"/></g><g><title>RegistryService</title><rect fill="#FFFFFF" height="87.3984" style="stroke:#000000;stroke-width:1;" width="10" x="1027.8794" y="1165.3594"/></g><g><title>V1.1.0 RegistryAccessor</title><rect fill="#FFFFFF" height="129.5313" style="stroke:#000000;stroke-width:1;" width="10" x="1443.7837" y="863.1641"/></g><g><title>V1.1.0 RegistryAccessor</title><rect fill="#FFFFFF" height="29.1328" style="stroke:#000000;stroke-width:1;" width="10" x="1443.7837" y="1194.4922"/></g><g><title>Package Registry</title><rect fill="#FFFFFF" height="29.1328" style="stroke:#000000;stroke-width:1;" width="10" x="1843.6309" y="892.2969"/></g><rect fill="#FFFFFF" height="3" style="stroke:#FFFFFF;stroke-width:1;" width="1913.2793" x="5" y="144.4727"/><line style="stroke:#000000;stroke-width:0.5;" x1="5" x2="1918.2793" y1="144.4727" y2="144.4727"/><line style="stroke:#000000;stroke-width:0.5;" x1="5" x2="1918.2793" y1="147.4727" y2="147.4727"/><rect fill="#FFFFFF" height="23.1328" style="stroke:#000000;stroke-width:1;" width="208.6953" x="857.292" y="133.9063"/><text fill="#000000" font-family="Verdana" font-size="13" font-weight="bold" lengthAdjust="spacing" textLength="190.1694" x="863.292" y="149.9731">Package Metadata Access</text><g class="message" data-participant-1="PS" data-participant-2="PA121"><polygon fill="#000000" points="328.3506,184.1719,338.3506,188.1719,328.3506,192.1719,332.3506,188.1719" style="stroke:#000000;stroke-width:1;"/><line style="stroke:#000000;stroke-width:1;" x1="82.3232" x2="334.3506" y1="188.1719" y2="188.1719"/><text fill="#000000" font-family="Verdana" font-size="13" lengthAdjust="spacing" textLength="239.0273" x="89.3232" y="183.106">get_dependencies(v1.2.1_metadata)</text></g><path d="M236,201.1719 L236,271.1719 L453,271.1719 L453,211.1719 L443,201.1719 L236,201.1719" fill="#FFFFFF" style="stroke:#000000;stroke-width:1;"/><path d="M443,201.1719 L443,211.1719 L453,211.1719 L443,201.1719" fill="#FFFFFF" style="stroke:#000000;stroke-width:1;"/><text fill="#000000" font-family="Verdana" font-size="13" font-weight="bold" lengthAdjust="spacing" textLength="104.1587" x="242" y="218.2388">Version Check</text><text fill="#000000" font-family="Verdana" font-size="13" lengthAdjust="spacing" textLength="196.6885" x="242" y="233.3716">if schema_version == "1.2.1":</text><text fill="#000000" font-family="Verdana" font-size="13" lengthAdjust="spacing" textLength="159.0723" x="250.2646" y="248.5044">handle dual entry points</text><text fill="#000000" font-family="Verdana" font-size="13" lengthAdjust="spacing" textLength="92.0664" x="242" y="263.6372">else: delegate</text><path d="M232.8262,283.7031 L297.269,283.7031 L297.269,290.8359 L287.269,300.8359 L232.8262,300.8359 L232.8262,283.7031" fill="#FFFFFF" style="stroke:#000000;stroke-width:1;"/><rect fill="none" height="479.0625" style="stroke:#000000;stroke-width:1;" width="800.0532" x="232.8262" y="283.7031"/><text fill="#000000" font-family="Verdana" font-size="13" font-weight="bold" lengthAdjust="spacing" textLength="19.4429" x="247.8262" y="296.77">alt</text><text fill="#000000" font-family="Verdana" font-size="11" font-weight="bold" lengthAdjust="spacing" textLength="157.6577" x="312.269" y="295.9136">[v1.2.1 specific handling]</text><g class="message" data-participant-1="PA121" data-participant-2="PA121"><line style="stroke:#000000;stroke-width:1;" x1="350.3506" x2="392.3506" y1="321.9688" y2="321.9688"/><line style="stroke:#000000;stroke-width:1;" x1="392.3506" x2="392.3506" y1="321.9688" y2="334.9688"/><line style="stroke:#000000;stroke-width:1;" x1="351.3506" x2="392.3506" y1="334.9688" y2="334.9688"/><polygon fill="#000000" points="361.3506,330.9688,351.3506,334.9688,361.3506,338.9688,357.3506,334.9688" style="stroke:#000000;stroke-width:1;"/><text fill="#000000" font-family="Verdana" font-size="13" lengthAdjust="spacing" textLength="178.3564" x="357.3506" y="316.9028">extract_dual_entry_points()</text></g><g class="message" data-participant-1="PA121" data-participant-2="PA120"><polygon fill="#000000" points="549.1069,360.1016,559.1069,364.1016,549.1069,368.1016,553.1069,364.1016" style="stroke:#000000;stroke-width:1;"/><line style="stroke:#000000;stroke-width:1;" x1="350.3506" x2="555.1069" y1="364.1016" y2="364.1016"/><text fill="#000000" font-family="Verdana" font-size="13" lengthAdjust="spacing" textLength="191.7563" x="357.3506" y="359.0356">get_dependencies(metadata)</text></g><path d="M430,377.1016 L430,447.1016 L701,447.1016 L701,387.1016 L691,377.1016 L430,377.1016" fill="#FFFFFF" style="stroke:#000000;stroke-width:1;"/><path d="M691,377.1016 L691,387.1016 L701,387.1016 L691,377.1016" fill="#FFFFFF" style="stroke:#000000;stroke-width:1;"/><text fill="#000000" font-family="Verdana" font-size="13" font-weight="bold" lengthAdjust="spacing" textLength="104.1587" x="436" y="394.1685">Version Check</text><text fill="#000000" font-family="Verdana" font-size="13" lengthAdjust="spacing" textLength="250.1992" x="436" y="409.3013">if schema_version in ["1.2.0", "1.2.1"]:</text><text fill="#000000" font-family="Verdana" font-size="13" lengthAdjust="spacing" textLength="187.8589" x="444.2646" y="424.4341">handle unified dependencies</text><text fill="#000000" font-family="Verdana" font-size="13" lengthAdjust="spacing" textLength="92.0664" x="436" y="439.5669">else: delegate</text><g class="message" data-participant-1="PA120" data-participant-2="PA120"><line style="stroke:#000000;stroke-width:1;" x1="571.1069" x2="613.1069" y1="473.7656" y2="473.7656"/><line style="stroke:#000000;stroke-width:1;" x1="613.1069" x2="613.1069" y1="473.7656" y2="486.7656"/><line style="stroke:#000000;stroke-width:1;" x1="572.1069" x2="613.1069" y1="486.7656" y2="486.7656"/><polygon fill="#000000" points="582.1069,482.7656,572.1069,486.7656,582.1069,490.7656,578.1069,486.7656" style="stroke:#000000;stroke-width:1;"/><text fill="#000000" font-family="Verdana" font-size="13" lengthAdjust="spacing" textLength="204.7754" x="578.1069" y="468.6997">extract_unified_dependencies()</text></g><g class="message" data-participant-1="PA120" data-participant-2="PA121"><polygon fill="#000000" points="361.3506,511.8984,351.3506,515.8984,361.3506,519.8984,357.3506,515.8984" style="stroke:#000000;stroke-width:1;"/><line style="stroke:#000000;stroke-width:1;stroke-dasharray:2.0,2.0;" x1="355.3506" x2="565.1069" y1="515.8984" y2="515.8984"/><text fill="#000000" font-family="Verdana" font-size="13" lengthAdjust="spacing" textLength="115.8511" x="367.3506" y="510.8325">dependency_data</text></g><line style="stroke:#000000;stroke-width:1;stroke-dasharray:2.0,2.0;" x1="232.8262" x2="1032.8794" y1="524.8984" y2="524.8984"/><text fill="#000000" font-family="Verdana" font-size="11" font-weight="bold" lengthAdjust="spacing" textLength="116.4722" x="237.8262" y="535.1089">[direct delegation]</text><g class="message" data-participant-1="PA121" data-participant-2="PA120"><polygon fill="#000000" points="549.1069,555.8359,559.1069,559.8359,549.1069,563.8359,553.1069,559.8359" style="stroke:#000000;stroke-width:1;"/><line style="stroke:#000000;stroke-width:1;" x1="350.3506" x2="555.1069" y1="559.8359" y2="559.8359"/><text fill="#000000" font-family="Verdana" font-size="13" lengthAdjust="spacing" textLength="191.7563" x="357.3506" y="554.77">get_dependencies(metadata)</text></g><g class="message" data-participant-1="PA120" data-participant-2="PA110"><polygon fill="#000000" points="787.8823,584.9688,797.8823,588.9688,787.8823,592.9688,791.8823,588.9688" style="stroke:#000000;stroke-width:1;"/><line style="stroke:#000000;stroke-width:1;" x1="571.1069" x2="793.8823" y1="588.9688" y2="588.9688"/><text fill="#000000" font-family="Verdana" font-size="13" lengthAdjust="spacing" textLength="191.7563" x="578.1069" y="583.9028">get_dependencies(metadata)</text></g><path d="M727,601.9688 L727,656.9688 L881,656.9688 L881,611.9688 L871,601.9688 L727,601.9688" fill="#FFFFFF" style="stroke:#000000;stroke-width:1;"/><path d="M871,601.9688 L871,611.9688 L881,611.9688 L871,601.9688" fill="#FFFFFF" style="stroke:#000000;stroke-width:1;"/><text fill="#000000" font-family="Verdana" font-size="13" font-weight="bold" lengthAdjust="spacing" textLength="127.0039" x="733" y="619.0356">Terminal Handler</text><text fill="#000000" font-family="Verdana" font-size="13" lengthAdjust="spacing" textLength="131.5742" x="733" y="634.1685">Implements all base</text><text fill="#000000" font-family="Verdana" font-size="13" lengthAdjust="spacing" textLength="133.2881" x="733" y="649.3013">metadata extraction</text><g class="message" data-participant-1="PA110" data-participant-2="PA110"><line style="stroke:#000000;stroke-width:1;" x1="809.8823" x2="851.8823" y1="683.5" y2="683.5"/><line style="stroke:#000000;stroke-width:1;" x1="851.8823" x2="851.8823" y1="683.5" y2="696.5"/><line style="stroke:#000000;stroke-width:1;" x1="810.8823" x2="851.8823" y1="696.5" y2="696.5"/><polygon fill="#000000" points="820.8823,692.5,810.8823,696.5,820.8823,700.5,816.8823,696.5" style="stroke:#000000;stroke-width:1;"/><text fill="#000000" font-family="Verdana" font-size="13" lengthAdjust="spacing" textLength="193.9971" x="816.8823" y="678.4341">extract_basic_dependencies()</text></g><g class="message" data-participant-1="PA110" data-participant-2="PA120"><polygon fill="#000000" points="582.1069,721.6328,572.1069,725.6328,582.1069,729.6328,578.1069,725.6328" style="stroke:#000000;stroke-width:1;"/><line style="stroke:#000000;stroke-width:1;stroke-dasharray:2.0,2.0;" x1="576.1069" x2="803.8823" y1="725.6328" y2="725.6328"/><text fill="#000000" font-family="Verdana" font-size="13" lengthAdjust="spacing" textLength="115.8511" x="588.1069" y="720.5669">dependency_data</text></g><g class="message" data-participant-1="PA120" data-participant-2="PA121"><polygon fill="#000000" points="361.3506,750.7656,351.3506,754.7656,361.3506,758.7656,357.3506,754.7656" style="stroke:#000000;stroke-width:1;"/><line style="stroke:#000000;stroke-width:1;stroke-dasharray:2.0,2.0;" x1="355.3506" x2="565.1069" y1="754.7656" y2="754.7656"/><text fill="#000000" font-family="Verdana" font-size="13" lengthAdjust="spacing" textLength="115.8511" x="367.3506" y="749.6997">dependency_data</text></g><g class="message" data-participant-1="PA121" data-participant-2="PS"><polygon fill="#000000" points="93.3232,786.8984,83.3232,790.8984,93.3232,794.8984,89.3232,790.8984" style="stroke:#000000;stroke-width:1;"/><line style="stroke:#000000;stroke-width:1;stroke-dasharray:2.0,2.0;" x1="87.3232" x2="344.3506" y1="790.8984" y2="790.8984"/><text fill="#000000" font-family="Verdana" font-size="13" lengthAdjust="spacing" textLength="163.7505" x="99.3232" y="785.8325">processed_dependencies</text></g><rect fill="#FFFFFF" height="3" style="stroke:#FFFFFF;stroke-width:1;" width="1913.2793" x="5" y="819.4648"/><line style="stroke:#000000;stroke-width:0.5;" x1="5" x2="1918.2793" y1="819.4648" y2="819.4648"/><line style="stroke:#000000;stroke-width:0.5;" x1="5" x2="1918.2793" y1="822.4648" y2="822.4648"/><rect fill="#FFFFFF" height="23.1328" style="stroke:#000000;stroke-width:1;" width="173.3198" x="874.9797" y="808.8984"/><text fill="#000000" font-family="Verdana" font-size="13" font-weight="bold" lengthAdjust="spacing" textLength="154.7939" x="880.9797" y="824.9653">Registry Data Access</text><g class="message" data-participant-1="RS" data-participant-2="RA110"><polygon fill="#000000" points="1431.7837,859.1641,1441.7837,863.1641,1431.7837,867.1641,1435.7837,863.1641" style="stroke:#000000;stroke-width:1;"/><line style="stroke:#000000;stroke-width:1;" x1="1032.8794" x2="1437.7837" y1="863.1641" y2="863.1641"/><text fill="#000000" font-family="Verdana" font-size="13" lengthAdjust="spacing" textLength="391.9043" x="1039.8794" y="858.0981">find_compatible_version(registry_data, "package", "&gt;=1.0")</text></g><g class="message" data-participant-1="RA110" data-participant-2="PR"><polygon fill="#000000" points="1831.6309,888.2969,1841.6309,892.2969,1831.6309,896.2969,1835.6309,892.2969" style="stroke:#000000;stroke-width:1;"/><line style="stroke:#000000;stroke-width:1;" x1="1453.7837" x2="1837.6309" y1="892.2969" y2="892.2969"/><text fill="#000000" font-family="Verdana" font-size="13" lengthAdjust="spacing" textLength="237.2373" x="1460.7837" y="887.231">query_package_versions("package")</text></g><g class="message" data-participant-1="PR" data-participant-2="RA110"><polygon fill="#000000" points="1464.7837,917.4297,1454.7837,921.4297,1464.7837,925.4297,1460.7837,921.4297" style="stroke:#000000;stroke-width:1;"/><line style="stroke:#000000;stroke-width:1;stroke-dasharray:2.0,2.0;" x1="1458.7837" x2="1847.6309" y1="921.4297" y2="921.4297"/><text fill="#000000" font-family="Verdana" font-size="13" lengthAdjust="spacing" textLength="119.5645" x="1470.7837" y="916.3638">available_versions</text></g><g class="message" data-participant-1="RA110" data-participant-2="RA110"><line style="stroke:#000000;stroke-width:1;" x1="1453.7837" x2="1495.7837" y1="950.5625" y2="950.5625"/><line style="stroke:#000000;stroke-width:1;" x1="1495.7837" x2="1495.7837" y1="950.5625" y2="963.5625"/><line style="stroke:#000000;stroke-width:1;" x1="1454.7837" x2="1495.7837" y1="963.5625" y2="963.5625"/><polygon fill="#000000" points="1464.7837,959.5625,1454.7837,963.5625,1464.7837,967.5625,1460.7837,963.5625" style="stroke:#000000;stroke-width:1;"/><text fill="#000000" font-family="Verdana" font-size="13" lengthAdjust="spacing" textLength="365.8472" x="1460.7837" y="945.4966">resolve_version_constraint("&gt;=1.0", available_versions)</text></g><g class="message" data-participant-1="RA110" data-participant-2="RS"><polygon fill="#000000" points="1043.8794,988.6953,1033.8794,992.6953,1043.8794,996.6953,1039.8794,992.6953" style="stroke:#000000;stroke-width:1;"/><line style="stroke:#000000;stroke-width:1;stroke-dasharray:2.0,2.0;" x1="1037.8794" x2="1447.7837" y1="992.6953" y2="992.6953"/><text fill="#000000" font-family="Verdana" font-size="13" lengthAdjust="spacing" textLength="126.6675" x="1049.8794" y="987.6294">compatible_version</text></g><rect fill="#FFFFFF" height="3" style="stroke:#FFFFFF;stroke-width:1;" width="1913.2793" x="5" y="1021.2617"/><line style="stroke:#000000;stroke-width:0.5;" x1="5" x2="1918.2793" y1="1021.2617" y2="1021.2617"/><line style="stroke:#000000;stroke-width:0.5;" x1="5" x2="1918.2793" y1="1024.2617" y2="1024.2617"/><rect fill="#FFFFFF" height="23.1328" style="stroke:#000000;stroke-width:1;" width="235.0698" x="844.1047" y="1010.6953"/><text fill="#000000" font-family="Verdana" font-size="13" font-weight="bold" lengthAdjust="spacing" textLength="216.5439" x="850.1047" y="1026.7622">Cross-Component Integration</text><g class="message" data-participant-1="PS" data-participant-2="PA121"><polygon fill="#000000" points="328.3506,1060.9609,338.3506,1064.9609,328.3506,1068.9609,332.3506,1064.9609" style="stroke:#000000;stroke-width:1;"/><line style="stroke:#000000;stroke-width:1;" x1="82.3232" x2="334.3506" y1="1064.9609" y2="1064.9609"/><text fill="#000000" font-family="Verdana" font-size="13" lengthAdjust="spacing" textLength="181.7969" x="89.3232" y="1059.895">get_entry_points(metadata)</text></g><g class="message" data-participant-1="PA121" data-participant-2="PA121"><line style="stroke:#000000;stroke-width:1;" x1="350.3506" x2="392.3506" y1="1094.0938" y2="1094.0938"/><line style="stroke:#000000;stroke-width:1;" x1="392.3506" x2="392.3506" y1="1094.0938" y2="1107.0938"/><line style="stroke:#000000;stroke-width:1;" x1="351.3506" x2="392.3506" y1="1107.0938" y2="1107.0938"/><polygon fill="#000000" points="361.3506,1103.0938,351.3506,1107.0938,361.3506,1111.0938,357.3506,1107.0938" style="stroke:#000000;stroke-width:1;"/><text fill="#000000" font-family="Verdana" font-size="13" lengthAdjust="spacing" textLength="143.7871" x="357.3506" y="1089.0278">extract_entry_points()</text></g><g class="message" data-participant-1="PA121" data-participant-2="PS"><polygon fill="#000000" points="93.3232,1132.2266,83.3232,1136.2266,93.3232,1140.2266,89.3232,1136.2266" style="stroke:#000000;stroke-width:1;"/><line style="stroke:#000000;stroke-width:1;stroke-dasharray:2.0,2.0;" x1="87.3232" x2="344.3506" y1="1136.2266" y2="1136.2266"/><text fill="#000000" font-family="Verdana" font-size="13" lengthAdjust="spacing" textLength="80.7993" x="99.3232" y="1131.1606">entry_points</text></g><g class="message" data-participant-1="PS" data-participant-2="RS"><polygon fill="#000000" points="1015.8794,1161.3594,1025.8794,1165.3594,1015.8794,1169.3594,1019.8794,1165.3594" style="stroke:#000000;stroke-width:1;"/><line style="stroke:#000000;stroke-width:1;" x1="82.3232" x2="1021.8794" y1="1165.3594" y2="1165.3594"/><text fill="#000000" font-family="Verdana" font-size="13" lengthAdjust="spacing" textLength="240.3984" x="89.3232" y="1160.2935">validate_dependencies(entry_points)</text></g><g class="message" data-participant-1="RS" data-participant-2="RA110"><polygon fill="#000000" points="1431.7837,1190.4922,1441.7837,1194.4922,1431.7837,1198.4922,1435.7837,1194.4922" style="stroke:#000000;stroke-width:1;"/><line style="stroke:#000000;stroke-width:1;" x1="1037.8794" x2="1437.7837" y1="1194.4922" y2="1194.4922"/><text fill="#000000" font-family="Verdana" font-size="13" lengthAdjust="spacing" textLength="283.9307" x="1044.8794" y="1189.4263">package_exists(registry_data, dependency)</text></g><g class="message" data-participant-1="RA110" data-participant-2="RS"><polygon fill="#000000" points="1048.8794,1219.625,1038.8794,1223.625,1048.8794,1227.625,1044.8794,1223.625" style="stroke:#000000;stroke-width:1;"/><line style="stroke:#000000;stroke-width:1;stroke-dasharray:2.0,2.0;" x1="1042.8794" x2="1447.7837" y1="1223.625" y2="1223.625"/><text fill="#000000" font-family="Verdana" font-size="13" lengthAdjust="spacing" textLength="81.5103" x="1054.8794" y="1218.5591">exists_result</text></g><g class="message" data-participant-1="RS" data-participant-2="PS"><polygon fill="#000000" points="93.3232,1248.7578,83.3232,1252.7578,93.3232,1256.7578,89.3232,1252.7578" style="stroke:#000000;stroke-width:1;"/><line style="stroke:#000000;stroke-width:1;stroke-dasharray:2.0,2.0;" x1="87.3232" x2="1031.8794" y1="1252.7578" y2="1252.7578"/><text fill="#000000" font-family="Verdana" font-size="13" lengthAdjust="spacing" textLength="107.5674" x="99.3232" y="1247.6919">validation_result</text></g><path d="M16,1265.7578 L16,1350.7578 L1913,1350.7578 L1913,1275.7578 L1903,1265.7578 L16,1265.7578" fill="#FFFFFF" style="stroke:#000000;stroke-width:1;"/><path d="M1903,1265.7578 L1903,1275.7578 L1913,1275.7578 L1903,1265.7578" fill="#FFFFFF" style="stroke:#000000;stroke-width:1;"/><text fill="#000000" font-family="Verdana" font-size="13" font-weight="bold" lengthAdjust="spacing" textLength="195.3174" x="741.6946" y="1282.8247">Version-Agnostic Benefits:</text><text fill="#000000" font-family="Verdana" font-size="13" lengthAdjust="spacing" textLength="7.668" x="741.6946" y="1297.9575">&#8226;</text><text fill="#000000" font-family="Verdana" font-size="13" font-weight="bold" lengthAdjust="spacing" textLength="81.4531" x="753.4949" y="1297.9575">Unified API</text><text fill="#000000" font-family="Verdana" font-size="13" lengthAdjust="spacing" textLength="231.4355" x="834.948" y="1297.9575">: Same interface across all versions</text><text fill="#000000" font-family="Verdana" font-size="13" lengthAdjust="spacing" textLength="7.668" x="741.6946" y="1313.0903">&#8226;</text><text fill="#000000" font-family="Verdana" font-size="13" font-weight="bold" lengthAdjust="spacing" textLength="137.1094" x="753.4949" y="1313.0903">Automatic Routing</text><text fill="#000000" font-family="Verdana" font-size="13" lengthAdjust="spacing" textLength="240.1509" x="890.6042" y="1313.0903">: Requests go to appropriate handler</text><text fill="#000000" font-family="Verdana" font-size="13" lengthAdjust="spacing" textLength="7.668" x="741.6946" y="1328.2231">&#8226;</text><text fill="#000000" font-family="Verdana" font-size="13" font-weight="bold" lengthAdjust="spacing" textLength="174.1606" x="753.4949" y="1328.2231">Transparent Delegation</text><text fill="#000000" font-family="Verdana" font-size="13" lengthAdjust="spacing" textLength="250.9292" x="927.6555" y="1328.2231">: Client unaware of version complexity</text><text fill="#000000" font-family="Verdana" font-size="13" lengthAdjust="spacing" textLength="7.668" x="741.6946" y="1343.356">&#8226;</text><text fill="#000000" font-family="Verdana" font-size="13" font-weight="bold" lengthAdjust="spacing" textLength="127.2007" x="753.4949" y="1343.356">Data Consistency</text><text fill="#000000" font-family="Verdana" font-size="13" lengthAdjust="spacing" textLength="177.2075" x="880.6956" y="1343.356">: Normalized output format</text><!--SRC=[hLPDR-Cs4BthLqnzSenuOUtHW1VmUW_DeMqWRVVI508ZZHKYDAcIbBFfgR-bFws_f4DIL2X_0BjeSp02QURnpPkd9_rWd_20q0d6PMQUkUoOPWTuPFLpgrKlcvqIIiFB4xUOtATVoslUCMa_VaUfqWtgKFOeg2yfOrghb_HMPhaL29-OPR2jQpG6xfcrgAM19Nn1RRYIosqhbI5y-AL3pInTCbcM70cpUm9ZBPQeZxp66J32AQSbN_9txz_bC5I6mvGEfTlyVNwXUdMrUdLMdL-lpa-g2soviVerPLkK5n5ZwGIoy90DQVR838x3ZyNXt2BBDfj82Nv2ovf4vSqckozX-I7C3cjeqLODTYWRb3L7CpzwlQh3q7YJiTho8xCuo9L9HV-h8-eHOx4ODWQx9woV5ui7oVTWQd8Vgux3BI8ryz2pzOC4U6Ao8GSqFHE0ajX3fxYqva6YCBY61WMsT6gMCM4Xa0BJOSttP0ZVpMMR0Vq56ibC-DLgObqvyCg3Lm5yVdFUiBeamjlqhdwYmCfVyZzJ9LRVgWINy9kNOZMxZPhydehIKnF71b9APxgCBCBPoJHn_05cEjbDsfDeDXQzLcvmNzNWfSaT3sYunjf6DZJL_oLiEat-dH3vjTtaOJUVKH-u9CFzw7NMRZrtXqvGI98vW0a1xibwaF68A6MSBpBC9moZtjJBwojgvszghxv9xNprNnP55LasRCFrbjJOQUKYuCGGsKblxkCZHieaeIax2fyTnJ3udikcgjMX8mSy2em6d-kXsnCaYtSXZ9pRFsmetcP9g8HGoufHr8A0_-ZHFREXBSAQ-GYKXbAHKSioOSMEZ0kMy9dEM2I7nHQDHedZs40pIU9FRqqx7nZVNe2zYK0EoIbyBaLwyZ0fgRlJofZbZggL9EV1dRJOXXVSvO2UPDZLPBwQWoSHUEABzEu5DmGsVhuZ4vnEngd7q_vqiUM9M-8wyIkPmvoQvCtMP-OuKJdqLxIpNjXpWTsXSRI1i5lfXV9oyYuhRuFtnWX_-_puY1Btt9gr2un__lgRQduT8dfxVxTOhA5az9r50g3UinefbDo6VQ14iyJ6RM_LWJdKGlMMNc6klK1oF0q5hGAhW7Nqh7QQEvRXbQ1Z-sVDfA4l1cURJsFuEeoTuEvYBzaBtGQrZqTxMmfIpRv65FzKxuWLAUaaT_q_AtqWkVwaeOXOrrlOkolsNm00]--></g></svg>