<svg xmlns="http://www.w3.org/2000/svg" xmlns:xlink="http://www.w3.org/1999/xlink" contentStyleType="text/css" data-diagram-type="CLASS" height="1268px" preserveAspectRatio="none" style="width:1421px;height:1268px;background:#FFFFFF;" version="1.1" viewBox="0 0 1421 1268" width="1421px" zoomAndPan="magnify"><title>Factory Pattern - Component Creation and Chaining</title><defs/><g><text fill="#000000" font-family="Verdana" font-size="22" font-weight="bold" lengthAdjust="spacing" textLength="644.7246" x="384.0676" y="35.4209">Factory Pattern - Component Creation and Chaining</text><!--cluster Factory Classes--><g class="cluster" data-entity="Factory Classes" data-source-line="18" data-uid="ent0003" id="cluster_Factory Classes"><path d="M295.5,100.6194 L420.0391,100.6194 A3.75,3.75 0 0 1 422.5391,103.1194 L429.5391,122.9162 L983.5,122.9162 A2.5,2.5 0 0 1 986,125.4162 L986,754.5694 A2.5,2.5 0 0 1 983.5,757.0694 L295.5,757.0694 A2.5,2.5 0 0 1 293,754.5694 L293,103.1194 A2.5,2.5 0 0 1 295.5,100.6194" fill="#FFFFFF" style="stroke:#000000;stroke-width:1;"/><line style="stroke:#000000;stroke-width:1;" x1="293" x2="429.5391" y1="122.9162" y2="122.9162"/><text fill="#000000" font-family="Verdana" font-size="14" font-weight="bold" lengthAdjust="spacing" textLength="123.5391" x="297" y="115.6145">Factory Classes</text></g><!--cluster Created Components--><g class="cluster" data-entity="Created Components" data-source-line="50" data-uid="ent0009" id="cluster_Created Components"><path d="M13.5,149.5094 L180.2783,149.5094 A3.75,3.75 0 0 1 182.7783,152.0094 L189.7783,171.8062 L250.5,171.8062 A2.5,2.5 0 0 1 253,174.3062 L253,1259.4594 A2.5,2.5 0 0 1 250.5,1261.9594 L13.5,1261.9594 A2.5,2.5 0 0 1 11,1259.4594 L11,152.0094 A2.5,2.5 0 0 1 13.5,149.5094" fill="#FFFFFF" style="stroke:#000000;stroke-width:1;"/><line style="stroke:#000000;stroke-width:1;" x1="11" x2="189.7783" y1="171.8062" y2="171.8062"/><text fill="#000000" font-family="Verdana" font-size="14" font-weight="bold" lengthAdjust="spacing" textLength="165.7783" x="15" y="164.5045">Created Components</text></g><!--cluster Chain Structure--><g class="cluster" data-entity="Chain Structure" data-source-line="72" data-uid="ent0023" id="cluster_Chain Structure"><path d="M1035.5,375.3994 L1160.832,375.3994 A3.75,3.75 0 0 1 1163.332,377.8994 L1170.332,397.6962 L1306.5,397.6962 A2.5,2.5 0 0 1 1309,400.1962 L1309,910.4594 A2.5,2.5 0 0 1 1306.5,912.9594 L1035.5,912.9594 A2.5,2.5 0 0 1 1033,910.4594 L1033,377.8994 A2.5,2.5 0 0 1 1035.5,375.3994" fill="#FFFFFF" style="stroke:#000000;stroke-width:1;"/><line style="stroke:#000000;stroke-width:1;" x1="1033" x2="1170.332" y1="397.6962" y2="397.6962"/><text fill="#000000" font-family="Verdana" font-size="14" font-weight="bold" lengthAdjust="spacing" textLength="124.332" x="1037" y="390.3945">Chain Structure</text></g><!--class ValidatorFactory--><g class="entity" data-entity="ValidatorFactory" data-source-line="19" data-uid="ent0004" id="entity_ValidatorFactory"><rect fill="#FFFFFF" height="141.7813" rx="2.5" ry="2.5" style="stroke:#000000;stroke-width:1;" width="625.6621" x="317.17" y="162.6194"/><ellipse cx="568.4327" cy="176.6194" fill="#FFFFFF" rx="9" ry="9" style="stroke:#000000;stroke-width:1;"/><path d="M571.4014,182.26 Q570.8233,182.5569 570.1827,182.6975 Q569.5421,182.8538 568.8389,182.8538 Q566.3389,182.8538 565.0108,181.2131 Q563.6983,179.5569 563.6983,176.4319 Q563.6983,173.3069 565.0108,171.6506 Q566.3389,169.9944 568.8389,169.9944 Q569.5421,169.9944 570.1827,170.1506 Q570.8389,170.3069 571.4014,170.6038 L571.4014,173.3225 Q570.7764,172.7444 570.1827,172.4788 Q569.5889,172.1975 568.9639,172.1975 Q567.6202,172.1975 566.9327,173.2756 Q566.2452,174.3381 566.2452,176.4319 Q566.2452,178.5256 566.9327,179.6038 Q567.6202,180.6663 568.9639,180.6663 Q569.5889,180.6663 570.1827,180.4006 Q570.7764,180.1194 571.4014,179.5413 L571.4014,182.26 Z " fill="#000000"/><text fill="#000000" font-family="Verdana" font-size="14" lengthAdjust="spacing" textLength="115.6367" x="585.9327" y="181.4661">ValidatorFactory</text><line style="stroke:#000000;stroke-width:1;" x1="318.17" x2="941.8321" y1="190.6194" y2="190.6194"/><text fill="#000000" font-family="Verdana" font-size="14" font-style="italic" lengthAdjust="spacing" textLength="613.6621" x="323.17" y="207.6145">Factory Pattern: Automatically discovers and chains components from newest to oldest</text><line style="stroke:#000000;stroke-width:1;stroke-dasharray:1.0,2.0;" x1="318.17" x2="941.8321" y1="214.9163" y2="214.9163"/><rect fill="none" height="6" style="stroke:#000000;stroke-width:1;" width="6" x="325.17" y="225.5647"/><text fill="#000000" font-family="Verdana" font-size="14" lengthAdjust="spacing" text-decoration="underline" textLength="313.749" x="335.17" y="231.9114">_validator_registry: Dict[str, Type[Validator]]</text><rect fill="none" height="6" style="stroke:#000000;stroke-width:1;" width="6" x="325.17" y="241.8616"/><text fill="#000000" font-family="Verdana" font-size="14" lengthAdjust="spacing" text-decoration="underline" textLength="360.8145" x="335.17" y="248.2082">_version_order: List[str] = ["1.2.1", "1.2.0", "1.1.0"]</text><ellipse cx="328.17" cy="261.1584" fill="#FFFFFF" rx="3" ry="3" style="stroke:#000000;stroke-width:1;"/><text fill="#000000" font-family="Verdana" font-size="14" lengthAdjust="spacing" text-decoration="underline" textLength="370.6787" x="335.17" y="264.5051">create_validator_chain(target_version: str): Validator</text><ellipse cx="328.17" cy="277.4553" fill="#FFFFFF" rx="3" ry="3" style="stroke:#000000;stroke-width:1;"/><text fill="#000000" font-family="Verdana" font-size="14" lengthAdjust="spacing" text-decoration="underline" textLength="482.1318" x="335.17" y="280.802">register_validator(version: str, validator_class: Type[Validator]): void</text><ellipse cx="328.17" cy="293.7522" fill="#FFFFFF" rx="3" ry="3" style="stroke:#000000;stroke-width:1;"/><text fill="#000000" font-family="Verdana" font-size="14" lengthAdjust="spacing" text-decoration="underline" textLength="346.6299" x="335.17" y="297.0989">_build_chain(validators: List[Validator]): Validator</text></g><!--class HatchPkgAccessorFactory--><g class="entity" data-entity="HatchPkgAccessorFactory" data-source-line="29" data-uid="ent0005" id="entity_HatchPkgAccessorFactory"><rect fill="#FFFFFF" height="125.4844" rx="2.5" ry="2.5" style="stroke:#000000;stroke-width:1;" width="571.1689" x="317.42" y="607.5794"/><ellipse cx="508.4937" cy="621.5794" fill="#FFFFFF" rx="9" ry="9" style="stroke:#000000;stroke-width:1;"/><path d="M511.4625,627.22 Q510.8844,627.5169 510.2437,627.6575 Q509.6031,627.8137 508.9,627.8137 Q506.4,627.8137 505.0719,626.1731 Q503.7594,624.5169 503.7594,621.3919 Q503.7594,618.2669 505.0719,616.6106 Q506.4,614.9544 508.9,614.9544 Q509.6031,614.9544 510.2437,615.1106 Q510.9,615.2669 511.4625,615.5637 L511.4625,618.2825 Q510.8375,617.7044 510.2437,617.4387 Q509.65,617.1575 509.025,617.1575 Q507.6812,617.1575 506.9937,618.2356 Q506.3062,619.2981 506.3062,621.3919 Q506.3062,623.4856 506.9937,624.5637 Q507.6812,625.6262 509.025,625.6262 Q509.65,625.6262 510.2437,625.3606 Q510.8375,625.0794 511.4625,624.5012 L511.4625,627.22 Z " fill="#000000"/><text fill="#000000" font-family="Verdana" font-size="14" lengthAdjust="spacing" textLength="181.5215" x="525.9937" y="626.4261">HatchPkgAccessorFactory</text><line style="stroke:#000000;stroke-width:1;" x1="318.42" x2="887.5889" y1="635.5794" y2="635.5794"/><rect fill="none" height="6" style="stroke:#000000;stroke-width:1;" width="6" x="325.42" y="646.2278"/><text fill="#000000" font-family="Verdana" font-size="14" lengthAdjust="spacing" text-decoration="underline" textLength="379.21" x="335.42" y="652.5745">_accessor_registry: Dict[str, Type[HatchPkgAccessor]]</text><rect fill="none" height="6" style="stroke:#000000;stroke-width:1;" width="6" x="325.42" y="662.5247"/><text fill="#000000" font-family="Verdana" font-size="14" lengthAdjust="spacing" text-decoration="underline" textLength="360.8145" x="335.42" y="668.8714">_version_order: List[str] = ["1.2.1", "1.2.0", "1.1.0"]</text><line style="stroke:#000000;stroke-width:1;" x1="318.42" x2="887.5889" y1="676.1731" y2="676.1731"/><ellipse cx="328.42" cy="689.8216" fill="#FFFFFF" rx="3" ry="3" style="stroke:#000000;stroke-width:1;"/><text fill="#000000" font-family="Verdana" font-size="14" lengthAdjust="spacing" text-decoration="underline" textLength="436.1396" x="335.42" y="693.1682">create_accessor_chain(target_version: str): HatchPkgAccessor</text><ellipse cx="328.42" cy="706.1184" fill="#FFFFFF" rx="3" ry="3" style="stroke:#000000;stroke-width:1;"/><text fill="#000000" font-family="Verdana" font-size="14" lengthAdjust="spacing" text-decoration="underline" textLength="547.1689" x="335.42" y="709.4651">register_accessor(version: str, accessor_class: Type[HatchPkgAccessor]): void</text><ellipse cx="328.42" cy="722.4153" fill="#FFFFFF" rx="3" ry="3" style="stroke:#000000;stroke-width:1;"/><text fill="#000000" font-family="Verdana" font-size="14" lengthAdjust="spacing" text-decoration="underline" textLength="477.9756" x="335.42" y="725.762">_build_chain(accessors: List[HatchPkgAccessor]): HatchPkgAccessor</text></g><!--class RegistryAccessorFactory--><g class="entity" data-entity="RegistryAccessorFactory" data-source-line="37" data-uid="ent0006" id="entity_RegistryAccessorFactory"><rect fill="#FFFFFF" height="125.4844" rx="2.5" ry="2.5" style="stroke:#000000;stroke-width:1;" width="614.0273" x="328.99" y="405.0994"/><ellipse cx="545.8235" cy="419.0994" fill="#FFFFFF" rx="9" ry="9" style="stroke:#000000;stroke-width:1;"/><path d="M548.7922,424.74 Q548.2141,425.0369 547.5735,425.1775 Q546.9329,425.3337 546.2297,425.3337 Q543.7297,425.3337 542.4016,423.6931 Q541.0891,422.0369 541.0891,418.9119 Q541.0891,415.7869 542.4016,414.1306 Q543.7297,412.4744 546.2297,412.4744 Q546.9329,412.4744 547.5735,412.6306 Q548.2297,412.7869 548.7922,413.0837 L548.7922,415.8025 Q548.1672,415.2244 547.5735,414.9587 Q546.9797,414.6775 546.3547,414.6775 Q545.011,414.6775 544.3235,415.7556 Q543.636,416.8181 543.636,418.9119 Q543.636,421.0056 544.3235,422.0837 Q545.011,423.1462 546.3547,423.1462 Q546.9797,423.1462 547.5735,422.8806 Q548.1672,422.5994 548.7922,422.0212 L548.7922,424.74 Z " fill="#000000"/><text fill="#000000" font-family="Verdana" font-size="14" lengthAdjust="spacing" textLength="172.8604" x="563.3235" y="423.9461">RegistryAccessorFactory</text><line style="stroke:#000000;stroke-width:1;" x1="329.99" x2="942.0173" y1="433.0994" y2="433.0994"/><text fill="#000000" font-family="Verdana" font-size="14" font-style="italic" lengthAdjust="spacing" textLength="602.0273" x="334.99" y="450.0945">Dynamic Creation: Detects registry format and creates appropriate accessor instance</text><line style="stroke:#000000;stroke-width:1;stroke-dasharray:1.0,2.0;" x1="329.99" x2="942.0173" y1="457.3962" y2="457.3962"/><rect fill="none" height="6" style="stroke:#000000;stroke-width:1;" width="6" x="336.99" y="468.0447"/><text fill="#000000" font-family="Verdana" font-size="14" lengthAdjust="spacing" text-decoration="underline" textLength="404.6396" x="346.99" y="474.3914">_accessor_registry: Dict[str, Type[RegistryAccessorBase]]</text><ellipse cx="339.99" cy="487.3416" fill="#FFFFFF" rx="3" ry="3" style="stroke:#000000;stroke-width:1;"/><text fill="#000000" font-family="Verdana" font-size="14" lengthAdjust="spacing" text-decoration="underline" textLength="482.1729" x="346.99" y="490.6882">create_accessor_for_data(registry_data: Dict): RegistryAccessorBase</text><ellipse cx="339.99" cy="503.6384" fill="#FFFFFF" rx="3" ry="3" style="stroke:#000000;stroke-width:1;"/><text fill="#000000" font-family="Verdana" font-size="14" lengthAdjust="spacing" text-decoration="underline" textLength="572.5986" x="346.99" y="506.9851">register_accessor(version: str, accessor_class: Type[RegistryAccessorBase]): void</text><ellipse cx="339.99" cy="519.9353" fill="#FFFFFF" rx="3" ry="3" style="stroke:#000000;stroke-width:1;"/><text fill="#000000" font-family="Verdana" font-size="14" lengthAdjust="spacing" text-decoration="underline" textLength="334.8721" x="346.99" y="523.282">_detect_registry_format(registry_data: Dict): str</text></g><!--class V121Validator--><g class="entity" data-entity="V121Validator" data-source-line="51" data-uid="ent0010" id="entity_V121Validator"><rect fill="#FFFFFF" height="44" rx="2.5" ry="2.5" style="stroke:#000000;stroke-width:1;" width="127.5107" x="69.24" y="211.5094"/><ellipse cx="82.24" cy="225.5094" fill="#FFFFFF" rx="9" ry="9" style="stroke:#000000;stroke-width:1;"/><path d="M85.2088,231.15 Q84.6306,231.4469 83.99,231.5875 Q83.3494,231.7437 82.6463,231.7437 Q80.1463,231.7437 78.8181,230.1031 Q77.5056,228.4469 77.5056,225.3219 Q77.5056,222.1969 78.8181,220.5406 Q80.1463,218.8844 82.6463,218.8844 Q83.3494,218.8844 83.99,219.0406 Q84.6463,219.1969 85.2088,219.4937 L85.2088,222.2125 Q84.5838,221.6344 83.99,221.3687 Q83.3963,221.0875 82.7713,221.0875 Q81.4275,221.0875 80.74,222.1656 Q80.0525,223.2281 80.0525,225.3219 Q80.0525,227.4156 80.74,228.4937 Q81.4275,229.5562 82.7713,229.5562 Q83.3963,229.5562 83.99,229.2906 Q84.5838,229.0094 85.2088,228.4312 L85.2088,231.15 Z " fill="#000000"/><text fill="#000000" font-family="Verdana" font-size="14" lengthAdjust="spacing" textLength="99.5107" x="94.24" y="230.3561">V121Validator</text><line style="stroke:#000000;stroke-width:1;" x1="70.24" x2="195.7507" y1="239.5094" y2="239.5094"/><line style="stroke:#000000;stroke-width:1;" x1="70.24" x2="195.7507" y1="247.5094" y2="247.5094"/></g><!--class V120Validator--><g class="entity" data-entity="V120Validator" data-source-line="52" data-uid="ent0011" id="entity_V120Validator"><rect fill="#FFFFFF" height="44" rx="2.5" ry="2.5" style="stroke:#000000;stroke-width:1;" width="127.5107" x="46.24" y="445.8394"/><ellipse cx="59.24" cy="459.8394" fill="#FFFFFF" rx="9" ry="9" style="stroke:#000000;stroke-width:1;"/><path d="M62.2088,465.48 Q61.6306,465.7769 60.99,465.9175 Q60.3494,466.0737 59.6463,466.0737 Q57.1463,466.0737 55.8181,464.4331 Q54.5056,462.7769 54.5056,459.6519 Q54.5056,456.5269 55.8181,454.8706 Q57.1463,453.2144 59.6463,453.2144 Q60.3494,453.2144 60.99,453.3706 Q61.6463,453.5269 62.2088,453.8237 L62.2088,456.5425 Q61.5838,455.9644 60.99,455.6987 Q60.3963,455.4175 59.7713,455.4175 Q58.4275,455.4175 57.74,456.4956 Q57.0525,457.5581 57.0525,459.6519 Q57.0525,461.7456 57.74,462.8237 Q58.4275,463.8862 59.7713,463.8862 Q60.3963,463.8862 60.99,463.6206 Q61.5838,463.3394 62.2088,462.7612 L62.2088,465.48 Z " fill="#000000"/><text fill="#000000" font-family="Verdana" font-size="14" lengthAdjust="spacing" textLength="99.5107" x="71.24" y="464.6861">V120Validator</text><line style="stroke:#000000;stroke-width:1;" x1="47.24" x2="172.7507" y1="473.8394" y2="473.8394"/><line style="stroke:#000000;stroke-width:1;" x1="47.24" x2="172.7507" y1="481.8394" y2="481.8394"/></g><!--class V110Validator--><g class="entity" data-entity="V110Validator" data-source-line="53" data-uid="ent0012" id="entity_V110Validator"><rect fill="#FFFFFF" height="44" rx="2.5" ry="2.5" style="stroke:#000000;stroke-width:1;" width="127.5107" x="64.24" y="648.3294"/><ellipse cx="77.24" cy="662.3294" fill="#FFFFFF" rx="9" ry="9" style="stroke:#000000;stroke-width:1;"/><path d="M80.2088,667.97 Q79.6306,668.2669 78.99,668.4075 Q78.3494,668.5637 77.6463,668.5637 Q75.1463,668.5637 73.8181,666.9231 Q72.5056,665.2669 72.5056,662.1419 Q72.5056,659.0169 73.8181,657.3606 Q75.1463,655.7044 77.6463,655.7044 Q78.3494,655.7044 78.99,655.8606 Q79.6463,656.0169 80.2088,656.3137 L80.2088,659.0325 Q79.5838,658.4544 78.99,658.1887 Q78.3963,657.9075 77.7713,657.9075 Q76.4275,657.9075 75.74,658.9856 Q75.0525,660.0481 75.0525,662.1419 Q75.0525,664.2356 75.74,665.3137 Q76.4275,666.3762 77.7713,666.3762 Q78.3963,666.3762 78.99,666.1106 Q79.5838,665.8294 80.2088,665.2512 L80.2088,667.97 Z " fill="#000000"/><text fill="#000000" font-family="Verdana" font-size="14" lengthAdjust="spacing" textLength="99.5107" x="89.24" y="667.1761">V110Validator</text><line style="stroke:#000000;stroke-width:1;" x1="65.24" x2="190.7507" y1="676.3294" y2="676.3294"/><line style="stroke:#000000;stroke-width:1;" x1="65.24" x2="190.7507" y1="684.3294" y2="684.3294"/></g><!--class V121PackageAccessor--><g class="entity" data-entity="V121PackageAccessor" data-source-line="55" data-uid="ent0013" id="entity_V121PackageAccessor"><rect fill="#FFFFFF" height="44" rx="2.5" ry="2.5" style="stroke:#000000;stroke-width:1;" width="185.6982" x="35.15" y="983.9594"/><ellipse cx="48.15" cy="997.9594" fill="#FFFFFF" rx="9" ry="9" style="stroke:#000000;stroke-width:1;"/><path d="M51.1188,1003.6 Q50.5406,1003.8969 49.9,1004.0375 Q49.2594,1004.1937 48.5563,1004.1937 Q46.0563,1004.1937 44.7281,1002.5531 Q43.4156,1000.8969 43.4156,997.7719 Q43.4156,994.6469 44.7281,992.9906 Q46.0563,991.3344 48.5563,991.3344 Q49.2594,991.3344 49.9,991.4906 Q50.5563,991.6469 51.1188,991.9437 L51.1188,994.6625 Q50.4938,994.0844 49.9,993.8187 Q49.3063,993.5375 48.6813,993.5375 Q47.3375,993.5375 46.65,994.6156 Q45.9625,995.6781 45.9625,997.7719 Q45.9625,999.8656 46.65,1000.9437 Q47.3375,1002.0062 48.6813,1002.0062 Q49.3063,1002.0062 49.9,1001.7406 Q50.4938,1001.4594 51.1188,1000.8812 L51.1188,1003.6 Z " fill="#000000"/><text fill="#000000" font-family="Verdana" font-size="14" lengthAdjust="spacing" textLength="157.6982" x="60.15" y="1002.8061">V121PackageAccessor</text><line style="stroke:#000000;stroke-width:1;" x1="36.15" x2="219.8482" y1="1011.9594" y2="1011.9594"/><line style="stroke:#000000;stroke-width:1;" x1="36.15" x2="219.8482" y1="1019.9594" y2="1019.9594"/></g><!--class V120PackageAccessor--><g class="entity" data-entity="V120PackageAccessor" data-source-line="56" data-uid="ent0014" id="entity_V120PackageAccessor"><rect fill="#FFFFFF" height="44" rx="2.5" ry="2.5" style="stroke:#000000;stroke-width:1;" width="185.6982" x="35.15" y="1088.9594"/><ellipse cx="48.15" cy="1102.9594" fill="#FFFFFF" rx="9" ry="9" style="stroke:#000000;stroke-width:1;"/><path d="M51.1188,1108.6 Q50.5406,1108.8969 49.9,1109.0375 Q49.2594,1109.1938 48.5563,1109.1938 Q46.0563,1109.1938 44.7281,1107.5531 Q43.4156,1105.8969 43.4156,1102.7719 Q43.4156,1099.6469 44.7281,1097.9906 Q46.0563,1096.3344 48.5563,1096.3344 Q49.2594,1096.3344 49.9,1096.4906 Q50.5563,1096.6469 51.1188,1096.9438 L51.1188,1099.6625 Q50.4938,1099.0844 49.9,1098.8188 Q49.3063,1098.5375 48.6813,1098.5375 Q47.3375,1098.5375 46.65,1099.6156 Q45.9625,1100.6781 45.9625,1102.7719 Q45.9625,1104.8656 46.65,1105.9438 Q47.3375,1107.0063 48.6813,1107.0063 Q49.3063,1107.0063 49.9,1106.7406 Q50.4938,1106.4594 51.1188,1105.8813 L51.1188,1108.6 Z " fill="#000000"/><text fill="#000000" font-family="Verdana" font-size="14" lengthAdjust="spacing" textLength="157.6982" x="60.15" y="1107.8061">V120PackageAccessor</text><line style="stroke:#000000;stroke-width:1;" x1="36.15" x2="219.8482" y1="1116.9594" y2="1116.9594"/><line style="stroke:#000000;stroke-width:1;" x1="36.15" x2="219.8482" y1="1124.9594" y2="1124.9594"/></g><!--class V110PackageAccessor--><g class="entity" data-entity="V110PackageAccessor" data-source-line="57" data-uid="ent0015" id="entity_V110PackageAccessor"><rect fill="#FFFFFF" height="44" rx="2.5" ry="2.5" style="stroke:#000000;stroke-width:1;" width="185.6982" x="35.15" y="1193.9594"/><ellipse cx="48.15" cy="1207.9594" fill="#FFFFFF" rx="9" ry="9" style="stroke:#000000;stroke-width:1;"/><path d="M51.1188,1213.6 Q50.5406,1213.8969 49.9,1214.0375 Q49.2594,1214.1938 48.5563,1214.1938 Q46.0563,1214.1938 44.7281,1212.5531 Q43.4156,1210.8969 43.4156,1207.7719 Q43.4156,1204.6469 44.7281,1202.9906 Q46.0563,1201.3344 48.5563,1201.3344 Q49.2594,1201.3344 49.9,1201.4906 Q50.5563,1201.6469 51.1188,1201.9438 L51.1188,1204.6625 Q50.4938,1204.0844 49.9,1203.8188 Q49.3063,1203.5375 48.6813,1203.5375 Q47.3375,1203.5375 46.65,1204.6156 Q45.9625,1205.6781 45.9625,1207.7719 Q45.9625,1209.8656 46.65,1210.9438 Q47.3375,1212.0063 48.6813,1212.0063 Q49.3063,1212.0063 49.9,1211.7406 Q50.4938,1211.4594 51.1188,1210.8813 L51.1188,1213.6 Z " fill="#000000"/><text fill="#000000" font-family="Verdana" font-size="14" lengthAdjust="spacing" textLength="157.6982" x="60.15" y="1212.8061">V110PackageAccessor</text><line style="stroke:#000000;stroke-width:1;" x1="36.15" x2="219.8482" y1="1221.9594" y2="1221.9594"/><line style="stroke:#000000;stroke-width:1;" x1="36.15" x2="219.8482" y1="1229.9594" y2="1229.9594"/></g><!--class V110RegistryAccessor--><g class="entity" data-entity="V110RegistryAccessor" data-source-line="59" data-uid="ent0016" id="entity_V110RegistryAccessor"><rect fill="#FFFFFF" height="44" rx="2.5" ry="2.5" style="stroke:#000000;stroke-width:1;" width="184.7344" x="35.63" y="836.5094"/><ellipse cx="48.63" cy="850.5094" fill="#FFFFFF" rx="9" ry="9" style="stroke:#000000;stroke-width:1;"/><path d="M51.5988,856.15 Q51.0206,856.4469 50.38,856.5875 Q49.7394,856.7437 49.0363,856.7437 Q46.5363,856.7437 45.2081,855.1031 Q43.8956,853.4469 43.8956,850.3219 Q43.8956,847.1969 45.2081,845.5406 Q46.5363,843.8844 49.0363,843.8844 Q49.7394,843.8844 50.38,844.0406 Q51.0363,844.1969 51.5988,844.4937 L51.5988,847.2125 Q50.9738,846.6344 50.38,846.3687 Q49.7863,846.0875 49.1613,846.0875 Q47.8175,846.0875 47.13,847.1656 Q46.4425,848.2281 46.4425,850.3219 Q46.4425,852.4156 47.13,853.4937 Q47.8175,854.5562 49.1613,854.5562 Q49.7863,854.5562 50.38,854.2906 Q50.9738,854.0094 51.5988,853.4312 L51.5988,856.15 Z " fill="#000000"/><text fill="#000000" font-family="Verdana" font-size="14" lengthAdjust="spacing" textLength="156.7344" x="60.63" y="855.3561">V110RegistryAccessor</text><line style="stroke:#000000;stroke-width:1;" x1="36.63" x2="219.3644" y1="864.5094" y2="864.5094"/><line style="stroke:#000000;stroke-width:1;" x1="36.63" x2="219.3644" y1="872.5094" y2="872.5094"/></g><g class="entity" data-entity="VC" data-source-line="73" data-uid="ent0024" id="entity_VC"><rect fill="#FFFFFF" height="60.8906" rx="2.5" ry="2.5" style="stroke:#000000;stroke-width:1;" width="172.2617" x="1081.87" y="437.3994"/><text fill="#000000" font-family="Verdana" font-size="14" lengthAdjust="spacing" textLength="107.6523" x="1114.1747" y="452.3945">Validator Chain</text><line style="stroke:#000000;stroke-width:1;" x1="1082.87" x2="1253.1317" y1="457.6962" y2="457.6962"/><text fill="#000000" font-family="Verdana" font-size="14" lengthAdjust="spacing" textLength="143.6299" x="1087.87" y="474.6914">head: V121Validator</text><text fill="#000000" font-family="Verdana" font-size="14" lengthAdjust="spacing" textLength="160.2617" x="1087.87" y="490.9882">V121 -&gt; V120 -&gt; V110</text></g><g class="entity" data-entity="PAC" data-source-line="78" data-uid="ent0025" id="entity_PAC"><rect fill="#FFFFFF" height="60.8906" rx="2.5" ry="2.5" style="stroke:#000000;stroke-width:1;" width="213.8174" x="1066.09" y="828.0694"/><text fill="#000000" font-family="Verdana" font-size="14" lengthAdjust="spacing" textLength="170.29" x="1087.8537" y="843.0645">Package Accessor Chain</text><line style="stroke:#000000;stroke-width:1;" x1="1067.09" x2="1278.9074" y1="848.3662" y2="848.3662"/><text fill="#000000" font-family="Verdana" font-size="14" lengthAdjust="spacing" textLength="201.8174" x="1072.09" y="865.3614">head: V121PackageAccessor</text><text fill="#000000" font-family="Verdana" font-size="14" lengthAdjust="spacing" textLength="160.2617" x="1072.09" y="881.6582">V121 -&gt; V120 -&gt; V110</text></g><g class="entity" data-entity="RA" data-source-line="83" data-uid="ent0026" id="entity_RA"><rect fill="#FFFFFF" height="44.5938" rx="2.5" ry="2.5" style="stroke:#000000;stroke-width:1;" width="219.3477" x="1065.33" y="648.0294"/><text fill="#000000" font-family="Verdana" font-size="14" lengthAdjust="spacing" textLength="124.8857" x="1112.561" y="663.0245">Registry Accessor</text><line style="stroke:#000000;stroke-width:1;" x1="1066.33" x2="1283.6777" y1="668.3263" y2="668.3263"/><text fill="#000000" font-family="Verdana" font-size="14" lengthAdjust="spacing" textLength="207.3477" x="1071.33" y="685.3214">single: V110RegistryAccessor</text></g><g class="entity" data-entity="FactoryBenefits" data-source-line="10" data-uid="ent0002" id="entity_FactoryBenefits"><path d="M1013.14,183.1094 L1013.14,283.9063 L1414.8597,283.9063 L1414.8597,193.1094 L1404.8597,183.1094 L1013.14,183.1094" fill="#FFFFFF" style="stroke:#000000;stroke-width:1;"/><path d="M1404.8597,183.1094 L1404.8597,193.1094 L1414.8597,193.1094 L1404.8597,183.1094" fill="#FFFFFF" style="stroke:#000000;stroke-width:1;"/><text fill="#000000" font-family="Verdana" font-size="13" font-weight="bold" lengthAdjust="spacing" textLength="185.7134" x="1019.14" y="200.1763">Factory Pattern Benefits:</text><text fill="#000000" font-family="Verdana" font-size="13" lengthAdjust="spacing" textLength="7.668" x="1019.14" y="215.3091">&#8226;</text><text fill="#000000" font-family="Verdana" font-size="13" font-weight="bold" lengthAdjust="spacing" textLength="151.4805" x="1030.9403" y="215.3091">Automatic Discovery</text><text fill="#000000" font-family="Verdana" font-size="13" lengthAdjust="spacing" textLength="217.439" x="1182.4208" y="215.3091">: Finds all registered components</text><text fill="#000000" font-family="Verdana" font-size="13" lengthAdjust="spacing" textLength="7.668" x="1019.14" y="230.4419">&#8226;</text><text fill="#000000" font-family="Verdana" font-size="13" font-weight="bold" lengthAdjust="spacing" textLength="115.9399" x="1030.9403" y="230.4419">Chain Assembly</text><text fill="#000000" font-family="Verdana" font-size="13" lengthAdjust="spacing" textLength="231.5308" x="1146.8802" y="230.4419">: Links components in correct order</text><text fill="#000000" font-family="Verdana" font-size="13" lengthAdjust="spacing" textLength="7.668" x="1019.14" y="245.5747">&#8226;</text><text fill="#000000" font-family="Verdana" font-size="13" font-weight="bold" lengthAdjust="spacing" textLength="155.8857" x="1030.9403" y="245.5747">Version Management</text><text fill="#000000" font-family="Verdana" font-size="13" lengthAdjust="spacing" textLength="193.3813" x="1186.826" y="245.5747">: Handles version precedence</text><text fill="#000000" font-family="Verdana" font-size="13" lengthAdjust="spacing" textLength="7.668" x="1019.14" y="260.7075">&#8226;</text><text fill="#000000" font-family="Verdana" font-size="13" font-weight="bold" lengthAdjust="spacing" textLength="91.1079" x="1030.9403" y="260.7075">Extensibility</text><text fill="#000000" font-family="Verdana" font-size="13" lengthAdjust="spacing" textLength="183.8853" x="1122.0482" y="260.7075">: New versions auto-register</text><text fill="#000000" font-family="Verdana" font-size="13" lengthAdjust="spacing" textLength="7.668" x="1019.14" y="275.8403">&#8226;</text><text fill="#000000" font-family="Verdana" font-size="13" font-weight="bold" lengthAdjust="spacing" textLength="102.9971" x="1030.9403" y="275.8403">Encapsulation</text><text fill="#000000" font-family="Verdana" font-size="13" lengthAdjust="spacing" textLength="196.5742" x="1133.9374" y="275.8403">: Hides complex creation logic</text></g><!--link ValidatorFactory to RegistryAccessorFactory--><!--link RegistryAccessorFactory to HatchPkgAccessorFactory--><!--link V121Validator to V120Validator--><!--link V120Validator to V110Validator--><!--link V110Validator to V110RegistryAccessor--><!--link V110RegistryAccessor to V121PackageAccessor--><!--link V121PackageAccessor to V120PackageAccessor--><!--link V120PackageAccessor to V110PackageAccessor--><!--link VC to RA--><!--link RA to PAC--><!--link Created Components to Factory Classes--><!--link Factory Classes to Chain Structure--><!--link ValidatorFactory to V121Validator--><g class="link" data-entity-1="ValidatorFactory" data-entity-2="V121Validator" data-source-line="95" data-uid="lnk31" id="link_ValidatorFactory_V121Validator"><path codeLine="95" d="M470.29,162.1194 C406.54,137.2794 331.62,112.5494 261,100.1794 C234.73,95.5794 223.74,86.2494 201,100.1794 C161.34,124.4794 145.1978,174.1214 138.2878,205.3114" fill="none" id="ValidatorFactory-to-V121Validator" style="stroke:#000000;stroke-width:1;stroke-dasharray:7.0,7.0;"/><polygon fill="#000000" points="136.99,211.1694,142.842,203.2476,138.0715,206.2877,135.0314,201.5172,136.99,211.1694" style="stroke:#000000;stroke-width:1;"/><text fill="#000000" font-family="Verdana" font-size="13" lengthAdjust="spacing" textLength="48.3247" x="233" y="72.6863">creates</text></g><!--link ValidatorFactory to V120Validator--><g class="link" data-entity-1="ValidatorFactory" data-entity-2="V120Validator" data-source-line="96" data-uid="lnk32" id="link_ValidatorFactory_V120Validator"><path codeLine="96" d="M316.84,296.8194 C239.05,313.3594 175.42,328.3294 168,334.3994 C133.22,362.8394 119.833,410.3635 114.253,439.9235" fill="none" id="ValidatorFactory-to-V120Validator" style="stroke:#000000;stroke-width:1;stroke-dasharray:7.0,7.0;"/><polygon fill="#000000" points="113.14,445.8194,118.74,437.7175,114.0675,440.9061,110.8789,436.2336,113.14,445.8194" style="stroke:#000000;stroke-width:1;"/><text fill="#000000" font-family="Verdana" font-size="13" lengthAdjust="spacing" textLength="48.3247" x="169" y="347.4663">creates</text></g><!--link ValidatorFactory to V110Validator--><g class="link" data-entity-1="ValidatorFactory" data-entity-2="V110Validator" data-source-line="97" data-uid="lnk33" id="link_ValidatorFactory_V110Validator"><path codeLine="97" d="M340.06,304.7794 C311.25,319.6394 284.16,337.6294 261,359.3994 C201.11,415.6994 223.55,455.1094 191,530.5794 C172.87,572.6094 153.0145,615.7609 140.3945,642.8409" fill="none" id="ValidatorFactory-to-V110Validator" style="stroke:#000000;stroke-width:1;stroke-dasharray:7.0,7.0;"/><polygon fill="#000000" points="137.86,648.2794,145.2873,641.8114,139.972,643.7473,138.0361,638.4321,137.86,648.2794" style="stroke:#000000;stroke-width:1;"/><text fill="#000000" font-family="Verdana" font-size="13" lengthAdjust="spacing" textLength="48.3247" x="262" y="472.4063">creates</text></g><!--link ValidatorFactory to VC--><g class="link" data-entity-1="ValidatorFactory" data-entity-2="VC" data-source-line="98" data-uid="lnk34" id="link_ValidatorFactory_VC"><path codeLine="98" d="M933.01,304.8794 C995.4,322.6094 1050.47,341.6494 1078,359.3994 C1108.68,379.1794 1131.0085,407.6528 1146.9785,431.9928" fill="none" id="ValidatorFactory-to-VC" style="stroke:#000000;stroke-width:1;stroke-dasharray:7.0,7.0;"/><polygon fill="#000000" points="1150.27,437.0094,1148.6772,427.2902,1147.5271,432.8289,1141.9884,431.6788,1150.27,437.0094" style="stroke:#000000;stroke-width:1;"/><text fill="#000000" font-family="Verdana" font-size="13" lengthAdjust="spacing" textLength="78.0762" x="1060.54" y="347.4663">builds chain</text></g><!--link RegistryAccessorFactory to RA--><g class="link" data-entity-1="RegistryAccessorFactory" data-entity-2="RA" data-source-line="100" data-uid="lnk35" id="link_RegistryAccessorFactory_RA"><path codeLine="100" d="M902.33,531.0194 C930.59,539.9294 958.62,549.7894 985,560.5794 C1043.57,584.5494 1101.3101,620.0377 1138.0301,644.2377" fill="none" id="RegistryAccessorFactory-to-RA" style="stroke:#000000;stroke-width:1;stroke-dasharray:7.0,7.0;"/><polygon fill="#000000" points="1143.04,647.5394,1137.7263,639.2469,1138.8651,644.788,1133.3241,645.9267,1143.04,647.5394" style="stroke:#000000;stroke-width:1;"/><text fill="#000000" font-family="Verdana" font-size="13" lengthAdjust="spacing" textLength="55.8784" x="1018.66" y="573.6463">provides</text></g><!--link RegistryAccessorFactory to V110RegistryAccessor--><g class="link" data-entity-1="RegistryAccessorFactory" data-entity-2="V110RegistryAccessor" data-source-line="101" data-uid="lnk36" id="link_RegistryAccessorFactory_V110RegistryAccessor"><path codeLine="101" d="M814.48,530.9694 C849.39,550.5594 882.43,575.6894 906,607.5794 C956.98,676.5594 996.35,736.1494 937,798.0694 C909.8,826.4494 268.8,821.7394 230,828.0694 C218.18,829.9994 211.5781,831.3061 199.6681,834.4761" fill="none" id="RegistryAccessorFactory-to-V110RegistryAccessor" style="stroke:#000000;stroke-width:1;stroke-dasharray:7.0,7.0;"/><polygon fill="#000000" points="193.87,836.0194,203.596,837.5699,198.7018,834.7333,201.5384,829.8391,193.87,836.0194" style="stroke:#000000;stroke-width:1;"/><text fill="#000000" font-family="Verdana" font-size="13" lengthAdjust="spacing" textLength="48.3247" x="967.78" y="674.8963">creates</text></g><!--link HatchPkgAccessorFactory to V121PackageAccessor--><g class="link" data-entity-1="HatchPkgAccessorFactory" data-entity-2="V121PackageAccessor" data-source-line="103" data-uid="lnk37" id="link_HatchPkgAccessorFactory_V121PackageAccessor"><path codeLine="103" d="M489.73,733.3094 C464.62,748.1894 438.51,764.5594 415,781.0694 C331.11,839.9794 319.59,866.8894 238,928.9594 C212.51,948.3494 187.5178,965.5844 165.3078,980.4344" fill="none" id="HatchPkgAccessorFactory-to-V121PackageAccessor" style="stroke:#000000;stroke-width:1;stroke-dasharray:7.0,7.0;"/><polygon fill="#000000" points="160.32,983.7694,170.025,982.0922,164.4765,980.9903,165.5784,975.4418,160.32,983.7694" style="stroke:#000000;stroke-width:1;"/><text fill="#000000" font-family="Verdana" font-size="13" lengthAdjust="spacing" textLength="48.3247" x="354.43" y="863.0763">creates</text></g><!--link HatchPkgAccessorFactory to V120PackageAccessor--><g class="link" data-entity-1="HatchPkgAccessorFactory" data-entity-2="V120PackageAccessor" data-source-line="104" data-uid="lnk38" id="link_HatchPkgAccessorFactory_V120PackageAccessor"><path codeLine="104" d="M549.08,733.3894 C536.28,748.7294 522.9,765.2894 511,781.0694 C463.23,844.4194 467.82,873.5794 411,928.9594 C337.92,1000.1994 237.8611,1055.9253 178.4811,1085.7653" fill="none" id="HatchPkgAccessorFactory-to-V120PackageAccessor" style="stroke:#000000;stroke-width:1;stroke-dasharray:7.0,7.0;"/><polygon fill="#000000" points="173.12,1088.4594,182.9578,1087.9923,177.5876,1086.2143,179.3656,1080.8441,173.12,1088.4594" style="stroke:#000000;stroke-width:1;"/><text fill="#000000" font-family="Verdana" font-size="13" lengthAdjust="spacing" textLength="48.3247" x="401.94" y="950.0263">creates</text></g><!--link HatchPkgAccessorFactory to V110PackageAccessor--><g class="link" data-entity-1="HatchPkgAccessorFactory" data-entity-2="V110PackageAccessor" data-source-line="105" data-uid="lnk39" id="link_HatchPkgAccessorFactory_V110PackageAccessor"><path codeLine="105" d="M569.23,733.1694 C552.99,768.5194 537,814.2994 537,857.5094 C537,857.5094 537,857.5094 537,1111.9594 C537,1176.6694 348.0136,1200.6867 227.3036,1209.6167" fill="none" id="HatchPkgAccessorFactory-to-V110PackageAccessor" style="stroke:#000000;stroke-width:1;stroke-dasharray:7.0,7.0;"/><polygon fill="#000000" points="221.32,1210.0594,230.5906,1213.3845,226.3064,1209.6905,230.0004,1205.4063,221.32,1210.0594" style="stroke:#000000;stroke-width:1;"/><text fill="#000000" font-family="Verdana" font-size="13" lengthAdjust="spacing" textLength="48.3247" x="538" y="1010.5263">creates</text></g><!--link HatchPkgAccessorFactory to PAC--><g class="link" data-entity-1="HatchPkgAccessorFactory" data-entity-2="PAC" data-source-line="106" data-uid="lnk40" id="link_HatchPkgAccessorFactory_PAC"><path codeLine="106" d="M793.2,733.4494 C890.32,765.1794 998.3166,800.4563 1075.8266,825.7763" fill="none" id="HatchPkgAccessorFactory-to-PAC" style="stroke:#000000;stroke-width:1;stroke-dasharray:7.0,7.0;"/><polygon fill="#000000" points="1081.53,827.6394,1074.217,821.0424,1076.7772,826.0868,1071.7328,828.647,1081.53,827.6394" style="stroke:#000000;stroke-width:1;"/><text fill="#000000" font-family="Verdana" font-size="13" lengthAdjust="spacing" textLength="78.0762" x="989.63" y="794.1363">builds chain</text></g><!--SRC=[lLRRRkCs47tdLqpzqjIDBzf70Lt0yNQn3sqHR8ky18P1InERZKmA9EsiiGZGR-cdzKiweaHTQITP5FL38f5pENCEEPhlx0xt27d6XMJcKSYSQxw73KyUjreTPBfKcTBmj1CMM_j9nesvUPMHqYdgqc2JaKVBW6kjdjfRp0gR8NpaYLNw1BVSMjGI9h1K-rn9b1QM6haLIWANAInt15l8BMDIMGHklEiDIdmGrh3nk1_CRyNZCVldhxzXF5uShDfJq0G-29Ee8-hJU1p3Ho5J0ppBGEDM67B6518Fn5JE3W8iZC7z9dD-lmZvQ5g6GFk9qXeJ2uwColCEjIaA-PLBlYKHf2syFr5T6HeuLhiv-M6ACi7AxUSl5gKH6v49w_BzXa_Uck1IBHEFrtl8XEVca3dUN0wHOeammo-GU4OpjHK9G-ArO9End2GXP33o52uBGT6Cu2i3-ZbzuOvd8kMqxwtApU8tc_N8Zw7ccdWzGLhnRPoQIK5bXxa7hVOWyGcD1Qj0POJRpcPrWkcqVfp0LsEBmC-mFdf8wv89VOf9siJUq-Cr_77AyRv6lLg5GvI4hfrWXQR6UQ_W9xWVHTDtqsXq3UvXNZv4zD24-h49vUZ55YPNvfNbUelMvuc1WlyGDsI68dbPcrXNRVThQEKef8dxfLA2en9fAFPwSn1PMc6huvYgyaw8BiPdzxTr7Zvnc-nk7xUB945ZGiUYpJElhCuhrO_tVmbM8xkaLn_SHTbyn9vgJQAMQ8EgNwkTZ-Qb2mKAeXu8-RbIvBoGizc7a-HxQfo-AvDwQAdH6V1wmeFITE7B2-wOfSkUvrhbMl2YPrVHgKjIFTJcNhxUBv-PFlGRRd3rAh49xPeEDx_oiTrRcO2O2mN-ppGFehwaU-guhcbObrIVWKuhbSxFZ0sQzkH-9rBwpAnIzIGdvxHdvyv4p_rC3sXzKjo1eUzf_M7lVrMYTr6tqTJhy_1wr5ll1RijCtUEV1FoqcuKtEsPz8bn9BThw5FKBQJpDZHjryOwho7R0HOMMWq06f0KM0lL4N2Rl-WsfBLzFDnKzRlLXyGUDFgpeJP_5bFKg2dV6OwAoUzksUfCE-Hf73X4nQzOXSbxXxpy7ytx7T0dgY12NKQJxtOHJXWwB6zDwxMgyxgCdnUjX8R6tWpZiE3DFLyERlQ2KPpU8jN2MF1ErePQR7TsCfm5sN0w7FZqrMJi-th6hwTFZUM0QdOYDyC6DPs-x-e9iV-Ud3MUly4uUeFnaYpSDzUKCoixsnSBSw8xfZ5U7Okf-w9by9esODYvqSfpqxzpZUiBdlDlzOo-qREuF5qE_mK0]--></g></svg>