<svg xmlns="http://www.w3.org/2000/svg" xmlns:xlink="http://www.w3.org/1999/xlink" contentStyleType="text/css" data-diagram-type="CLASS" height="1724px" preserveAspectRatio="none" style="width:2132px;height:1724px;background:#FFFFFF;" version="1.1" viewBox="0 0 2132 1724" width="2132px" zoomAndPan="magnify"><title>Strategy Pattern Implementation - Validation Strategies</title><defs/><g><text fill="#000000" font-family="Verdana" font-size="22" font-weight="bold" lengthAdjust="spacing" textLength="700.6484" x="711.1758" y="35.4209">Strategy Pattern Implementation - Validation Strategies</text><!--cluster Strategy Interfaces--><g class="cluster" data-entity="Strategy Interfaces" data-source-line="9" data-uid="ent0002" id="cluster_Strategy Interfaces"><path d="M771.5,542.7594 L925.7686,542.7594 A3.75,3.75 0 0 1 928.2686,545.2594 L935.2686,565.0562 L2122.5,565.0562 A2.5,2.5 0 0 1 2125,567.5562 L2125,1714.9694 A2.5,2.5 0 0 1 2122.5,1717.4694 L771.5,1717.4694 A2.5,2.5 0 0 1 769,1714.9694 L769,545.2594 A2.5,2.5 0 0 1 771.5,542.7594" fill="#FFFFFF" style="stroke:#000000;stroke-width:1;"/><line style="stroke:#000000;stroke-width:1;" x1="769" x2="935.2686" y1="565.0562" y2="565.0562"/><text fill="#000000" font-family="Verdana" font-size="14" font-weight="bold" lengthAdjust="spacing" textLength="153.2686" x="773" y="557.7545">Strategy Interfaces</text></g><!--cluster Main Strategies--><g class="cluster" data-entity="Main Strategies" data-source-line="18" data-uid="ent0004" id="cluster_Main Strategies"><rect fill="#FFFFFF" height="1075.71" rx="2.5" ry="2.5" style="stroke:#000000;stroke-width:1;" width="716" x="809" y="601.7594"/><text fill="#000000" font-family="Verdana" font-size="14" font-weight="bold" lengthAdjust="spacing" textLength="124.9814" x="1104.5093" y="616.7545">Main Strategies</text></g><!--cluster Context Classes--><g class="cluster" data-entity="Context Classes" data-source-line="83" data-uid="ent0026" id="cluster_Context Classes"><path d="M179.5,198.2694 L306.1582,198.2694 A3.75,3.75 0 0 1 308.6582,200.7694 L315.6582,220.5662 L726.5,220.5662 A2.5,2.5 0 0 1 729,223.0662 L729,767.2994 A2.5,2.5 0 0 1 726.5,769.7994 L179.5,769.7994 A2.5,2.5 0 0 1 177,767.2994 L177,200.7694 A2.5,2.5 0 0 1 179.5,198.2694" fill="#FFFFFF" style="stroke:#000000;stroke-width:1;"/><line style="stroke:#000000;stroke-width:1;" x1="177" x2="315.6582" y1="220.5662" y2="220.5662"/><text fill="#000000" font-family="Verdana" font-size="14" font-weight="bold" lengthAdjust="spacing" textLength="125.6582" x="181" y="213.2645">Context Classes</text></g><!--class ValidationStrategy--><g class="entity" data-entity="ValidationStrategy" data-source-line="10" data-uid="ent0003" id="entity_ValidationStrategy"><rect fill="#FFFFFF" height="100.8906" rx="2.5" ry="2.5" style="stroke:#000000;stroke-width:1;" width="544.0234" x="1548.99" y="824.7994"/><ellipse cx="1752.1497" cy="838.7994" fill="#FFFFFF" rx="9" ry="9" style="stroke:#000000;stroke-width:1;"/><path d="M1752.259,834.1431 L1751.1028,839.2212 L1753.4309,839.2212 L1752.259,834.1431 Z M1750.7747,831.9087 L1753.759,831.9087 L1757.1184,844.2994 L1754.6653,844.2994 L1753.8997,841.2369 L1750.6184,841.2369 L1749.8684,844.2994 L1747.4309,844.2994 L1750.7747,831.9087 Z " fill="#000000"/><text fill="#000000" font-family="Verdana" font-size="14" font-style="italic" lengthAdjust="spacing" textLength="130.2041" x="1769.6497" y="843.6461">ValidationStrategy</text><line style="stroke:#000000;stroke-width:1;" x1="1549.99" x2="2092.0134" y1="852.7994" y2="852.7994"/><text fill="#000000" font-family="Verdana" font-size="14" lengthAdjust="spacing" textLength="79.5703" x="1554.99" y="869.7945">&#171;interface&#187;</text><line style="stroke:#000000;stroke-width:1;stroke-dasharray:1.0,2.0;" x1="1549.99" x2="2092.0134" y1="877.0962" y2="877.0962"/><text fill="#000000" font-family="Verdana" font-size="14" font-style="italic" lengthAdjust="spacing" textLength="519.3125" x="1554.99" y="894.0914">Strategy Pattern: Encapsulates validation algorithms for specific concerns</text><line style="stroke:#000000;stroke-width:1;stroke-dasharray:1.0,2.0;" x1="1549.99" x2="2092.0134" y1="901.3931" y2="901.3931"/><ellipse cx="1559.99" cy="915.0416" fill="#FFFFFF" rx="3" ry="3" style="stroke:#000000;stroke-width:1;"/><text fill="#000000" font-family="Verdana" font-size="14" font-style="italic" lengthAdjust="spacing" textLength="520.0234" x="1566.99" y="918.3882">execute(metadata: Dict, context: ValidationContext): Tuple[bool, List[str]]</text></g><!--class DependencyValidationStrategy--><g class="entity" data-entity="DependencyValidationStrategy" data-source-line="19" data-uid="ent0005" id="entity_DependencyValidationStrategy"><rect fill="#FFFFFF" height="60.2969" rx="2.5" ry="2.5" style="stroke:#000000;stroke-width:1;" width="648.791" x="832.6" y="644.7594"/><ellipse cx="1044.0824" cy="658.7594" fill="#FFFFFF" rx="9" ry="9" style="stroke:#000000;stroke-width:1;"/><path d="M1044.1918,654.1031 L1043.0355,659.1812 L1045.3637,659.1812 L1044.1918,654.1031 Z M1042.7074,651.8687 L1045.6918,651.8687 L1049.0512,664.2594 L1046.598,664.2594 L1045.8324,661.1969 L1042.5512,661.1969 L1041.8012,664.2594 L1039.3637,664.2594 L1042.7074,651.8687 Z " fill="#000000"/><text fill="#000000" font-family="Verdana" font-size="14" font-style="italic" lengthAdjust="spacing" textLength="218.3262" x="1061.5824" y="663.6061">DependencyValidationStrategy</text><line style="stroke:#000000;stroke-width:1;" x1="833.6" x2="1480.391" y1="672.7594" y2="672.7594"/><line style="stroke:#000000;stroke-width:1;" x1="833.6" x2="1480.391" y1="680.7594" y2="680.7594"/><ellipse cx="843.6" cy="694.4078" fill="#FFFFFF" rx="3" ry="3" style="stroke:#000000;stroke-width:1;"/><text fill="#000000" font-family="Verdana" font-size="14" font-style="italic" lengthAdjust="spacing" textLength="624.791" x="850.6" y="697.7545">validate_dependencies(metadata: Dict, context: ValidationContext): Tuple[bool, List[str]]</text></g><!--class V120DependencyValidation--><g class="entity" data-entity="V120DependencyValidation" data-source-line="23" data-uid="ent0006" id="entity_V120DependencyValidation"><rect fill="#FFFFFF" height="60.2969" rx="2.5" ry="2.5" style="stroke:#000000;stroke-width:1;" width="244.958" x="832.52" y="845.0894"/><ellipse cx="855.5633" cy="859.0894" fill="#FFFFFF" rx="9" ry="9" style="stroke:#000000;stroke-width:1;"/><path d="M858.532,864.73 Q857.9539,865.0269 857.3133,865.1675 Q856.6726,865.3237 855.9695,865.3237 Q853.4695,865.3237 852.1414,863.6831 Q850.8289,862.0269 850.8289,858.9019 Q850.8289,855.7769 852.1414,854.1206 Q853.4695,852.4644 855.9695,852.4644 Q856.6726,852.4644 857.3133,852.6206 Q857.9695,852.7769 858.532,853.0737 L858.532,855.7925 Q857.907,855.2144 857.3133,854.9487 Q856.7195,854.6675 856.0945,854.6675 Q854.7508,854.6675 854.0633,855.7456 Q853.3758,856.8081 853.3758,858.9019 Q853.3758,860.9956 854.0633,862.0737 Q854.7508,863.1362 856.0945,863.1362 Q856.7195,863.1362 857.3133,862.8706 Q857.907,862.5894 858.532,862.0112 L858.532,864.73 Z " fill="#000000"/><text fill="#000000" font-family="Verdana" font-size="14" lengthAdjust="spacing" textLength="194.6396" x="869.7951" y="863.9361">V120DependencyValidation</text><line style="stroke:#000000;stroke-width:1;" x1="833.52" x2="1076.478" y1="873.0894" y2="873.0894"/><line style="stroke:#000000;stroke-width:1;" x1="833.52" x2="1076.478" y1="881.0894" y2="881.0894"/><ellipse cx="843.52" cy="894.7378" fill="#FFFFFF" rx="3" ry="3" style="stroke:#000000;stroke-width:1;"/><text fill="#000000" font-family="Verdana" font-size="14" lengthAdjust="spacing" textLength="220.958" x="850.52" y="898.0845">validate_dependencies(): result</text></g><!--class V110DependencyValidation--><g class="entity" data-entity="V110DependencyValidation" data-source-line="27" data-uid="ent0007" id="entity_V110DependencyValidation"><rect fill="#FFFFFF" height="60.2969" rx="2.5" ry="2.5" style="stroke:#000000;stroke-width:1;" width="244.958" x="1112.52" y="845.0894"/><ellipse cx="1135.5633" cy="859.0894" fill="#FFFFFF" rx="9" ry="9" style="stroke:#000000;stroke-width:1;"/><path d="M1138.532,864.73 Q1137.9539,865.0269 1137.3133,865.1675 Q1136.6726,865.3237 1135.9695,865.3237 Q1133.4695,865.3237 1132.1414,863.6831 Q1130.8289,862.0269 1130.8289,858.9019 Q1130.8289,855.7769 1132.1414,854.1206 Q1133.4695,852.4644 1135.9695,852.4644 Q1136.6726,852.4644 1137.3133,852.6206 Q1137.9695,852.7769 1138.532,853.0737 L1138.532,855.7925 Q1137.907,855.2144 1137.3133,854.9487 Q1136.7195,854.6675 1136.0945,854.6675 Q1134.7508,854.6675 1134.0633,855.7456 Q1133.3758,856.8081 1133.3758,858.9019 Q1133.3758,860.9956 1134.0633,862.0737 Q1134.7508,863.1362 1136.0945,863.1362 Q1136.7195,863.1362 1137.3133,862.8706 Q1137.907,862.5894 1138.532,862.0112 L1138.532,864.73 Z " fill="#000000"/><text fill="#000000" font-family="Verdana" font-size="14" lengthAdjust="spacing" textLength="194.6396" x="1149.7951" y="863.9361">V110DependencyValidation</text><line style="stroke:#000000;stroke-width:1;" x1="1113.52" x2="1356.478" y1="873.0894" y2="873.0894"/><line style="stroke:#000000;stroke-width:1;" x1="1113.52" x2="1356.478" y1="881.0894" y2="881.0894"/><ellipse cx="1123.52" cy="894.7378" fill="#FFFFFF" rx="3" ry="3" style="stroke:#000000;stroke-width:1;"/><text fill="#000000" font-family="Verdana" font-size="14" lengthAdjust="spacing" textLength="220.958" x="1130.52" y="898.0845">validate_dependencies(): result</text></g><!--class EntryPointValidationStrategy--><g class="entity" data-entity="EntryPointValidationStrategy" data-source-line="31" data-uid="ent0008" id="entity_EntryPointValidationStrategy"><rect fill="#FFFFFF" height="60.2969" rx="2.5" ry="2.5" style="stroke:#000000;stroke-width:1;" width="638.0654" x="837.97" y="986.6894"/><ellipse cx="1051.8963" cy="1000.6894" fill="#FFFFFF" rx="9" ry="9" style="stroke:#000000;stroke-width:1;"/><path d="M1052.0056,996.0331 L1050.8494,1001.1112 L1053.1775,1001.1112 L1052.0056,996.0331 Z M1050.5213,993.7987 L1053.5056,993.7987 L1056.865,1006.1894 L1054.4119,1006.1894 L1053.6463,1003.1269 L1050.365,1003.1269 L1049.615,1006.1894 L1047.1775,1006.1894 L1050.5213,993.7987 Z " fill="#000000"/><text fill="#000000" font-family="Verdana" font-size="14" font-style="italic" lengthAdjust="spacing" textLength="202.7129" x="1069.3963" y="1005.5361">EntryPointValidationStrategy</text><line style="stroke:#000000;stroke-width:1;" x1="838.97" x2="1475.0354" y1="1014.6894" y2="1014.6894"/><line style="stroke:#000000;stroke-width:1;" x1="838.97" x2="1475.0354" y1="1022.6894" y2="1022.6894"/><ellipse cx="848.97" cy="1036.3378" fill="#FFFFFF" rx="3" ry="3" style="stroke:#000000;stroke-width:1;"/><text fill="#000000" font-family="Verdana" font-size="14" font-style="italic" lengthAdjust="spacing" textLength="614.0654" x="855.97" y="1039.6845">validate_entry_points(metadata: Dict, context: ValidationContext): Tuple[bool, List[str]]</text></g><!--class V121EntryPointValidation--><g class="entity" data-entity="V121EntryPointValidation" data-source-line="35" data-uid="ent0009" id="entity_V121EntryPointValidation"><rect fill="#FFFFFF" height="60.2969" rx="2.5" ry="2.5" style="stroke:#000000;stroke-width:1;" width="234.2324" x="832.88" y="1107.9894"/><ellipse cx="858.1227" cy="1121.9894" fill="#FFFFFF" rx="9" ry="9" style="stroke:#000000;stroke-width:1;"/><path d="M861.0915,1127.63 Q860.5133,1127.9269 859.8727,1128.0675 Q859.2321,1128.2237 858.529,1128.2237 Q856.029,1128.2237 854.7008,1126.5831 Q853.3883,1124.9269 853.3883,1121.8019 Q853.3883,1118.6769 854.7008,1117.0206 Q856.029,1115.3644 858.529,1115.3644 Q859.2321,1115.3644 859.8727,1115.5206 Q860.529,1115.6769 861.0915,1115.9737 L861.0915,1118.6925 Q860.4665,1118.1144 859.8727,1117.8487 Q859.279,1117.5675 858.654,1117.5675 Q857.3102,1117.5675 856.6227,1118.6456 Q855.9352,1119.7081 855.9352,1121.8019 Q855.9352,1123.8956 856.6227,1124.9737 Q857.3102,1126.0362 858.654,1126.0362 Q859.279,1126.0362 859.8727,1125.7706 Q860.4665,1125.4894 861.0915,1124.9112 L861.0915,1127.63 Z " fill="#000000"/><text fill="#000000" font-family="Verdana" font-size="14" lengthAdjust="spacing" textLength="179.0264" x="872.8433" y="1126.8361">V121EntryPointValidation</text><line style="stroke:#000000;stroke-width:1;" x1="833.88" x2="1066.1124" y1="1135.9894" y2="1135.9894"/><line style="stroke:#000000;stroke-width:1;" x1="833.88" x2="1066.1124" y1="1143.9894" y2="1143.9894"/><ellipse cx="843.88" cy="1157.6378" fill="#FFFFFF" rx="3" ry="3" style="stroke:#000000;stroke-width:1;"/><text fill="#000000" font-family="Verdana" font-size="14" lengthAdjust="spacing" textLength="210.2324" x="850.88" y="1160.9845">validate_entry_points(): result</text></g><!--class V110EntryPointValidation--><g class="entity" data-entity="V110EntryPointValidation" data-source-line="39" data-uid="ent0010" id="entity_V110EntryPointValidation"><rect fill="#FFFFFF" height="60.2969" rx="2.5" ry="2.5" style="stroke:#000000;stroke-width:1;" width="234.2324" x="1101.88" y="1107.9894"/><ellipse cx="1127.1227" cy="1121.9894" fill="#FFFFFF" rx="9" ry="9" style="stroke:#000000;stroke-width:1;"/><path d="M1130.0915,1127.63 Q1129.5133,1127.9269 1128.8727,1128.0675 Q1128.2321,1128.2237 1127.529,1128.2237 Q1125.029,1128.2237 1123.7008,1126.5831 Q1122.3883,1124.9269 1122.3883,1121.8019 Q1122.3883,1118.6769 1123.7008,1117.0206 Q1125.029,1115.3644 1127.529,1115.3644 Q1128.2321,1115.3644 1128.8727,1115.5206 Q1129.529,1115.6769 1130.0915,1115.9737 L1130.0915,1118.6925 Q1129.4665,1118.1144 1128.8727,1117.8487 Q1128.279,1117.5675 1127.654,1117.5675 Q1126.3102,1117.5675 1125.6227,1118.6456 Q1124.9352,1119.7081 1124.9352,1121.8019 Q1124.9352,1123.8956 1125.6227,1124.9737 Q1126.3102,1126.0362 1127.654,1126.0362 Q1128.279,1126.0362 1128.8727,1125.7706 Q1129.4665,1125.4894 1130.0915,1124.9112 L1130.0915,1127.63 Z " fill="#000000"/><text fill="#000000" font-family="Verdana" font-size="14" lengthAdjust="spacing" textLength="179.0264" x="1141.8433" y="1126.8361">V110EntryPointValidation</text><line style="stroke:#000000;stroke-width:1;" x1="1102.88" x2="1335.1124" y1="1135.9894" y2="1135.9894"/><line style="stroke:#000000;stroke-width:1;" x1="1102.88" x2="1335.1124" y1="1143.9894" y2="1143.9894"/><ellipse cx="1112.88" cy="1157.6378" fill="#FFFFFF" rx="3" ry="3" style="stroke:#000000;stroke-width:1;"/><text fill="#000000" font-family="Verdana" font-size="14" lengthAdjust="spacing" textLength="210.2324" x="1119.88" y="1160.9845">validate_entry_points(): result</text></g><!--class ToolsValidationStrategy--><g class="entity" data-entity="ToolsValidationStrategy" data-source-line="43" data-uid="ent0011" id="entity_ToolsValidationStrategy"><rect fill="#FFFFFF" height="60.2969" rx="2.5" ry="2.5" style="stroke:#000000;stroke-width:1;" width="584.8545" x="846.57" y="1229.2794"/><ellipse cx="1051.7121" cy="1243.2794" fill="#FFFFFF" rx="9" ry="9" style="stroke:#000000;stroke-width:1;"/><path d="M1051.8215,1238.6231 L1050.6652,1243.7012 L1052.9933,1243.7012 L1051.8215,1238.6231 Z M1050.3371,1236.3887 L1053.3215,1236.3887 L1056.6808,1248.7794 L1054.2277,1248.7794 L1053.4621,1245.7169 L1050.1808,1245.7169 L1049.4308,1248.7794 L1046.9933,1248.7794 L1050.3371,1236.3887 Z " fill="#000000"/><text fill="#000000" font-family="Verdana" font-size="14" font-style="italic" lengthAdjust="spacing" textLength="167.0703" x="1069.2121" y="1248.1261">ToolsValidationStrategy</text><line style="stroke:#000000;stroke-width:1;" x1="847.57" x2="1430.4245" y1="1257.2794" y2="1257.2794"/><line style="stroke:#000000;stroke-width:1;" x1="847.57" x2="1430.4245" y1="1265.2794" y2="1265.2794"/><ellipse cx="857.57" cy="1278.9278" fill="#FFFFFF" rx="3" ry="3" style="stroke:#000000;stroke-width:1;"/><text fill="#000000" font-family="Verdana" font-size="14" font-style="italic" lengthAdjust="spacing" textLength="560.8545" x="864.57" y="1282.2745">validate_tools(metadata: Dict, context: ValidationContext): Tuple[bool, List[str]]</text></g><!--class V121ToolsValidation--><g class="entity" data-entity="V121ToolsValidation" data-source-line="47" data-uid="ent0012" id="entity_V121ToolsValidation"><rect fill="#FFFFFF" height="60.2969" rx="2.5" ry="2.5" style="stroke:#000000;stroke-width:1;" width="181.0215" x="852.49" y="1350.5794"/><ellipse cx="869.827" cy="1364.5794" fill="#FFFFFF" rx="9" ry="9" style="stroke:#000000;stroke-width:1;"/><path d="M872.7957,1370.22 Q872.2176,1370.5169 871.577,1370.6575 Q870.9363,1370.8138 870.2332,1370.8138 Q867.7332,1370.8138 866.4051,1369.1731 Q865.0926,1367.5169 865.0926,1364.3919 Q865.0926,1361.2669 866.4051,1359.6106 Q867.7332,1357.9544 870.2332,1357.9544 Q870.9363,1357.9544 871.577,1358.1106 Q872.2332,1358.2669 872.7957,1358.5638 L872.7957,1361.2825 Q872.1707,1360.7044 871.577,1360.4388 Q870.9832,1360.1575 870.3582,1360.1575 Q869.0145,1360.1575 868.327,1361.2356 Q867.6395,1362.2981 867.6395,1364.3919 Q867.6395,1366.4856 868.327,1367.5638 Q869.0145,1368.6263 870.3582,1368.6263 Q870.9832,1368.6263 871.577,1368.3606 Q872.1707,1368.0794 872.7957,1367.5013 L872.7957,1370.22 Z " fill="#000000"/><text fill="#000000" font-family="Verdana" font-size="14" lengthAdjust="spacing" textLength="143.3838" x="882.7907" y="1369.4261">V121ToolsValidation</text><line style="stroke:#000000;stroke-width:1;" x1="853.49" x2="1032.5115" y1="1378.5794" y2="1378.5794"/><line style="stroke:#000000;stroke-width:1;" x1="853.49" x2="1032.5115" y1="1386.5794" y2="1386.5794"/><ellipse cx="863.49" cy="1400.2278" fill="#FFFFFF" rx="3" ry="3" style="stroke:#000000;stroke-width:1;"/><text fill="#000000" font-family="Verdana" font-size="14" lengthAdjust="spacing" textLength="157.0215" x="870.49" y="1403.5745">validate_tools(): result</text></g><!--class V110ToolsValidation--><g class="entity" data-entity="V110ToolsValidation" data-source-line="51" data-uid="ent0013" id="entity_V110ToolsValidation"><rect fill="#FFFFFF" height="60.2969" rx="2.5" ry="2.5" style="stroke:#000000;stroke-width:1;" width="181.0215" x="1068.49" y="1350.5794"/><ellipse cx="1085.827" cy="1364.5794" fill="#FFFFFF" rx="9" ry="9" style="stroke:#000000;stroke-width:1;"/><path d="M1088.7957,1370.22 Q1088.2176,1370.5169 1087.577,1370.6575 Q1086.9363,1370.8138 1086.2332,1370.8138 Q1083.7332,1370.8138 1082.4051,1369.1731 Q1081.0926,1367.5169 1081.0926,1364.3919 Q1081.0926,1361.2669 1082.4051,1359.6106 Q1083.7332,1357.9544 1086.2332,1357.9544 Q1086.9363,1357.9544 1087.577,1358.1106 Q1088.2332,1358.2669 1088.7957,1358.5638 L1088.7957,1361.2825 Q1088.1707,1360.7044 1087.577,1360.4388 Q1086.9832,1360.1575 1086.3582,1360.1575 Q1085.0145,1360.1575 1084.327,1361.2356 Q1083.6395,1362.2981 1083.6395,1364.3919 Q1083.6395,1366.4856 1084.327,1367.5638 Q1085.0145,1368.6263 1086.3582,1368.6263 Q1086.9832,1368.6263 1087.577,1368.3606 Q1088.1707,1368.0794 1088.7957,1367.5013 L1088.7957,1370.22 Z " fill="#000000"/><text fill="#000000" font-family="Verdana" font-size="14" lengthAdjust="spacing" textLength="143.3838" x="1098.7907" y="1369.4261">V110ToolsValidation</text><line style="stroke:#000000;stroke-width:1;" x1="1069.49" x2="1248.5115" y1="1378.5794" y2="1378.5794"/><line style="stroke:#000000;stroke-width:1;" x1="1069.49" x2="1248.5115" y1="1386.5794" y2="1386.5794"/><ellipse cx="1079.49" cy="1400.2278" fill="#FFFFFF" rx="3" ry="3" style="stroke:#000000;stroke-width:1;"/><text fill="#000000" font-family="Verdana" font-size="14" lengthAdjust="spacing" textLength="157.0215" x="1086.49" y="1403.5745">validate_tools(): result</text></g><!--class SchemaValidationStrategy--><g class="entity" data-entity="SchemaValidationStrategy" data-source-line="55" data-uid="ent0014" id="entity_SchemaValidationStrategy"><rect fill="#FFFFFF" height="60.2969" rx="2.5" ry="2.5" style="stroke:#000000;stroke-width:1;" width="605.7451" x="856.13" y="1471.8794"/><ellipse cx="1062.007" cy="1485.8794" fill="#FFFFFF" rx="9" ry="9" style="stroke:#000000;stroke-width:1;"/><path d="M1062.1163,1481.2231 L1060.9601,1486.3013 L1063.2882,1486.3013 L1062.1163,1481.2231 Z M1060.632,1478.9888 L1063.6163,1478.9888 L1066.9757,1491.3794 L1064.5226,1491.3794 L1063.757,1488.3169 L1060.4757,1488.3169 L1059.7257,1491.3794 L1057.2882,1491.3794 L1060.632,1478.9888 Z " fill="#000000"/><text fill="#000000" font-family="Verdana" font-size="14" font-style="italic" lengthAdjust="spacing" textLength="186.4912" x="1079.507" y="1490.7261">SchemaValidationStrategy</text><line style="stroke:#000000;stroke-width:1;" x1="857.13" x2="1460.8751" y1="1499.8794" y2="1499.8794"/><line style="stroke:#000000;stroke-width:1;" x1="857.13" x2="1460.8751" y1="1507.8794" y2="1507.8794"/><ellipse cx="867.13" cy="1521.5278" fill="#FFFFFF" rx="3" ry="3" style="stroke:#000000;stroke-width:1;"/><text fill="#000000" font-family="Verdana" font-size="14" font-style="italic" lengthAdjust="spacing" textLength="581.7451" x="874.13" y="1524.8745">validate_schema(metadata: Dict, context: ValidationContext): Tuple[bool, List[str]]</text></g><!--class V110SchemaValidation--><g class="entity" data-entity="V110SchemaValidation" data-source-line="59" data-uid="ent0015" id="entity_V110SchemaValidation"><rect fill="#FFFFFF" height="60.2969" rx="2.5" ry="2.5" style="stroke:#000000;stroke-width:1;" width="201.9121" x="1058.04" y="1593.1694"/><ellipse cx="1076.0383" cy="1607.1694" fill="#FFFFFF" rx="9" ry="9" style="stroke:#000000;stroke-width:1;"/><path d="M1079.0071,1612.81 Q1078.429,1613.1069 1077.7883,1613.2475 Q1077.1477,1613.4038 1076.4446,1613.4038 Q1073.9446,1613.4038 1072.6165,1611.7631 Q1071.304,1610.1069 1071.304,1606.9819 Q1071.304,1603.8569 1072.6165,1602.2006 Q1073.9446,1600.5444 1076.4446,1600.5444 Q1077.1477,1600.5444 1077.7883,1600.7006 Q1078.4446,1600.8569 1079.0071,1601.1538 L1079.0071,1603.8725 Q1078.3821,1603.2944 1077.7883,1603.0288 Q1077.1946,1602.7475 1076.5696,1602.7475 Q1075.2258,1602.7475 1074.5383,1603.8256 Q1073.8508,1604.8881 1073.8508,1606.9819 Q1073.8508,1609.0756 1074.5383,1610.1538 Q1075.2258,1611.2163 1076.5696,1611.2163 Q1077.1946,1611.2163 1077.7883,1610.9506 Q1078.3821,1610.6694 1079.0071,1610.0913 L1079.0071,1612.81 Z " fill="#000000"/><text fill="#000000" font-family="Verdana" font-size="14" lengthAdjust="spacing" textLength="162.8047" x="1089.1491" y="1612.0161">V110SchemaValidation</text><line style="stroke:#000000;stroke-width:1;" x1="1059.04" x2="1258.9521" y1="1621.1694" y2="1621.1694"/><line style="stroke:#000000;stroke-width:1;" x1="1059.04" x2="1258.9521" y1="1629.1694" y2="1629.1694"/><ellipse cx="1069.04" cy="1642.8178" fill="#FFFFFF" rx="3" ry="3" style="stroke:#000000;stroke-width:1;"/><text fill="#000000" font-family="Verdana" font-size="14" lengthAdjust="spacing" textLength="177.9121" x="1076.04" y="1646.1645">validate_schema(): result</text></g><!--class V121Validator--><g class="entity" data-entity="V121Validator" data-source-line="84" data-uid="ent0027" id="entity_V121Validator"><rect fill="#FFFFFF" height="92.8906" rx="2.5" ry="2.5" style="stroke:#000000;stroke-width:1;" width="380.9932" x="200.5" y="241.2694"/><ellipse cx="337.4912" cy="255.2694" fill="#FFFFFF" rx="9" ry="9" style="stroke:#000000;stroke-width:1;"/><path d="M340.46,260.91 Q339.8818,261.2069 339.2412,261.3475 Q338.6006,261.5037 337.8975,261.5037 Q335.3975,261.5037 334.0693,259.8631 Q332.7568,258.2069 332.7568,255.0819 Q332.7568,251.9569 334.0693,250.3006 Q335.3975,248.6444 337.8975,248.6444 Q338.6006,248.6444 339.2412,248.8006 Q339.8975,248.9569 340.46,249.2537 L340.46,251.9725 Q339.835,251.3944 339.2412,251.1287 Q338.6475,250.8475 338.0225,250.8475 Q336.6787,250.8475 335.9912,251.9256 Q335.3037,252.9881 335.3037,255.0819 Q335.3037,257.1756 335.9912,258.2537 Q336.6787,259.3162 338.0225,259.3162 Q338.6475,259.3162 339.2412,259.0506 Q339.835,258.7694 340.46,258.1912 L340.46,260.91 Z " fill="#000000"/><text fill="#000000" font-family="Verdana" font-size="14" lengthAdjust="spacing" textLength="99.5107" x="354.9912" y="260.1161">V121Validator</text><line style="stroke:#000000;stroke-width:1;" x1="201.5" x2="580.4932" y1="269.2694" y2="269.2694"/><rect fill="none" height="6" style="stroke:#000000;stroke-width:1;" width="6" x="208.5" y="279.9178"/><text fill="#000000" font-family="Verdana" font-size="14" lengthAdjust="spacing" textLength="356.9932" x="218.5" y="286.2645">entry_point_strategy: EntryPointValidationStrategy</text><rect fill="none" height="6" style="stroke:#000000;stroke-width:1;" width="6" x="208.5" y="296.2147"/><text fill="#000000" font-family="Verdana" font-size="14" lengthAdjust="spacing" textLength="275.4336" x="218.5" y="302.5614">tools_strategy: ToolsValidationStrategy</text><line style="stroke:#000000;stroke-width:1;" x1="201.5" x2="580.4932" y1="309.8631" y2="309.8631"/><ellipse cx="211.5" cy="323.5116" fill="#FFFFFF" rx="3" ry="3" style="stroke:#000000;stroke-width:1;"/><text fill="#000000" font-family="Verdana" font-size="14" lengthAdjust="spacing" textLength="245.9844" x="218.5" y="326.8582">validate(metadata, context): result</text></g><!--class V120Validator--><g class="entity" data-entity="V120Validator" data-source-line="90" data-uid="ent0028" id="entity_V120Validator"><rect fill="#FFFFFF" height="76.5938" rx="2.5" ry="2.5" style="stroke:#000000;stroke-width:1;" width="403.1143" x="247.44" y="395.1694"/><ellipse cx="395.4918" cy="409.1694" fill="#FFFFFF" rx="9" ry="9" style="stroke:#000000;stroke-width:1;"/><path d="M398.4605,414.81 Q397.8824,415.1069 397.2418,415.2475 Q396.6011,415.4037 395.898,415.4037 Q393.398,415.4037 392.0699,413.7631 Q390.7574,412.1069 390.7574,408.9819 Q390.7574,405.8569 392.0699,404.2006 Q393.398,402.5444 395.898,402.5444 Q396.6011,402.5444 397.2418,402.7006 Q397.898,402.8569 398.4605,403.1537 L398.4605,405.8725 Q397.8355,405.2944 397.2418,405.0287 Q396.648,404.7475 396.023,404.7475 Q394.6793,404.7475 393.9918,405.8256 Q393.3043,406.8881 393.3043,408.9819 Q393.3043,411.0756 393.9918,412.1537 Q394.6793,413.2162 396.023,413.2162 Q396.648,413.2162 397.2418,412.9506 Q397.8355,412.6694 398.4605,412.0912 L398.4605,414.81 Z " fill="#000000"/><text fill="#000000" font-family="Verdana" font-size="14" lengthAdjust="spacing" textLength="99.5107" x="412.9918" y="414.0161">V120Validator</text><line style="stroke:#000000;stroke-width:1;" x1="248.44" x2="649.5543" y1="423.1694" y2="423.1694"/><rect fill="none" height="6" style="stroke:#000000;stroke-width:1;" width="6" x="255.44" y="433.8178"/><text fill="#000000" font-family="Verdana" font-size="14" lengthAdjust="spacing" textLength="379.1143" x="265.44" y="440.1645">dependency_strategy: DependencyValidationStrategy</text><line style="stroke:#000000;stroke-width:1;" x1="248.44" x2="649.5543" y1="447.4662" y2="447.4662"/><ellipse cx="258.44" cy="461.1147" fill="#FFFFFF" rx="3" ry="3" style="stroke:#000000;stroke-width:1;"/><text fill="#000000" font-family="Verdana" font-size="14" lengthAdjust="spacing" textLength="245.9844" x="265.44" y="464.4614">validate(metadata, context): result</text></g><!--class V110Validator--><g class="entity" data-entity="V110Validator" data-source-line="95" data-uid="ent0029" id="entity_V110Validator"><rect fill="#FFFFFF" height="141.7813" rx="2.5" ry="2.5" style="stroke:#000000;stroke-width:1;" width="496.9072" x="200.55" y="604.0194"/><ellipse cx="395.4982" cy="618.0194" fill="#FFFFFF" rx="9" ry="9" style="stroke:#000000;stroke-width:1;"/><path d="M398.467,623.66 Q397.8889,623.9569 397.2482,624.0975 Q396.6076,624.2537 395.9045,624.2537 Q393.4045,624.2537 392.0764,622.6131 Q390.7639,620.9569 390.7639,617.8319 Q390.7639,614.7069 392.0764,613.0506 Q393.4045,611.3944 395.9045,611.3944 Q396.6076,611.3944 397.2482,611.5506 Q397.9045,611.7069 398.467,612.0037 L398.467,614.7225 Q397.842,614.1444 397.2482,613.8787 Q396.6545,613.5975 396.0295,613.5975 Q394.6857,613.5975 393.9982,614.6756 Q393.3107,615.7381 393.3107,617.8319 Q393.3107,619.9256 393.9982,621.0037 Q394.6857,622.0662 396.0295,622.0662 Q396.6545,622.0662 397.2482,621.8006 Q397.842,621.5194 398.467,620.9412 L398.467,623.66 Z " fill="#000000"/><text fill="#000000" font-family="Verdana" font-size="14" lengthAdjust="spacing" textLength="99.5107" x="412.9982" y="622.8661">V110Validator</text><line style="stroke:#000000;stroke-width:1;" x1="201.55" x2="696.4572" y1="632.0194" y2="632.0194"/><text fill="#000000" font-family="Verdana" font-size="14" font-style="italic" lengthAdjust="spacing" textLength="484.9072" x="206.55" y="649.0145">Terminal Validator: Implements all strategies. No delegation needed.</text><line style="stroke:#000000;stroke-width:1;stroke-dasharray:1.0,2.0;" x1="201.55" x2="696.4572" y1="656.3162" y2="656.3162"/><rect fill="none" height="6" style="stroke:#000000;stroke-width:1;" width="6" x="208.55" y="666.9647"/><text fill="#000000" font-family="Verdana" font-size="14" lengthAdjust="spacing" textLength="315.7451" x="218.55" y="673.3114">schema_strategy: SchemaValidationStrategy</text><rect fill="none" height="6" style="stroke:#000000;stroke-width:1;" width="6" x="208.55" y="683.2616"/><text fill="#000000" font-family="Verdana" font-size="14" lengthAdjust="spacing" textLength="379.1143" x="218.55" y="689.6082">dependency_strategy: DependencyValidationStrategy</text><rect fill="none" height="6" style="stroke:#000000;stroke-width:1;" width="6" x="208.55" y="699.5584"/><text fill="#000000" font-family="Verdana" font-size="14" lengthAdjust="spacing" textLength="356.9932" x="218.55" y="705.9051">entry_point_strategy: EntryPointValidationStrategy</text><rect fill="none" height="6" style="stroke:#000000;stroke-width:1;" width="6" x="208.55" y="715.8553"/><text fill="#000000" font-family="Verdana" font-size="14" lengthAdjust="spacing" textLength="275.4336" x="218.55" y="722.202">tools_strategy: ToolsValidationStrategy</text><ellipse cx="211.55" cy="735.1522" fill="#FFFFFF" rx="3" ry="3" style="stroke:#000000;stroke-width:1;"/><text fill="#000000" font-family="Verdana" font-size="14" lengthAdjust="spacing" textLength="245.9844" x="218.55" y="738.4989">validate(metadata, context): result</text></g><g class="entity" data-entity="GMN52" data-source-line="135" data-uid="ent0053" id="entity_GMN52"><path d="M289.33,72.7394 L289.33,128.1378 A0,0 0 0 0 289.33,128.1378 L387,128.1378 L391,241.0994 L395,128.1378 L492.6664,128.1378 A0,0 0 0 0 492.6664,128.1378 L492.6664,82.7394 L482.6664,72.7394 L289.33,72.7394 A0,0 0 0 0 289.33,72.7394" fill="#FFFFFF" style="stroke:#000000;stroke-width:1;"/><path d="M482.6664,72.7394 L482.6664,82.7394 L492.6664,82.7394 L482.6664,72.7394" fill="#FFFFFF" style="stroke:#000000;stroke-width:1;"/><text fill="#000000" font-family="Verdana" font-size="13" font-weight="bold" lengthAdjust="spacing" textLength="159.4023" x="295.33" y="89.8063">Strategy Composition</text><text fill="#000000" font-family="Verdana" font-size="13" lengthAdjust="spacing" textLength="182.3364" x="295.33" y="104.9391">Uses strategies for changed</text><text fill="#000000" font-family="Verdana" font-size="13" lengthAdjust="spacing" textLength="158.6089" x="295.33" y="120.0719">validation concerns only</text></g><g class="entity" data-entity="StrategyBenefits" data-source-line="138" data-uid="ent0055" id="entity_StrategyBenefits"><path d="M527.58,57.6094 L527.58,143.2734 L918.4198,143.2734 L918.4198,67.6094 L908.4198,57.6094 L527.58,57.6094" fill="#FFFFFF" style="stroke:#000000;stroke-width:1;"/><path d="M908.4198,57.6094 L908.4198,67.6094 L918.4198,67.6094 L908.4198,57.6094" fill="#FFFFFF" style="stroke:#000000;stroke-width:1;"/><text fill="#000000" font-family="Verdana" font-size="13" font-weight="bold" lengthAdjust="spacing" textLength="193.8955" x="533.58" y="74.6763">Strategy Pattern Benefits:</text><text fill="#000000" font-family="Verdana" font-size="13" lengthAdjust="spacing" textLength="7.668" x="533.58" y="89.8091">&#8226;</text><text fill="#000000" font-family="Verdana" font-size="13" font-weight="bold" lengthAdjust="spacing" textLength="102.9971" x="545.3803" y="89.8091">Encapsulation</text><text fill="#000000" font-family="Verdana" font-size="13" lengthAdjust="spacing" textLength="176.8647" x="648.3774" y="89.8091">: Each algorithm is isolated</text><text fill="#000000" font-family="Verdana" font-size="13" lengthAdjust="spacing" textLength="7.668" x="533.58" y="104.9419">&#8226;</text><text fill="#000000" font-family="Verdana" font-size="13" font-weight="bold" lengthAdjust="spacing" textLength="72.3569" x="545.3803" y="104.9419">Flexibility</text><text fill="#000000" font-family="Verdana" font-size="13" lengthAdjust="spacing" textLength="208.0063" x="617.7372" y="104.9419">: Easy to swap implementations</text><text fill="#000000" font-family="Verdana" font-size="13" lengthAdjust="spacing" textLength="7.668" x="533.58" y="120.0747">&#8226;</text><text fill="#000000" font-family="Verdana" font-size="13" font-weight="bold" lengthAdjust="spacing" textLength="77.7715" x="545.3803" y="120.0747">Testability</text><text fill="#000000" font-family="Verdana" font-size="13" lengthAdjust="spacing" textLength="265.7319" x="623.1518" y="120.0747">: Strategies can be tested independently</text><text fill="#000000" font-family="Verdana" font-size="13" lengthAdjust="spacing" textLength="7.668" x="533.58" y="135.2075">&#8226;</text><text fill="#000000" font-family="Verdana" font-size="13" font-weight="bold" lengthAdjust="spacing" textLength="81.9546" x="545.3803" y="135.2075">Reusability</text><text fill="#000000" font-family="Verdana" font-size="13" lengthAdjust="spacing" textLength="276.085" x="627.3349" y="135.2075">: Strategies can be shared across versions</text></g><!--link Main Strategies to ValidationStrategy--><!--link DependencyValidationStrategy to V120DependencyValidation--><!--reverse link DependencyValidationStrategy to V120DependencyValidation--><g class="link" data-entity-1="DependencyValidationStrategy" data-entity-2="V120DependencyValidation" data-source-line="118" data-uid="lnk38" id="link_DependencyValidationStrategy_V120DependencyValidation"><path codeLine="118" d="M1124.8302,718.586 C1091.2902,756.086 1037.47,807.2994 994.58,844.8594" fill="none" id="DependencyValidationStrategy-backto-V120DependencyValidation" style="stroke:#000000;stroke-width:1;stroke-dasharray:7.0,7.0;"/><polygon fill="none" points="1136.83,705.1694,1120.358,714.586,1129.3024,722.5859,1136.83,705.1694" style="stroke:#000000;stroke-width:1;"/></g><!--link DependencyValidationStrategy to V110DependencyValidation--><!--reverse link DependencyValidationStrategy to V110DependencyValidation--><g class="link" data-entity-1="DependencyValidationStrategy" data-entity-2="V110DependencyValidation" data-source-line="119" data-uid="lnk39" id="link_DependencyValidationStrategy_V110DependencyValidation"><path codeLine="119" d="M1189.5965,721.4857 C1201.6465,745.6357 1206.44,764.5394 1218.5,794.7994 C1225.17,811.5194 1233.06,830.0194 1237.75,844.9594" fill="none" id="DependencyValidationStrategy-backto-V110DependencyValidation" style="stroke:#000000;stroke-width:1;stroke-dasharray:7.0,7.0;"/><polygon fill="none" points="1181.56,705.3794,1184.2277,724.1646,1194.9653,718.8069,1181.56,705.3794" style="stroke:#000000;stroke-width:1;"/></g><!--link V110DependencyValidation to EntryPointValidationStrategy--><!--link EntryPointValidationStrategy to V121EntryPointValidation--><!--reverse link EntryPointValidationStrategy to V121EntryPointValidation--><g class="link" data-entity-1="EntryPointValidationStrategy" data-entity-2="V121EntryPointValidation" data-source-line="120" data-uid="lnk40" id="link_EntryPointValidationStrategy_V121EntryPointValidation"><path codeLine="120" d="M1102.0198,1056.7951 C1072.3398,1075.1451 1046.83,1089.1994 1012.81,1107.5694" fill="none" id="EntryPointValidationStrategy-backto-V121EntryPointValidation" style="stroke:#000000;stroke-width:1;stroke-dasharray:7.0,7.0;"/><polygon fill="none" points="1117.33,1047.3294,1098.8646,1051.6917,1105.1751,1061.8984,1117.33,1047.3294" style="stroke:#000000;stroke-width:1;"/></g><!--link EntryPointValidationStrategy to V110EntryPointValidation--><!--reverse link EntryPointValidationStrategy to V110EntryPointValidation--><g class="link" data-entity-1="EntryPointValidationStrategy" data-entity-2="V110EntryPointValidation" data-source-line="121" data-uid="lnk41" id="link_EntryPointValidationStrategy_V110EntryPointValidation"><path codeLine="121" d="M1193.5071,1062.5068 C1205.2071,1080.8568 1207.76,1089.1994 1215.15,1107.5694" fill="none" id="EntryPointValidationStrategy-backto-V110EntryPointValidation" style="stroke:#000000;stroke-width:1;stroke-dasharray:7.0,7.0;"/><polygon fill="none" points="1183.83,1047.3294,1188.448,1065.7325,1198.5663,1059.281,1183.83,1047.3294" style="stroke:#000000;stroke-width:1;"/></g><!--link V110EntryPointValidation to ToolsValidationStrategy--><!--link ToolsValidationStrategy to V121ToolsValidation--><!--reverse link ToolsValidationStrategy to V121ToolsValidation--><g class="link" data-entity-1="ToolsValidationStrategy" data-entity-2="V121ToolsValidation" data-source-line="122" data-uid="lnk42" id="link_ToolsValidationStrategy_V121ToolsValidation"><path codeLine="122" d="M1086.9966,1299.7883 C1059.0066,1318.1383 1035.41,1331.7994 1003.08,1350.1594" fill="none" id="ToolsValidationStrategy-backto-V121ToolsValidation" style="stroke:#000000;stroke-width:1;stroke-dasharray:7.0,7.0;"/><polygon fill="none" points="1102.05,1289.9194,1083.707,1294.7705,1090.2862,1304.8061,1102.05,1289.9194" style="stroke:#000000;stroke-width:1;"/></g><!--link ToolsValidationStrategy to V110ToolsValidation--><!--reverse link ToolsValidationStrategy to V110ToolsValidation--><g class="link" data-entity-1="ToolsValidationStrategy" data-entity-2="V110ToolsValidation" data-source-line="123" data-uid="lnk43" id="link_ToolsValidationStrategy_V110ToolsValidation"><path codeLine="123" d="M1160.3838,1307.23 C1165.6138,1325.58 1164.63,1331.7994 1165.56,1350.1594" fill="none" id="ToolsValidationStrategy-backto-V110ToolsValidation" style="stroke:#000000;stroke-width:1;stroke-dasharray:7.0,7.0;"/><polygon fill="none" points="1155.45,1289.9194,1154.6136,1308.8746,1166.154,1305.5854,1155.45,1289.9194" style="stroke:#000000;stroke-width:1;"/></g><!--link V110ToolsValidation to SchemaValidationStrategy--><!--link V121Validator to V120Validator--><!--link V120Validator to V110Validator--><!--link Strategy Interfaces to Context Classes--><!--reverse link ValidationStrategy to DependencyValidationStrategy--><g class="link" data-entity-1="ValidationStrategy" data-entity-2="DependencyValidationStrategy" data-source-line="112" data-uid="lnk34" id="link_ValidationStrategy_DependencyValidationStrategy"><path codeLine="112" d="M1605.3428,819.75 C1559.9228,807.69 1529.36,799.0494 1485,785.7994 C1401.13,760.7394 1306.44,728.5894 1240.44,705.5494" fill="none" id="ValidationStrategy-backto-DependencyValidationStrategy" style="stroke:#000000;stroke-width:1;"/><polygon fill="none" points="1622.74,824.3694,1606.8826,813.951,1603.803,825.5491,1622.74,824.3694" style="stroke:#000000;stroke-width:1;"/></g><!--reverse link ValidationStrategy to EntryPointValidationStrategy--><g class="link" data-entity-1="ValidationStrategy" data-entity-2="EntryPointValidationStrategy" data-source-line="113" data-uid="lnk35" id="link_ValidationStrategy_EntryPointValidationStrategy"><path codeLine="113" d="M1566.005,929.8521 C1470.335,949.9621 1380.83,968.7794 1297.86,986.2194" fill="none" id="ValidationStrategy-backto-EntryPointValidationStrategy" style="stroke:#000000;stroke-width:1;"/><polygon fill="none" points="1583.62,926.1494,1564.7707,923.9804,1567.2392,935.7238,1583.62,926.1494" style="stroke:#000000;stroke-width:1;"/></g><!--reverse link ValidationStrategy to ToolsValidationStrategy--><g class="link" data-entity-1="ValidationStrategy" data-entity-2="ToolsValidationStrategy" data-source-line="114" data-uid="lnk36" id="link_ValidationStrategy_ToolsValidationStrategy"><path codeLine="114" d="M1734.6786,936.1951 C1644.8586,997.5751 1499.62,1092.8494 1354,1168.2794 C1310.15,1190.9894 1259.27,1212.5294 1218.01,1228.8594" fill="none" id="ValidationStrategy-backto-ToolsValidationStrategy" style="stroke:#000000;stroke-width:1;"/><polygon fill="none" points="1749.54,926.0394,1731.2934,931.2414,1738.0639,941.1489,1749.54,926.0394" style="stroke:#000000;stroke-width:1;"/></g><!--reverse link ValidationStrategy to SchemaValidationStrategy--><g class="link" data-entity-1="ValidationStrategy" data-entity-2="SchemaValidationStrategy" data-source-line="115" data-uid="lnk37" id="link_ValidationStrategy_SchemaValidationStrategy"><path codeLine="115" d="M1773.794,941.484 C1758.144,966.944 1753,983.8894 1753,1015.8394 C1753,1015.8394 1753,1015.8394 1753,1381.7294 C1753,1448.1294 1608.53,1478.0494 1462.09,1491.3194" fill="none" id="ValidationStrategy-backto-SchemaValidationStrategy" style="stroke:#000000;stroke-width:1;"/><polygon fill="none" points="1783.22,926.1494,1768.6824,938.342,1778.9055,944.626,1783.22,926.1494" style="stroke:#000000;stroke-width:1;"/></g><!--reverse link SchemaValidationStrategy to V110SchemaValidation--><g class="link" data-entity-1="SchemaValidationStrategy" data-entity-2="V110SchemaValidation" data-source-line="124" data-uid="lnk44" id="link_SchemaValidationStrategy_V110SchemaValidation"><path codeLine="124" d="M1159,1550.5094 C1159,1568.8694 1159,1574.3894 1159,1592.7594" fill="none" id="SchemaValidationStrategy-backto-V110SchemaValidation" style="stroke:#000000;stroke-width:1;stroke-dasharray:7.0,7.0;"/><polygon fill="none" points="1159,1532.5094,1153,1550.5094,1165,1550.5094,1159,1532.5094" style="stroke:#000000;stroke-width:1;"/></g><!--link V121Validator to EntryPointValidationStrategy--><g class="link" data-entity-1="V121Validator" data-entity-2="EntryPointValidationStrategy" data-source-line="127" data-uid="lnk45" id="link_V121Validator_EntryPointValidationStrategy"><path codeLine="127" d="M300.84,334.5394 C233.71,374.6594 148.32,440.0794 116,526.7594 C75.77,634.6294 47.04,693.5994 116,785.7994 C201.78,900.4794 558.2749,959.9233 831.5749,989.5233" fill="none" id="V121Validator-to-EntryPointValidationStrategy" style="stroke:#000000;stroke-width:1;"/><polygon fill="#000000" points="837.54,990.1694,829.023,985.2235,832.5691,989.631,828.1616,993.177,837.54,990.1694" style="stroke:#000000;stroke-width:1;"/><text fill="#000000" font-family="Verdana" font-size="13" lengthAdjust="spacing" textLength="65.5142" x="117" y="679.4763">composes</text></g><!--link V121Validator to ToolsValidationStrategy--><g class="link" data-entity-1="V121Validator" data-entity-2="ToolsValidationStrategy" data-source-line="128" data-uid="lnk46" id="link_V121Validator_ToolsValidationStrategy"><path codeLine="128" d="M200.17,326.9494 C105.44,351.5994 11,387.4494 11,432.4594 C11,432.4594 11,432.4594 11,1139.1294 C11,1223.1294 506.0914,1248.0276 840.3114,1255.3676" fill="none" id="V121Validator-to-ToolsValidationStrategy" style="stroke:#000000;stroke-width:1;"/><polygon fill="#000000" points="846.31,1255.4994,837.4,1251.3027,841.3112,1255.3896,837.2243,1259.3008,846.31,1255.4994" style="stroke:#000000;stroke-width:1;"/><text fill="#000000" font-family="Verdana" font-size="13" lengthAdjust="spacing" textLength="65.5142" x="12" y="879.8063">composes</text></g><!--link V120Validator to DependencyValidationStrategy--><g class="link" data-entity-1="V120Validator" data-entity-2="DependencyValidationStrategy" data-source-line="129" data-uid="lnk47" id="link_V120Validator_DependencyValidationStrategy"><path codeLine="129" d="M560.4,472.1394 C701.28,519.7794 935.2264,598.8968 1063.7364,642.3668" fill="none" id="V120Validator-to-DependencyValidationStrategy" style="stroke:#000000;stroke-width:1;"/><polygon fill="#000000" points="1069.42,644.2894,1062.1762,637.6164,1064.6836,642.6872,1059.6128,645.1946,1069.42,644.2894" style="stroke:#000000;stroke-width:1;"/><text fill="#000000" font-family="Verdana" font-size="13" lengthAdjust="spacing" textLength="65.5142" x="699.22" y="514.8263">composes</text></g><!--link V110Validator to SchemaValidationStrategy--><g class="link" data-entity-1="V110Validator" data-entity-2="SchemaValidationStrategy" data-source-line="130" data-uid="lnk48" id="link_V110Validator_SchemaValidationStrategy"><path codeLine="130" d="M285.34,746.1494 C207.42,784.9494 131,833.4094 131,874.2394 C131,874.2394 131,874.2394 131,1381.7294 C131,1455.3594 546.5738,1483.3958 849.7838,1494.1958" fill="none" id="V110Validator-to-SchemaValidationStrategy" style="stroke:#000000;stroke-width:1;"/><polygon fill="#000000" points="855.78,1494.4094,846.9281,1490.0915,850.7832,1494.2314,846.6433,1498.0865,855.78,1494.4094" style="stroke:#000000;stroke-width:1;"/><text fill="#000000" font-family="Verdana" font-size="13" lengthAdjust="spacing" textLength="65.5142" x="132" y="1142.6963">composes</text></g><!--link V110Validator to DependencyValidationStrategy--><g class="link" data-entity-1="V110Validator" data-entity-2="DependencyValidationStrategy" data-source-line="131" data-uid="lnk49" id="link_V110Validator_DependencyValidationStrategy"><path codeLine="131" d="M697.62,674.9094 C741.15,674.9094 781.02,674.9094 826.25,674.9094" fill="none" id="V110Validator-to-DependencyValidationStrategy" style="stroke:#000000;stroke-width:1;"/><polygon fill="#000000" points="832.25,674.9094,823.25,670.9094,827.25,674.9094,823.25,678.9094,832.25,674.9094" style="stroke:#000000;stroke-width:1;"/><text fill="#000000" font-family="Verdana" font-size="13" lengthAdjust="spacing" textLength="65.5142" x="732.53" y="667.9763">composes</text></g><!--link V110Validator to EntryPointValidationStrategy--><g class="link" data-entity-1="V110Validator" data-entity-2="EntryPointValidationStrategy" data-source-line="132" data-uid="lnk50" id="link_V110Validator_EntryPointValidationStrategy"><path codeLine="132" d="M513.78,746.1994 C570.22,803.1594 657.08,881.0394 748,925.6894 C804.7,953.5294 864.1569,971.585 925.7169,984.965" fill="none" id="V110Validator-to-EntryPointValidationStrategy" style="stroke:#000000;stroke-width:1;"/><polygon fill="#000000" points="931.58,986.2394,923.6349,980.4191,926.6941,985.1774,921.9358,988.2366,931.58,986.2394" style="stroke:#000000;stroke-width:1;"/><text fill="#000000" font-family="Verdana" font-size="13" lengthAdjust="spacing" textLength="65.5142" x="749" y="879.8063">composes</text></g><!--link V110Validator to ToolsValidationStrategy--><g class="link" data-entity-1="V110Validator" data-entity-2="ToolsValidationStrategy" data-source-line="133" data-uid="lnk51" id="link_V110Validator_ToolsValidationStrategy"><path codeLine="133" d="M474.55,746.0594 C486.01,783.5694 497,830.8394 497,874.2394 C497,874.2394 497,874.2394 497,1139.1294 C497,1177.5394 670.9049,1207.9768 840.2249,1228.8068" fill="none" id="V110Validator-to-ToolsValidationStrategy" style="stroke:#000000;stroke-width:1;"/><polygon fill="#000000" points="846.18,1229.5394,837.7357,1224.4704,841.2174,1228.9289,836.7589,1232.4105,846.18,1229.5394" style="stroke:#000000;stroke-width:1;"/><text fill="#000000" font-family="Verdana" font-size="13" lengthAdjust="spacing" textLength="65.5142" x="498" y="1021.4063">composes</text></g><!--SRC=[pLZTRjis5BxdKvpbPfjNsV4kXI0NJJkWm3OKQxQRD0XewjWcAfE2I3SnsW1zbZtQdcH7baH9D2cudWlC2617udT-Fl9yX-HtTeqRX2BdKZ7pGQg2btm32ou-h4gzLTcDpdK9ZsjfiVTUvDoObqSDqcM6PJrWaHEYDu2NfNxils9MsXpXdIsvnTKEtd9hiLJmPbFa5AQot4gj886_U2wp-fzci4J3M456-0hXmbbueyZ0aWiq5_290Ntumj1BOUlmUfOSfXvNVQwkP8k_ldPFfrFtSpRpOqtXjHAyCDkS7Xlus0NAyvKkfLrl32mfOrEWa4ifG6Wb26Xciv27d-1J6_4pu1EAhSKVDcWvMUKfl9B2lgXCM7ooQI-Rc_hHZodSRecykuNM-GluLHfxHzRkx_SEdjd-gqHXkLeHynU_qJheKNhXoF1eUuK5gWoLs8qIwCNVi84FMGid7sVBnkK3xTpEVxuC1Ue568wAV9L8qsYTxVhRyp0_fuSmrw-LBNTlDIt5axZ62lvGLFXlo_Ky56YCYK5KKIOwbizlssFvbj8q9n5iA-ItPTOBBfPu7SdHA_S_MWtp-4vGH-4d4MdsqBCosJeyoDqFCvPy4rEOqsT6BB13qKpkrZAZCh_FzADA0Zs6ZUgd3u_8s5SQ2IiLOr4DyooCoH1Zeo9rc51GAxxII5WKweI2Sk5PY5GypMXC2m9vU4EFXnwKNnsuNvCUBbPTlRrFKnjmKwtrheLtOjAWQG_IhVa4UgBvO1ghwVYaT-2zHFHWCMeF2ynLkwlpOQdLXJRCu3ASWMkkkruaOpLodd3cmN1ciriiDrBn7DphjDl86jeEvc2SPapXTqq9vBYgfrqXPfXDmtl216fLwgKPNHVdeET_l3YUgwhfB-c0ThgNRBXs0YNP3MM7TUJ6vxYqIVYGmTZttV55gZNIZf_J_fu59E7gSvACJq0CD4fy31IZFJO-BZNz50SdCpFUagu-JwSdThC66kbXetsZzNf2ot5UWz2Or3k7n_O6vyO7HFTI3k6F64oEq9j26xb_xbL9SZr-h4WRC9sg3v6nF8QWoo5eT7e7oBc7ZB8mYZhTt_74-CWZY65AMoH9B40llMwSmcJY83VTt4qcxzMVXEsrY_qDWbZJeHspzwftoT1U9e1M-QvnnerR4YzHuL9QmtgUsakMzbqwcR1_llnDmNGt6VieIF2vM7Vt620D_UdgeYDh4B_a-2GNCfTsLuytEyeLp2Cl3gIYHjoYiRn3TBje45p1WgYY0PYHbhRzor9YDVOFt9fHh5dpah1Sb9fQzKSipTupcO6AcNy1]--></g></svg>