<svg xmlns="http://www.w3.org/2000/svg" xmlns:xlink="http://www.w3.org/1999/xlink" contentStyleType="text/css" data-diagram-type="SEQUENCE" height="755px" preserveAspectRatio="none" style="width:1222px;height:755px;background:#FFFFFF;" version="1.1" viewBox="0 0 1222 755" width="1222px" zoomAndPan="magnify"><title>Version-Agnostic Data Access - Simplified Flow</title><defs/><g><text fill="#000000" font-family="Verdana" font-size="22" font-weight="bold" lengthAdjust="spacing" textLength="584.1279" x="325.8213" y="35.4209">Version-Agnostic Data Access - Simplified Flow</text><g><title>HatchPackageValidator</title><rect fill="#FFFFFF" height="400.9922" style="stroke:#000000;stroke-width:1;" width="10" x="275.2227" y="160.0391"/></g><g><title>ValidatorFactory</title><rect fill="#FFFFFF" height="29.1328" style="stroke:#000000;stroke-width:1;" width="10" x="555.4883" y="189.1719"/></g><g><title>Validator Chain</title><rect fill="#FFFFFF" height="226.1953" style="stroke:#000000;stroke-width:1;" width="10" x="711.1328" y="305.7031"/></g><g><title>HatchPkgAccessorFactory</title><rect fill="#FFFFFF" height="29.1328" style="stroke:#000000;stroke-width:1;" width="10" x="899.7197" y="247.4375"/></g><g><title>Package Accessor Chain</title><rect fill="#FFFFFF" height="29.1328" style="stroke:#000000;stroke-width:1;" width="10" x="1119.6255" y="334.8359"/></g><g><title>Package Accessor Chain</title><rect fill="#FFFFFF" height="29.1328" style="stroke:#000000;stroke-width:1;" width="10" x="1119.6255" y="393.1016"/></g><g><title>Client</title><rect fill="#000000" fill-opacity="0.00000" height="545.7891" width="8" x="65.2651" y="128.9063"/><line style="stroke:#000000;stroke-width:1;" x1="69" x2="69" y1="128.9063" y2="674.6953"/></g><g><title>HatchPackageValidator</title><rect fill="#000000" fill-opacity="0.00000" height="545.7891" width="8" x="276.2227" y="128.9063"/><line style="stroke:#000000;stroke-width:1;" x1="279.5811" x2="279.5811" y1="128.9063" y2="674.6953"/></g><g><title>ValidatorFactory</title><rect fill="#000000" fill-opacity="0.00000" height="545.7891" width="8" x="556.4883" y="128.9063"/><line style="stroke:#000000;stroke-width:1;" x1="559.6699" x2="559.6699" y1="128.9063" y2="674.6953"/></g><g><title>Validator Chain</title><rect fill="#000000" fill-opacity="0.00000" height="545.7891" width="8" x="712.1328" y="128.9063"/><line style="stroke:#000000;stroke-width:1;" x1="715.3066" x2="715.3066" y1="128.9063" y2="674.6953"/></g><g><title>HatchPkgAccessorFactory</title><rect fill="#000000" fill-opacity="0.00000" height="545.7891" width="8" x="900.7197" y="128.9063"/><line style="stroke:#000000;stroke-width:1;" x1="903.959" x2="903.959" y1="128.9063" y2="674.6953"/></g><g><title>Package Accessor Chain</title><rect fill="#000000" fill-opacity="0.00000" height="545.7891" width="8" x="1120.6255" y="128.9063"/><line style="stroke:#000000;stroke-width:1;" x1="1124.4805" x2="1124.4805" y1="128.9063" y2="674.6953"/></g><g class="participant participant-head" data-participant="Client"><text fill="#000000" font-family="Verdana" font-size="14" lengthAdjust="spacing" textLength="40.5303" x="46" y="125.6045">Client</text><ellipse cx="69.2651" cy="60.6094" fill="#FFFFFF" rx="8" ry="8" style="stroke:#000000;stroke-width:1;"/><path d="M69.2651,68.6094 L69.2651,95.6094 M56.2651,76.6094 L82.2651,76.6094 M69.2651,95.6094 L56.2651,110.6094 M69.2651,95.6094 L82.2651,110.6094" fill="none" style="stroke:#000000;stroke-width:1;"/></g><g class="participant participant-tail" data-participant="Client"><text fill="#000000" font-family="Verdana" font-size="14" lengthAdjust="spacing" textLength="40.5303" x="46" y="686.6904">Client</text><ellipse cx="69.2651" cy="698.9922" fill="#FFFFFF" rx="8" ry="8" style="stroke:#000000;stroke-width:1;"/><path d="M69.2651,706.9922 L69.2651,733.9922 M56.2651,714.9922 L82.2651,714.9922 M69.2651,733.9922 L56.2651,748.9922 M69.2651,733.9922 L82.2651,748.9922" fill="none" style="stroke:#000000;stroke-width:1;"/></g><g class="participant participant-head" data-participant="HPV"><rect fill="#FFFFFF" height="30.2969" rx="2.5" ry="2.5" style="stroke:#000000;stroke-width:1;" width="177.2832" x="191.5811" y="97.6094"/><text fill="#000000" font-family="Verdana" font-size="14" lengthAdjust="spacing" textLength="163.2832" x="198.5811" y="117.6045">HatchPackageValidator</text></g><g class="participant participant-tail" data-participant="HPV"><rect fill="#FFFFFF" height="30.2969" rx="2.5" ry="2.5" style="stroke:#000000;stroke-width:1;" width="177.2832" x="191.5811" y="673.6953"/><text fill="#000000" font-family="Verdana" font-size="14" lengthAdjust="spacing" textLength="163.2832" x="198.5811" y="693.6904">HatchPackageValidator</text></g><g class="participant participant-head" data-participant="VF"><rect fill="#FFFFFF" height="30.2969" rx="2.5" ry="2.5" style="stroke:#000000;stroke-width:1;" width="129.6367" x="495.6699" y="97.6094"/><text fill="#000000" font-family="Verdana" font-size="14" lengthAdjust="spacing" textLength="115.6367" x="502.6699" y="117.6045">ValidatorFactory</text></g><g class="participant participant-tail" data-participant="VF"><rect fill="#FFFFFF" height="30.2969" rx="2.5" ry="2.5" style="stroke:#000000;stroke-width:1;" width="129.6367" x="495.6699" y="673.6953"/><text fill="#000000" font-family="Verdana" font-size="14" lengthAdjust="spacing" textLength="115.6367" x="502.6699" y="693.6904">ValidatorFactory</text></g><g class="participant participant-head" data-participant="VC"><rect fill="#FFFFFF" height="30.2969" rx="2.5" ry="2.5" style="stroke:#000000;stroke-width:1;" width="121.6523" x="655.3066" y="97.6094"/><text fill="#000000" font-family="Verdana" font-size="14" lengthAdjust="spacing" textLength="107.6523" x="662.3066" y="117.6045">Validator Chain</text></g><g class="participant participant-tail" data-participant="VC"><rect fill="#FFFFFF" height="30.2969" rx="2.5" ry="2.5" style="stroke:#000000;stroke-width:1;" width="121.6523" x="655.3066" y="673.6953"/><text fill="#000000" font-family="Verdana" font-size="14" lengthAdjust="spacing" textLength="107.6523" x="662.3066" y="693.6904">Validator Chain</text></g><g class="participant participant-head" data-participant="HPAF"><rect fill="#FFFFFF" height="30.2969" rx="2.5" ry="2.5" style="stroke:#000000;stroke-width:1;" width="195.5215" x="806.959" y="97.6094"/><text fill="#000000" font-family="Verdana" font-size="14" lengthAdjust="spacing" textLength="181.5215" x="813.959" y="117.6045">HatchPkgAccessorFactory</text></g><g class="participant participant-tail" data-participant="HPAF"><rect fill="#FFFFFF" height="30.2969" rx="2.5" ry="2.5" style="stroke:#000000;stroke-width:1;" width="195.5215" x="806.959" y="673.6953"/><text fill="#000000" font-family="Verdana" font-size="14" lengthAdjust="spacing" textLength="181.5215" x="813.959" y="693.6904">HatchPkgAccessorFactory</text></g><g class="participant participant-head" data-participant="PAC"><rect fill="#FFFFFF" height="30.2969" rx="2.5" ry="2.5" style="stroke:#000000;stroke-width:1;" width="184.29" x="1032.4805" y="97.6094"/><text fill="#000000" font-family="Verdana" font-size="14" lengthAdjust="spacing" textLength="170.29" x="1039.4805" y="117.6045">Package Accessor Chain</text></g><g class="participant participant-tail" data-participant="PAC"><rect fill="#FFFFFF" height="30.2969" rx="2.5" ry="2.5" style="stroke:#000000;stroke-width:1;" width="184.29" x="1032.4805" y="673.6953"/><text fill="#000000" font-family="Verdana" font-size="14" lengthAdjust="spacing" textLength="170.29" x="1039.4805" y="693.6904">Package Accessor Chain</text></g><g><title>HatchPackageValidator</title><rect fill="#FFFFFF" height="400.9922" style="stroke:#000000;stroke-width:1;" width="10" x="275.2227" y="160.0391"/></g><g><title>ValidatorFactory</title><rect fill="#FFFFFF" height="29.1328" style="stroke:#000000;stroke-width:1;" width="10" x="555.4883" y="189.1719"/></g><g><title>Validator Chain</title><rect fill="#FFFFFF" height="226.1953" style="stroke:#000000;stroke-width:1;" width="10" x="711.1328" y="305.7031"/></g><g><title>HatchPkgAccessorFactory</title><rect fill="#FFFFFF" height="29.1328" style="stroke:#000000;stroke-width:1;" width="10" x="899.7197" y="247.4375"/></g><g><title>Package Accessor Chain</title><rect fill="#FFFFFF" height="29.1328" style="stroke:#000000;stroke-width:1;" width="10" x="1119.6255" y="334.8359"/></g><g><title>Package Accessor Chain</title><rect fill="#FFFFFF" height="29.1328" style="stroke:#000000;stroke-width:1;" width="10" x="1119.6255" y="393.1016"/></g><g class="message" data-participant-1="Client" data-participant-2="HPV"><polygon fill="#000000" points="263.2227,156.0391,273.2227,160.0391,263.2227,164.0391,267.2227,160.0391" style="stroke:#000000;stroke-width:1;"/><line style="stroke:#000000;stroke-width:1;" x1="69.2651" x2="269.2227" y1="160.0391" y2="160.0391"/><text fill="#000000" font-family="Verdana" font-size="13" lengthAdjust="spacing" textLength="186.9575" x="76.2651" y="154.9731">validate_package(metadata)</text></g><g class="message" data-participant-1="HPV" data-participant-2="VF"><polygon fill="#000000" points="543.4883,185.1719,553.4883,189.1719,543.4883,193.1719,547.4883,189.1719" style="stroke:#000000;stroke-width:1;"/><line style="stroke:#000000;stroke-width:1;" x1="285.2227" x2="549.4883" y1="189.1719" y2="189.1719"/><text fill="#000000" font-family="Verdana" font-size="13" lengthAdjust="spacing" textLength="251.2656" x="292.2227" y="184.106">create_validator_chain(target_version)</text></g><g class="message" data-participant-1="VF" data-participant-2="HPV"><polygon fill="#000000" points="296.2227,214.3047,286.2227,218.3047,296.2227,222.3047,292.2227,218.3047" style="stroke:#000000;stroke-width:1;"/><line style="stroke:#000000;stroke-width:1;stroke-dasharray:2.0,2.0;" x1="290.2227" x2="559.4883" y1="218.3047" y2="218.3047"/><text fill="#000000" font-family="Verdana" font-size="13" lengthAdjust="spacing" textLength="99.2012" x="302.2227" y="213.2388">validator_chain</text></g><g class="message" data-participant-1="HPV" data-participant-2="HPAF"><polygon fill="#000000" points="887.7197,243.4375,897.7197,247.4375,887.7197,251.4375,891.7197,247.4375" style="stroke:#000000;stroke-width:1;"/><line style="stroke:#000000;stroke-width:1;" x1="285.2227" x2="893.7197" y1="247.4375" y2="247.4375"/><text fill="#000000" font-family="Verdana" font-size="13" lengthAdjust="spacing" textLength="250.8721" x="292.2227" y="242.3716">create_accessor_chain(target_version)</text></g><g class="message" data-participant-1="HPAF" data-participant-2="HPV"><polygon fill="#000000" points="296.2227,272.5703,286.2227,276.5703,296.2227,280.5703,292.2227,276.5703" style="stroke:#000000;stroke-width:1;"/><line style="stroke:#000000;stroke-width:1;stroke-dasharray:2.0,2.0;" x1="290.2227" x2="903.7197" y1="276.5703" y2="276.5703"/><text fill="#000000" font-family="Verdana" font-size="13" lengthAdjust="spacing" textLength="98.8076" x="302.2227" y="271.5044">accessor_chain</text></g><g class="message" data-participant-1="HPV" data-participant-2="VC"><polygon fill="#000000" points="699.1328,301.7031,709.1328,305.7031,699.1328,309.7031,703.1328,305.7031" style="stroke:#000000;stroke-width:1;"/><line style="stroke:#000000;stroke-width:1;" x1="285.2227" x2="705.1328" y1="305.7031" y2="305.7031"/><text fill="#000000" font-family="Verdana" font-size="13" lengthAdjust="spacing" textLength="182.8379" x="292.2227" y="300.6372">validate(metadata, context)</text></g><g class="message" data-participant-1="VC" data-participant-2="PAC"><polygon fill="#000000" points="1107.6255,330.8359,1117.6255,334.8359,1107.6255,338.8359,1111.6255,334.8359" style="stroke:#000000;stroke-width:1;"/><line style="stroke:#000000;stroke-width:1;" x1="721.1328" x2="1113.6255" y1="334.8359" y2="334.8359"/><text fill="#000000" font-family="Verdana" font-size="13" lengthAdjust="spacing" textLength="191.7563" x="728.1328" y="329.77">get_dependencies(metadata)</text></g><g class="message" data-participant-1="PAC" data-participant-2="VC"><polygon fill="#000000" points="732.1328,359.9688,722.1328,363.9688,732.1328,367.9688,728.1328,363.9688" style="stroke:#000000;stroke-width:1;"/><line style="stroke:#000000;stroke-width:1;stroke-dasharray:2.0,2.0;" x1="726.1328" x2="1123.6255" y1="363.9688" y2="363.9688"/><text fill="#000000" font-family="Verdana" font-size="13" lengthAdjust="spacing" textLength="126.5405" x="738.1328" y="358.9028">dependencies_data</text></g><g class="message" data-participant-1="VC" data-participant-2="PAC"><polygon fill="#000000" points="1107.6255,389.1016,1117.6255,393.1016,1107.6255,397.1016,1111.6255,393.1016" style="stroke:#000000;stroke-width:1;"/><line style="stroke:#000000;stroke-width:1;" x1="721.1328" x2="1113.6255" y1="393.1016" y2="393.1016"/><text fill="#000000" font-family="Verdana" font-size="13" lengthAdjust="spacing" textLength="181.7969" x="728.1328" y="388.0356">get_entry_points(metadata)</text></g><g class="message" data-participant-1="PAC" data-participant-2="VC"><polygon fill="#000000" points="732.1328,418.2344,722.1328,422.2344,732.1328,426.2344,728.1328,422.2344" style="stroke:#000000;stroke-width:1;"/><line style="stroke:#000000;stroke-width:1;stroke-dasharray:2.0,2.0;" x1="726.1328" x2="1123.6255" y1="422.2344" y2="422.2344"/><text fill="#000000" font-family="Verdana" font-size="13" lengthAdjust="spacing" textLength="116.5811" x="738.1328" y="417.1685">entry_points_data</text></g><path d="M629,435.2344 L629,505.2344 L802,505.2344 L802,445.2344 L792,435.2344 L629,435.2344" fill="#FFFFFF" style="stroke:#000000;stroke-width:1;"/><path d="M792,435.2344 L792,445.2344 L802,445.2344 L792,435.2344" fill="#FFFFFF" style="stroke:#000000;stroke-width:1;"/><text fill="#000000" font-family="Verdana" font-size="13" font-weight="bold" lengthAdjust="spacing" textLength="125.6201" x="635" y="452.3013">Chain Delegation</text><text fill="#000000" font-family="Verdana" font-size="13" lengthAdjust="spacing" textLength="148.4082" x="635" y="467.4341">Each validator handles</text><text fill="#000000" font-family="Verdana" font-size="13" lengthAdjust="spacing" textLength="152.7373" x="635" y="482.5669">its version or delegates</text><text fill="#000000" font-family="Verdana" font-size="13" lengthAdjust="spacing" textLength="101.5308" x="635" y="497.6997">to next in chain</text><g class="message" data-participant-1="VC" data-participant-2="HPV"><polygon fill="#000000" points="296.2227,527.8984,286.2227,531.8984,296.2227,535.8984,292.2227,531.8984" style="stroke:#000000;stroke-width:1;"/><line style="stroke:#000000;stroke-width:1;stroke-dasharray:2.0,2.0;" x1="290.2227" x2="715.1328" y1="531.8984" y2="531.8984"/><text fill="#000000" font-family="Verdana" font-size="13" lengthAdjust="spacing" textLength="107.5674" x="302.2227" y="526.8325">validation_result</text></g><g class="message" data-participant-1="HPV" data-participant-2="Client"><polygon fill="#000000" points="80.2651,557.0313,70.2651,561.0313,80.2651,565.0313,76.2651,561.0313" style="stroke:#000000;stroke-width:1;"/><line style="stroke:#000000;stroke-width:1;stroke-dasharray:2.0,2.0;" x1="74.2651" x2="279.2227" y1="561.0313" y2="561.0313"/><text fill="#000000" font-family="Verdana" font-size="13" lengthAdjust="spacing" textLength="105.187" x="86.2651" y="555.9653">(is_valid, errors)</text></g><path d="M10,574.0313 L10,659.0313 L1185,659.0313 L1185,584.0313 L1175,574.0313 L10,574.0313" fill="#FFFFFF" style="stroke:#000000;stroke-width:1;"/><path d="M1175,574.0313 L1175,584.0313 L1185,584.0313 L1175,574.0313" fill="#FFFFFF" style="stroke:#000000;stroke-width:1;"/><text fill="#000000" font-family="Verdana" font-size="13" font-weight="bold" lengthAdjust="spacing" textLength="97.9507" x="438.6389" y="591.0981">Key Benefits:</text><text fill="#000000" font-family="Verdana" font-size="13" lengthAdjust="spacing" textLength="307.1821" x="438.6389" y="606.231">&#8226; Client doesn't need to know schema versions</text><text fill="#000000" font-family="Verdana" font-size="13" lengthAdjust="spacing" textLength="309.4927" x="438.6389" y="621.3638">&#8226; Automatic delegation to appropriate handlers</text><text fill="#000000" font-family="Verdana" font-size="13" lengthAdjust="spacing" textLength="229.29" x="438.6389" y="636.4966">&#8226; Consistent API across all versions</text><text fill="#000000" font-family="Verdana" font-size="13" lengthAdjust="spacing" textLength="258.5908" x="438.6389" y="651.6294">&#8226; Extensible for future schema changes</text><!--SRC=[bLJ1Zjem4BtdAwPxAHl13t2ebCqkeke5gL9EAw716H8BOqUsWUNMR-cdzKiwZXCmYAhj9OhYz-QzUJFn9z_Idg1JA7NcTb9tQ74F6nIxnfg3hakZZ8LJApqbv_pqKiWEjN_v3wYnDTa8soZc9J2qrfpIeynBhmWgiauQFIiQRHmNWbVq28KGv1pCuBlSTqfk9TMmKEQKPIWyboYL9EspH1kUbkX5k-BIs525IjR8o2T01yjLTGkz72_wSkSULIt-08AovVGYfdoakMkYtzjworLnLt4m1oCwARmgoYoBNS7iIt0CSpX61xJk8d6o9u_y0Pz33FB8HtrlMO0pgremILWAbEFeVYs2oCIZRSYlZp7kf02tpRpPlUX8p6fAeQDKQEugXaD3VzFg8-cfLxrRRYhNeo-zbKaWbo2c88pszE7JXZX9HZE7GsLIi59JHxecBIIvHoc6-0DwDYgbX7K0fyRwOTrByEJiUTqPgVs_IQI4nnBQy9lX62CXp_jzWLTIrA3dQFFyNR-XQAz3WnPrhSYzQ-aT31C0_bv7KZZn1ZH71bmgPjxtShy0p5jRSWVbRrQW72R2y65Tvp2HBkxR58X_S-kURyTOfQr4rdH8Bi-_qHbUIDEM3Sz3Gxz-_1nBruQS_kpPBl__R7kdpGcSu2iDnzvS91G7R_OOxe_waavWODTPqraPZCHexC0ecIkT3pB5wYkleJLyuw1ITvNVFXZZv8RlgYtdk3tuWwNH1EUd6tA_0G00]--></g></svg>